<svg width="40" height="40" viewBox="0 0 40 40" fill="none" xmlns="http://www.w3.org/2000/svg">
<path fill-rule="evenodd" clip-rule="evenodd" d="M20 39C30.4934 39 39 30.4934 39 20C39 9.50659 30.4934 1 20 1C9.50659 1 1 9.50659 1 20C1 30.4934 9.50659 39 20 39Z" fill="#3C7DFC"/>
<path d="M28 16C28 18.2091 26.2091 20 24 20C23.3601 20 22.7553 19.8498 22.219 19.5826C22.0765 19.5116 21.9136 19.488 21.7598 19.5292L20.8693 19.7674C20.4828 19.8708 20.1292 19.5172 20.2326 19.1307L20.4708 18.2402C20.512 18.0864 20.4884 17.9235 20.4174 17.781C20.1502 17.2447 20 16.6399 20 16C20 13.7909 21.7909 12 24 12C26.2091 12 28 13.7909 28 16Z" fill="white"/>
<path d="M14.1746 13.7418L15.9894 13.6022C16.2897 13.5791 16.574 13.7401 16.7087 14.0094L18.342 17.276C18.4845 17.5612 18.4287 17.9055 18.2033 18.1309L16.9647 19.3695C16.8258 19.5084 16.7615 19.6982 16.8496 19.8738C17.0013 20.1761 17.3788 20.7411 18.3189 21.6811C19.2589 22.6212 19.8239 22.9987 20.1262 23.1504C20.3018 23.2385 20.4916 23.1742 20.6305 23.0353L21.8691 21.7967C22.0945 21.5713 22.4388 21.5155 22.724 21.658L25.9906 23.2913C26.2599 23.426 26.4209 23.7103 26.3978 24.0106L26.2582 25.8254C26.204 26.5304 25.9006 27.2121 25.2645 27.5209C24.6422 27.8231 23.7119 28.0991 22.5084 27.9654C21.1976 27.8197 19.3662 27.4417 15.9623 24.0377C12.5583 20.6338 12.1803 18.8024 12.0346 17.4916C11.9009 16.2881 12.1769 15.3578 12.4791 14.7355C12.7879 14.0994 13.4696 13.796 14.1746 13.7418Z" fill="white"/>
</svg>
