<svg width="40" height="40" viewBox="0 0 40 40" fill="none" xmlns="http://www.w3.org/2000/svg">
<path fill-rule="evenodd" clip-rule="evenodd" d="M20 39C30.4934 39 39 30.4934 39 20C39 9.50659 30.4934 1 20 1C9.50659 1 1 9.50659 1 20C1 30.4934 9.50659 39 20 39Z" fill="#3C7DFC"/>
<path fill-rule="evenodd" clip-rule="evenodd" d="M11.7103 16.4375H28.2897C28.2613 15.9717 28.1973 15.6413 28.0536 15.3593C27.8259 14.9124 27.4626 14.5491 27.0157 14.3214C26.5077 14.0625 25.8426 14.0625 24.5125 14.0625H15.4875C14.1574 14.0625 13.4923 14.0625 12.9843 14.3214C12.5374 14.5491 12.1741 14.9124 11.9464 15.3593C11.8027 15.6413 11.7387 15.9717 11.7103 16.4375ZM28.3125 18.8125H11.6875V22.1375C11.6875 23.4676 11.6875 24.1327 11.9464 24.6407C12.1741 25.0876 12.5374 25.4509 12.9843 25.6786C13.4923 25.9375 14.1574 25.9375 15.4875 25.9375H24.5125C25.8426 25.9375 26.5077 25.9375 27.0157 25.6786C27.4626 25.4509 27.8259 25.0876 28.0536 24.6407C28.3125 24.1327 28.3125 23.4676 28.3125 22.1375V18.8125ZM14.0625 22.375C14.0625 21.7192 14.5942 21.1875 15.25 21.1875C15.9058 21.1875 16.4375 21.7192 16.4375 22.375C16.4375 23.0308 15.9058 23.5625 15.25 23.5625C14.5942 23.5625 14.0625 23.0308 14.0625 22.375ZM16.4375 22.375C16.4375 23.0308 16.9692 23.5625 17.625 23.5625C18.2808 23.5625 18.8125 23.0308 18.8125 22.375C18.8125 21.7192 18.2808 21.1875 17.625 21.1875C16.9692 21.1875 16.4375 21.7192 16.4375 22.375Z" fill="white"/>
</svg>
