<svg width="40" height="40" viewBox="0 0 40 40" fill="none" xmlns="http://www.w3.org/2000/svg">
<path d="M39 20C39 30.4934 30.4934 39 20 39C9.50659 39 1 30.4934 1 20C1 9.50659 9.50659 1 20 1C30.4934 1 39 9.50659 39 20Z" fill="#3C7DFC"/>
<path fill-rule="evenodd" clip-rule="evenodd" d="M26.7772 15.5978C27.2409 16.0616 27.2409 16.8134 26.7772 17.2772L18.8125 25.2419L14.4103 20.8397C13.9466 20.3759 13.9466 19.6241 14.4103 19.1603C14.8741 18.6966 15.6259 18.6966 16.0897 19.1603L18.8125 21.8831L25.0978 15.5978C25.5616 15.1341 26.3134 15.1341 26.7772 15.5978Z" fill="white"/>
</svg>
