<svg width="40" height="40" viewBox="0 0 40 40" fill="none" xmlns="http://www.w3.org/2000/svg">
<path d="M39 20C39 30.4934 30.4934 39 20 39C9.50659 39 1 30.4934 1 20C1 9.50659 9.50659 1 20 1C30.4934 1 39 9.50659 39 20Z" fill="#3C7DFC"/>
<path fill-rule="evenodd" clip-rule="evenodd" d="M20 15.25C20.9838 15.25 21.7812 14.4525 21.7812 13.4688C21.7812 12.485 20.9838 11.6875 20 11.6875C19.0162 11.6875 18.2188 12.485 18.2188 13.4688C18.2188 14.4525 19.0162 15.25 20 15.25ZM21.1875 24.75L21.1875 16.4375H18.8125C18.1567 16.4375 17.625 16.9692 17.625 17.625C17.625 18.2808 18.1567 18.8125 18.8125 18.8125L18.8125 24.75C18.1567 24.75 17.625 25.2817 17.625 25.9375C17.625 26.5933 18.1567 27.125 18.8125 27.125H21.1875C21.8433 27.125 22.375 26.5933 22.375 25.9375C22.375 25.2817 21.8433 24.75 21.1875 24.75Z" fill="white"/>
</svg>
