<svg width="40" height="40" viewBox="0 0 40 40" fill="none" xmlns="http://www.w3.org/2000/svg">
<path fill-rule="evenodd" clip-rule="evenodd" d="M20 39C30.4934 39 39 30.4934 39 20C39 9.50659 30.4934 1 20 1C9.50659 1 1 9.50659 1 20C1 30.4934 9.50659 39 20 39Z" fill="#3C7DFC"/>
<path d="M26.986 13.4888C27.0647 13.2002 26.7998 12.9353 26.5112 13.014L11.285 17.1667C10.9565 17.2562 10.8959 17.696 11.1878 17.8712L15.7277 20.5951C16.6515 21.1494 17.8226 21.0706 18.6639 20.3976L22.4508 17.3681C22.5709 17.272 22.728 17.4291 22.6319 17.5492L19.6024 21.3361C18.9294 22.1774 18.8506 23.3485 19.4049 24.2723L22.1288 28.8122C22.304 29.1041 22.7438 29.0435 22.8333 28.715L26.986 13.4888Z" fill="white"/>
</svg>
