<svg width="40" height="40" viewBox="0 0 40 40" fill="none" xmlns="http://www.w3.org/2000/svg">
<path d="M4.82276 24.9534C4.63752 24.3785 4.23001 22.8746 4.08182 21.4576C3.96921 20.3808 3.9921 19.1879 4.03667 18.4M4.37138 15.8333C5.07115 13.3487 7.25794 8.02927 13.1546 5.40817C19.8385 2.43712 25.6424 4.86439 27.7572 6.34038M36 21.209C36 19.2 35.7149 17.5394 34.5745 14.3107C33.5107 11.299 31.0711 8.91054 29.732 7.80349M6.90291 29.3969C7.6387 28.7754 9.06398 27.054 8.87874 25.1398C8.6472 22.7472 5.59993 17.7873 11.719 11.048C16.0566 6.64838 25.2765 6.12562 29.9255 13.6673C34.5745 21.209 31.9486 29.8219 30.937 31.8051M9.28008 31.9604C9.71744 31.7911 10.7712 31.1938 11.4875 30.1596C12.1981 29.1335 12.6558 28.1992 12.8222 27.5462M24.3458 13.2387C23.7262 12.6017 21.7432 11.4214 18.7679 11.7958C15.0487 12.2637 12.1634 15.4449 11.7944 18.8147C11.518 21.3384 12.5739 23.6478 12.8477 25.0311M12.4291 34.1356C13.8801 33.084 16.9852 30.1434 16.8 26.4C16.7142 24.6667 16.034 23.2888 15.6 22C14.8 19.6243 15.4408 17.0911 17.8381 16.0072C20.2353 14.9232 22.8 16.4 23.6 18.4C24.6253 20.9633 26.4 28.8 20.6275 36M19.7149 19.6243C19.9374 20.1703 20.4313 21.7086 20.6275 23.494C20.7941 25.011 20.5871 26.5504 20.4075 27.3992M25.3646 35.1141C26.229 33.8923 28.1085 30.1078 28.5308 25.3658C28.9171 21.0276 27.6149 17.0827 26.1618 15.1135M16.034 35.4873C16.6398 34.9794 17.8381 33.7885 18.5421 32.7062C19.1113 31.8312 19.6924 30.5775 19.9088 29.8463" stroke="#3C7DFC" stroke-width="2" stroke-linecap="round" stroke-linejoin="round"/>
</svg>
