<svg width="16" height="16" viewBox="0 0 16 16" fill="none" xmlns="http://www.w3.org/2000/svg">
<path fill-rule="evenodd" clip-rule="evenodd" d="M6 8C7.65685 8 9 6.65685 9 5C9 3.34315 7.65685 2 6 2C4.34315 2 3 3.34315 3 5C3 6.65685 4.34315 8 6 8ZM6 14C1 14 1 12.8807 1 11.5C1 10.1193 3.23858 9 6 9C8.76142 9 11 10.1193 11 11.5C11 12.8807 11 14 6 14ZM10 8C10 7.44772 10.4477 7 11 7H11.5V6.5C11.5 5.94772 11.9477 5.5 12.5 5.5C13.0523 5.5 13.5 5.94772 13.5 6.5V7H14C14.5523 7 15 7.44772 15 8C15 8.55228 14.5523 9 14 9H13.5V9.5C13.5 10.0523 13.0523 10.5 12.5 10.5C11.9477 10.5 11.5 10.0523 11.5 9.5V9H11C10.4477 9 10 8.55228 10 8Z" fill="currentColor"/>
</svg>
