<svg width="16" height="16" viewBox="0 0 16 16" fill="none" xmlns="http://www.w3.org/2000/svg">
<path fill-rule="evenodd" clip-rule="evenodd" d="M8 15C11.866 15 15 11.866 15 8C15 4.13401 11.866 1 8 1C4.13401 1 1 4.13401 1 8C1 11.866 4.13401 15 8 15ZM5.70711 8.70711C5.31658 9.09763 4.68342 9.09763 4.29289 8.70711C3.90237 8.31658 3.90237 7.68342 4.29289 7.29289L7.29289 4.29289L8 3.58579L8.70711 4.29289L11.7071 7.29289C12.0976 7.68342 12.0976 8.31658 11.7071 8.70711C11.3166 9.09763 10.6834 9.09763 10.2929 8.70711L9 7.41421L9 11C9 11.5523 8.55228 12 8 12C7.44771 12 7 11.5523 7 11L7 7.41421L5.70711 8.70711Z" fill="currentColor"/>
</svg>
