<svg width="16" height="16" viewBox="0 0 16 16" fill="none" xmlns="http://www.w3.org/2000/svg">
<path fill-rule="evenodd" clip-rule="evenodd" d="M8 15C11.866 15 15 11.866 15 8C15 4.13401 11.866 1 8 1C4.13401 1 1 4.13401 1 8C1 11.866 4.13401 15 8 15ZM8.70711 5.70711C9.09763 5.31658 9.09763 4.68342 8.70711 4.29289C8.31658 3.90237 7.68342 3.90237 7.29289 4.29289L4.29289 7.29289L3.58579 8L4.29289 8.70711L7.29289 11.7071C7.68342 12.0976 8.31658 12.0976 8.70711 11.7071C9.09763 11.3166 9.09763 10.6834 8.70711 10.2929L7.41421 9H11C11.5523 9 12 8.55228 12 8C12 7.44772 11.5523 7 11 7H7.41421L8.70711 5.70711Z" fill="currentColor"/>
</svg>
