<svg width="16" height="16" viewBox="0 0 16 16" fill="none" xmlns="http://www.w3.org/2000/svg">
<path fill-rule="evenodd" clip-rule="evenodd" d="M2 3C2 1.89543 2.89543 1 4 1H12C13.1046 1 14 1.89543 14 3V13C14.5523 13 15 13.4477 15 14C15 14.5523 14.5523 15 14 15L9.5 15V13C9.5 12.1716 8.82843 11.5 8 11.5C7.17157 11.5 6.5 12.1716 6.5 13V15L2 15C1.44772 15 1 14.5523 1 14C1 13.4477 1.44772 13 2 13V3ZM4 4C4 3.44772 4.44772 3 5 3H11C11.5523 3 12 3.44772 12 4C12 4.55228 11.5523 5 11 5H5C4.44772 5 4 4.55228 4 4ZM5 7C4.44772 7 4 7.44772 4 8C4 8.55228 4.44772 9 5 9H11C11.5523 9 12 8.55228 12 8C12 7.44772 11.5523 7 11 7H5Z" fill="currentColor"/>
</svg>
