<svg width="16" height="16" viewBox="0 0 16 16" fill="none" xmlns="http://www.w3.org/2000/svg">
<path d="M15 4.5C15 6.433 13.433 8 11.5 8C10.9401 8 10.4109 7.86854 9.94163 7.63479C9.81692 7.57267 9.67438 7.552 9.53978 7.58801L8.76067 7.79647C8.42245 7.88697 8.11303 7.57755 8.20353 7.23933L8.41199 6.46022C8.448 6.32562 8.42733 6.18308 8.36521 6.05837C8.13147 5.58907 8 5.05989 8 4.5C8 2.567 9.567 1 11.5 1C13.433 1 15 2.567 15 4.5Z" fill="currentColor"/>
<path d="M2.90281 2.52407L4.49076 2.40192C4.75346 2.38171 5.00225 2.52257 5.12008 2.75823L6.54924 5.61654C6.67398 5.86603 6.62508 6.16734 6.42785 6.36457L5.34413 7.44829C5.2226 7.56982 5.16633 7.73595 5.24341 7.88957C5.37611 8.15405 5.70648 8.64848 6.529 9.471C7.35152 10.2935 7.84595 10.6239 8.11043 10.7566C8.26405 10.8337 8.43018 10.7774 8.55171 10.6559L9.63543 9.57215C9.83266 9.37492 10.134 9.32602 10.3835 9.45077L13.2418 10.8799C13.4774 10.9978 13.6183 11.2465 13.5981 11.5092L13.4759 13.0972C13.4285 13.7141 13.163 14.3106 12.6064 14.5808C12.0619 14.8452 11.2479 15.0867 10.1948 14.9697C9.04788 14.8423 7.44545 14.5115 4.46699 11.533C1.48852 8.55455 1.15773 6.95212 1.0303 5.80519C0.913289 4.75213 1.15481 3.93809 1.41918 3.39358C1.68944 2.83695 2.28586 2.57153 2.90281 2.52407Z" fill="currentColor"/>
</svg>
