<svg width="16" height="16" viewBox="0 0 16 16" fill="none" xmlns="http://www.w3.org/2000/svg">
<path fill-rule="evenodd" clip-rule="evenodd" d="M1.01919 5H14.9808C14.9569 4.60779 14.903 4.32953 14.782 4.09202C14.5903 3.71569 14.2843 3.40973 13.908 3.21799C13.4802 3 12.9201 3 11.8 3H4.2C3.0799 3 2.51984 3 2.09202 3.21799C1.71569 3.40973 1.40973 3.71569 1.21799 4.09202C1.09697 4.32953 1.04314 4.60779 1.01919 5ZM15 7H1V9.8C1 10.9201 1 11.4802 1.21799 11.908C1.40973 12.2843 1.71569 12.5903 2.09202 12.782C2.51984 13 3.0799 13 4.2 13H11.8C12.9201 13 13.4802 13 13.908 12.782C14.2843 12.5903 14.5903 12.2843 14.782 11.908C15 11.4802 15 10.9201 15 9.8V7ZM3 10C3 9.44772 3.44772 9 4 9C4.55228 9 5 9.44772 5 10C5 10.5523 4.55228 11 4 11C3.44772 11 3 10.5523 3 10ZM5 10C5 10.5523 5.44772 11 6 11C6.55228 11 7 10.5523 7 10C7 9.44772 6.55228 9 6 9C5.44772 9 5 9.44772 5 10Z" fill="currentColor"/>
</svg>
