<svg width="16" height="16" viewBox="0 0 16 16" fill="none" xmlns="http://www.w3.org/2000/svg">
<path fill-rule="evenodd" clip-rule="evenodd" d="M3 6.00002C3 6.5523 2.55228 7.00002 2 7.00002C1.44772 7.00002 1 6.5523 1 6.00002C1 3.23858 3.23858 1 6 1H10C12.7614 1 15 3.23858 15 6.00002C15 6.5523 14.5523 7.00002 14 7.00002C13.4477 7.00002 13 6.5523 13 6.00002C13 4.34316 11.6569 3.00001 10 3.00001H6C4.34315 3.00001 3 4.34316 3 6.00002ZM5.09202 4.21795C5.49359 4.01334 6.01165 4.00078 7 4.00001V5.63365C6.61757 5.41261 6.12008 5.46568 5.79289 5.79286C5.40237 6.18339 5.40237 6.81655 5.79289 7.20708L7.29289 8.70708L8 9.41419L8.70711 8.70708L10.2071 7.20708C10.5976 6.81655 10.5976 6.18339 10.2071 5.79286C9.87992 5.46568 9.38243 5.41261 9 5.63365V4.00001C9.98835 4.00078 10.5064 4.01334 10.908 4.21795C11.2843 4.4097 11.5903 4.71566 11.782 5.09198C12 5.51981 12 6.07986 12 7.19997V11.8C12 12.9201 12 13.4802 11.782 13.908C11.5903 14.2843 11.2843 14.5903 10.908 14.782C10.4802 15 9.9201 15 8.8 15H7.2C6.0799 15 5.51984 15 5.09202 14.782C4.71569 14.5903 4.40973 14.2843 4.21799 13.908C4 13.4802 4 12.9201 4 11.8V7.19997C4 6.07986 4 5.51981 4.21799 5.09198C4.40973 4.71566 4.71569 4.4097 5.09202 4.21795Z" fill="currentColor"/>
</svg>
