<svg width="16" height="16" viewBox="0 0 16 16" fill="none" xmlns="http://www.w3.org/2000/svg">
<path fill-rule="evenodd" clip-rule="evenodd" d="M8 15C11.866 15 15 11.866 15 8C15 4.13401 11.866 1 8 1C4.13401 1 1 4.13401 1 8C1 11.866 4.13401 15 8 15ZM9.5 11C9.5 11.8284 8.82843 12.5 8 12.5C7.17157 12.5 6.5 11.8284 6.5 11C6.5 10.1716 7.17157 9.5 8 9.5C8.82843 9.5 9.5 10.1716 9.5 11ZM7 4.5C7 3.94772 7.44772 3.5 8 3.5C8.55229 3.5 9 3.94772 9 4.5V7.5C9 8.05228 8.55229 8.5 8 8.5C7.44772 8.5 7 8.05228 7 7.5V4.5Z" fill="currentColor"/>
</svg>
