<svg width="16" height="16" viewBox="0 0 16 16" fill="none" xmlns="http://www.w3.org/2000/svg">
<path fill-rule="evenodd" clip-rule="evenodd" d="M11 6C11 8.76142 8.76142 11 6 11C5.79718 11 5.59718 10.9879 5.40068 10.9645C5.20114 10.9406 5.00522 10.905 4.81361 10.8584C4.25556 11.3542 3.37212 11.7493 2.42164 11.9331C2.25516 11.9653 2.13077 11.778 2.19617 11.6215C2.44988 11.0147 2.53324 10.2444 2.53291 9.60268C1.58795 8.69307 1 7.4152 1 6C1 3.23858 3.23858 1 6 1C8.06405 1 9.83599 2.25068 10.5993 4.03555C10.6019 4.04162 10.6045 4.04769 10.6071 4.05377C10.8601 4.65197 11 5.30964 11 6ZM13.4671 12.6027C14.412 11.6931 15 10.4152 15 9C15 7.32872 14.18 5.84897 12.9204 4.94108C12.9728 5.28642 13 5.64003 13 6C13 9.55374 10.3518 12.489 6.92117 12.9399C7.76992 13.6041 8.83873 14 10 14C10.4088 14 10.8061 13.9509 11.1864 13.8584C11.7444 14.3542 12.6279 14.7493 13.5784 14.9331C13.7448 14.9653 13.8692 14.778 13.8038 14.6215C13.5501 14.0147 13.4668 13.2444 13.4671 12.6027Z" fill="currentColor"/>
</svg>
