<svg width="16" height="16" viewBox="0 0 16 16" fill="none" xmlns="http://www.w3.org/2000/svg">
<path d="M13.9831 3C13.9831 4.10457 10.7492 5 7.99168 5C5.23419 5 2.00023 4.10457 2.00023 3C2.00023 1.89543 5.23419 1 7.99168 1C10.7492 1 13.9831 1.89543 13.9831 3Z" fill="currentColor"/>
<path d="M8.00877 7C10.7663 7 14.0002 6.10457 14.0002 5L14.0002 8C14.0002 9.10457 10.7663 10 8.00877 10C5.25128 10 2.01732 9.10457 2.01732 8V5C2.01732 6.10457 5.25128 7 8.00877 7Z" fill="currentColor"/>
<path d="M8.00877 12C10.7663 12 14.0002 11.1046 14.0002 10L14.0002 13C14.0002 14.1046 10.7663 15 8.00877 15C5.25128 15 2.01732 14.1046 2.01732 13V10C2.01732 11.1046 5.25128 12 8.00877 12Z" fill="currentColor"/>
</svg>
