<svg width="16" height="16" viewBox="0 0 16 16" fill="none" xmlns="http://www.w3.org/2000/svg">
<path fill-rule="evenodd" clip-rule="evenodd" d="M8.7071 1.63603C8.31658 1.24551 7.68341 1.24551 7.29289 1.63603L5.87867 3.05025C5.48815 3.44077 5.48815 4.07394 5.87867 4.46446L7.85857 6.44436C7.93668 6.52246 8.06331 6.52246 8.14141 6.44436L10.1213 4.46446C10.5118 4.07394 10.5118 3.44077 10.1213 3.05025L8.7071 1.63603ZM1.63603 8.7071C1.24551 8.31658 1.24551 7.68341 1.63603 7.29289L3.05025 5.87867C3.44077 5.48815 4.07394 5.48815 4.46446 5.87867L6.44436 7.85857C6.52246 7.93668 6.52246 8.06331 6.44436 8.14142L4.46446 10.1213C4.07394 10.5118 3.44077 10.5118 3.05025 10.1213L1.63603 8.7071ZM14.364 8.7071C14.7545 8.31658 14.7545 7.68341 14.364 7.29289L12.9497 5.87867C12.5592 5.48815 11.9261 5.48815 11.5355 5.87867L9.55563 7.85857C9.47752 7.93668 9.47752 8.06331 9.55563 8.14141L11.5355 10.1213C11.9261 10.5118 12.5592 10.5118 12.9497 10.1213L14.364 8.7071ZM7.29289 14.364C7.68341 14.7545 8.31658 14.7545 8.7071 14.364L10.1213 12.9497C10.5118 12.5592 10.5118 11.9261 10.1213 11.5355L8.14142 9.55563C8.06331 9.47752 7.93668 9.47752 7.85857 9.55563L5.87867 11.5355C5.48815 11.9261 5.48815 12.5592 5.87867 12.9497L7.29289 14.364Z" fill="currentColor"/>
</svg>
