<svg width="16" height="16" viewBox="0 0 16 16" fill="none" xmlns="http://www.w3.org/2000/svg">
<path d="M12.6638 2.23407C12.5842 2.12032 12.4158 2.12032 12.3361 2.23407L9.22028 6.68531C9.12749 6.81786 9.22232 7 9.38412 7H11V10C11 10.5523 10.5523 11 9.99999 11H7.60703C7.54016 11 7.47771 11.0334 7.44062 11.0891L5.70729 13.6891C5.61868 13.822 5.71396 14 5.8737 14H9.99999C12.2091 14 14 12.2091 14 10V7H15.6159C15.7777 7 15.8725 6.81786 15.7797 6.68531L12.6638 2.23407Z" fill="currentColor"/>
<path d="M3.33615 13.7659C3.41577 13.8797 3.58422 13.8797 3.66384 13.7659L6.77971 9.31469C6.8725 9.18214 6.77767 9 6.61586 9H4.99999V6C4.99999 5.44772 5.44771 5 5.99999 5H8.39296C8.45983 5 8.52227 4.96658 8.55937 4.91094L10.2927 2.31094C10.3813 2.17803 10.286 2 10.1263 2H5.99999C3.79085 2 1.99999 3.79086 1.99999 6V9H0.384125C0.22232 9 0.12749 9.18214 0.220278 9.31469L3.33615 13.7659Z" fill="currentColor"/>
</svg>
