<svg width="16" height="16" viewBox="0 0 16 16" fill="none" xmlns="http://www.w3.org/2000/svg">
<path fill-rule="evenodd" clip-rule="evenodd" d="M14.5048 10.6201C14.8167 10.3758 15.3128 10.6655 15.1269 11.0153C13.8667 13.3858 11.3719 14.9999 8.50007 14.9999C4.35793 14.9999 1.00007 11.6421 1.00007 7.49993C1.00007 4.62806 2.61421 2.1332 4.98476 0.873091C5.33461 0.687121 5.62432 1.18322 5.38 1.49513C4.51546 2.59887 4.00007 3.98923 4.00007 5.49996C4.00007 9.08981 6.91022 12 10.5001 12C12.0108 12 13.4011 11.4846 14.5048 10.6201ZM11.1392 1.51673C11.1009 1.37455 10.8992 1.37455 10.8609 1.51673L10.1731 4.0713C10.1598 4.12089 10.121 4.15963 10.0714 4.17298L7.51686 4.86079C7.37468 4.89908 7.37468 5.1008 7.51686 5.13909L10.0714 5.8269C10.121 5.84025 10.1598 5.87899 10.1731 5.92858L10.8609 8.48314C10.8992 8.62533 11.1009 8.62533 11.1392 8.48314L11.827 5.92858C11.8404 5.87899 11.8791 5.84025 11.9287 5.8269L14.4833 5.13909C14.6255 5.1008 14.6255 4.89908 14.4833 4.86079L11.9287 4.17298C11.8791 4.15963 11.8404 4.12089 11.827 4.0713L11.1392 1.51673Z" fill="currentColor"/>
</svg>
