<svg width="16" height="16" viewBox="0 0 16 16" fill="none" xmlns="http://www.w3.org/2000/svg">
<path fill-rule="evenodd" clip-rule="evenodd" d="M5 1C3.34315 1 2 2.34315 2 4V12C2 13.6569 3.34315 15 5 15H11C12.6569 15 14 13.6569 14 12V4C14 2.34315 12.6569 1 11 1H5ZM5 3C4.44772 3 4 3.44772 4 4C4 4.55228 4.44772 5 5 5H9C9.55228 5 10 4.55228 10 4C10 3.44772 9.55228 3 9 3H5ZM5 7C4.44772 7 4 7.44772 4 8C4 8.55228 4.44772 9 5 9H11C11.5523 9 12 8.55228 12 8C12 7.44772 11.5523 7 11 7H5ZM4 12C4 11.4477 4.44772 11 5 11H7C7.55228 11 8 11.4477 8 12C8 12.5523 7.55228 13 7 13H5C4.44772 13 4 12.5523 4 12Z" fill="currentColor"/>
</svg>
