<svg width="16" height="16" viewBox="0 0 16 16" fill="none" xmlns="http://www.w3.org/2000/svg">
<path fill-rule="evenodd" clip-rule="evenodd" d="M11.6101 5.51265C11.7672 5.70908 11.6274 6.00006 11.3758 6.00006H10V9.50006C10 9.77621 9.77614 10.0001 9.5 10.0001H6.5C6.22386 10.0001 6 9.77621 6 9.50006V6.00006H4.62419C4.37264 6.00006 4.23278 5.70908 4.38993 5.51265L7.76574 1.29289C7.88584 1.14277 8.11416 1.14277 8.23426 1.29289L11.6101 5.51265ZM3 10.0001C3 9.44777 2.55228 9.00006 2 9.00006C1.44772 9.00006 1 9.44777 1 10.0001V11.0001C1 13.2092 2.79086 15.0001 5 15.0001H11C13.2091 15.0001 15 13.2092 15 11.0001V10.0001C15 9.44777 14.5523 9.00006 14 9.00006C13.4477 9.00006 13 9.44777 13 10.0001V11.0001C13 12.1046 12.1046 13.0001 11 13.0001H5C3.89543 13.0001 3 12.1046 3 11.0001V10.0001Z" fill="currentColor"/>
</svg>
