<svg width="16" height="16" viewBox="0 0 16 16" fill="none" xmlns="http://www.w3.org/2000/svg">
<path fill-rule="evenodd" clip-rule="evenodd" d="M6.18193 1.93902C6 2.25442 6 2.69949 6 3.58965V12.4103C6 13.3004 6 13.7455 6.18193 14.0609C6.34156 14.3376 6.59353 14.5493 6.89364 14.6589C7.23567 14.7837 7.67408 14.707 8.55091 14.5536L11.2988 14.0727C12.2591 13.9046 12.7393 13.8206 13.0993 13.5782C13.4167 13.3646 13.6676 13.066 13.8233 12.7165C14 12.3201 14 11.8326 14 10.8578V5.14217C14 4.16729 14 3.67985 13.8233 3.28344C13.6676 2.93398 13.4167 2.63537 13.0993 2.42171C12.7393 2.17934 12.2591 2.09532 11.2988 1.92727L8.55091 1.44638C7.67408 1.29293 7.23567 1.21621 6.89364 1.34105C6.59353 1.45059 6.34156 1.66229 6.18193 1.93902ZM2.09187 3.86851C2 4.1056 2 4.40372 2 4.99997V11C2 11.5962 2 11.8943 2.09187 12.1314C2.23004 12.488 2.51197 12.7699 2.86854 12.9081C3.10563 13 3.40376 13 4 13V2.99997C3.40376 2.99997 3.10563 2.99997 2.86854 3.09184C2.51197 3.23001 2.23004 3.51194 2.09187 3.86851Z" fill="currentColor"/>
</svg>
