<svg width="16" height="16" viewBox="0 0 16 16" fill="none" xmlns="http://www.w3.org/2000/svg">
<path fill-rule="evenodd" clip-rule="evenodd" d="M2.80131 6.59825C2.47112 7.04053 1.84495 7.13168 1.40235 6.80175C0.95955 6.47168 0.86817 5.84514 1.19824 5.40235L2 6C1.19824 5.40235 1.19799 5.40269 1.19824 5.40235L1.19929 5.40094L1.20055 5.39926L1.2037 5.39508L1.21254 5.38346C1.21955 5.3743 1.22881 5.36233 1.2403 5.34774C1.26327 5.31857 1.29518 5.27886 1.33587 5.23014C1.41717 5.13277 1.53394 4.9989 1.68487 4.84078C1.9859 4.5254 2.42757 4.10859 2.9998 3.69173C4.14082 2.86051 5.84314 2 8 2C10.1569 2 11.8592 2.86051 13.0002 3.69173C13.5724 4.10859 14.0141 4.5254 14.3151 4.84078C14.4661 4.9989 14.5828 5.13277 14.6641 5.23014C14.7048 5.27886 14.7367 5.31857 14.7597 5.34774C14.7712 5.36233 14.7804 5.3743 14.7875 5.38346L14.7963 5.39508L14.7994 5.39926L14.8007 5.40094C14.801 5.40128 14.8018 5.40235 14 6L14.8018 5.40235C15.1318 5.84514 15.0405 6.47168 14.5977 6.80175C14.1558 7.13115 13.5309 7.04082 13.2003 6.60036C13.1999 6.59993 13.1996 6.59949 13.1993 6.59906L13.1882 6.58488C13.1766 6.57011 13.1568 6.54536 13.129 6.51205C13.0733 6.44536 12.9859 6.34485 12.8684 6.22172C12.6325 5.9746 12.2799 5.64141 11.8226 5.30827C10.9045 4.63948 9.60685 4 8 4C6.39315 4 5.09547 4.63948 4.17742 5.30827C3.72012 5.64141 3.36748 5.97459 3.13159 6.22172C3.01406 6.34485 2.92671 6.44536 2.87102 6.51205C2.8432 6.54536 2.82339 6.57011 2.81177 6.58488L2.80052 6.59932L2.80131 6.59825ZM2.79957 6.60057C2.79936 6.60084 2.79968 6.60042 2.80052 6.59932L2.79957 6.60057ZM13.1993 6.59906C13.1992 6.59887 13.1994 6.59925 13.1993 6.59906V6.59906ZM13.1987 6.59825C13.1987 6.59833 13.1992 6.59898 13.1993 6.59906L13.1987 6.59825Z" fill="currentColor"/>
<path d="M7.99996 13C9.93297 13 11.5 11.433 11.5 9.50002C11.5 9.17228 11.4549 8.85506 11.3707 8.55421C11.3392 8.44166 11.1874 8.42403 11.1087 8.5104C10.8343 8.81123 10.4392 9 10 9C9.17157 9 8.5 8.32843 8.5 7.5C8.5 7.06078 8.68877 6.66566 8.98961 6.39133C9.07598 6.31257 9.05836 6.16082 8.9458 6.1293C8.64494 6.04505 8.32771 6 7.99996 6C6.06695 6 4.49994 7.56701 4.49994 9.50002C4.49994 11.433 6.06695 13 7.99996 13Z" fill="currentColor"/>
</svg>
