<svg width="16" height="16" viewBox="0 0 16 16" fill="none" xmlns="http://www.w3.org/2000/svg">
<path d="M1.1983 5.40235C0.868233 5.84514 0.959612 6.47168 1.4024 6.80176C1.82251 7.11491 2.408 7.04871 2.74878 6.66295L1.32686 5.24102C1.29047 5.2848 1.26159 5.32077 1.24036 5.34774C1.22887 5.36233 1.1983 5.40235 1.1983 5.40235Z" fill="currentColor"/>
<path fill-rule="evenodd" clip-rule="evenodd" d="M8.95418 12.8684L4.63167 8.54585C4.54592 8.84918 4.50003 9.16924 4.50003 9.50002C4.50003 11.433 6.06703 13 8.00002 13C8.3308 13 8.65085 12.9542 8.95418 12.8684Z" fill="currentColor"/>
<path d="M13.0002 3.69173C11.8591 2.86051 10.1568 2 8 2C6.5538 2 5.31196 2.38688 4.30665 2.8924L2.70715 1.29289C2.31663 0.902369 1.68347 0.902369 1.29295 1.29289C0.902431 1.68342 0.902431 2.31658 1.29295 2.70711L13.2928 14.7071C13.6834 15.0976 14.3165 15.0976 14.707 14.7071C15.0976 14.3166 15.0976 13.6834 14.707 13.2929L11.458 10.0438C11.4857 9.86662 11.5 9.68499 11.5 9.50002C11.5 7.56701 9.93301 6 8.00002 6C7.81505 6 7.63343 6.01435 7.45621 6.042L5.82112 4.40689C6.46341 4.16143 7.19268 4 8 4C9.60684 4 10.9045 4.63949 11.8225 5.30827C12.2798 5.64141 12.6325 5.9746 12.8684 6.22172C12.9859 6.34485 13.0732 6.44536 13.1289 6.51205C13.1568 6.54536 13.1995 6.59933 13.2002 6.60036C13.5308 7.04082 14.1557 7.13116 14.5976 6.80176C15.0404 6.47168 15.1318 5.84514 14.8017 5.40235L14.7874 5.38346C14.7804 5.3743 14.7711 5.36233 14.7596 5.34774C14.7367 5.31857 14.7048 5.27886 14.6641 5.23014C14.5828 5.13277 14.466 4.9989 14.3151 4.84078C14.014 4.5254 13.5724 4.10859 13.0002 3.69173Z" fill="currentColor"/>
</svg>
