<svg width="16" height="16" viewBox="0 0 16 16" fill="none" xmlns="http://www.w3.org/2000/svg">
<path d="M6.04934 6.58049C6.03323 6.80854 6.21576 7 6.44437 7H9.55543C9.78405 7 9.96657 6.80854 9.95046 6.58049C9.84213 5.04686 9.56299 3.70254 9.18489 2.69427C8.93805 2.03602 8.66824 1.57279 8.41938 1.29209C8.16948 1.01022 8.02543 1 7.9999 1C7.97437 1 7.83032 1.01022 7.58042 1.29209C7.33156 1.57279 7.06175 2.03602 6.81491 2.69427C6.43681 3.70254 6.15767 5.04686 6.04934 6.58049Z" fill="currentColor"/>
<path d="M9.55543 9C9.78405 9 9.96657 9.19146 9.95046 9.41951C9.84213 10.9531 9.56299 12.2975 9.18489 13.3057C8.93805 13.964 8.66824 14.4272 8.41938 14.7079C8.16948 14.9898 8.02543 15 7.9999 15C7.97437 15 7.83032 14.9898 7.58042 14.7079C7.33156 14.4272 7.06175 13.964 6.81491 13.3057C6.43681 12.2975 6.15767 10.9531 6.04934 9.41951C6.03323 9.19146 6.21576 9 6.44437 9H9.55543Z" fill="currentColor"/>
<path d="M11.9573 9.38206C11.9706 9.16849 12.1463 9 12.3603 9H14.4677C14.7112 9 14.899 9.216 14.8487 9.45419C14.4134 11.5145 13.0719 13.2405 11.2608 14.1957C11.1399 14.2594 11.0096 14.1359 11.0576 14.008C11.531 12.7455 11.8477 11.1421 11.9573 9.38206Z" fill="currentColor"/>
<path d="M14.8487 6.54581C14.899 6.784 14.7112 7 14.4677 7H12.3603C12.1463 7 11.9706 6.83151 11.9573 6.61794C11.8477 4.85786 11.531 3.25453 11.0576 1.99202C11.0096 1.86408 11.1399 1.74059 11.2608 1.80434C13.0719 2.75951 14.4134 4.48553 14.8487 6.54581Z" fill="currentColor"/>
<path d="M4.04248 6.61794C4.02919 6.83151 3.85351 7 3.63953 7H1.53208C1.28863 7 1.10083 6.784 1.15115 6.54581C1.58645 4.48553 2.92792 2.75951 4.73899 1.80433C4.85986 1.74059 4.99023 1.86408 4.94225 1.99202C4.46881 3.25453 4.15207 4.85786 4.04248 6.61794Z" fill="currentColor"/>
<path d="M4.04248 9.38206C4.02919 9.16849 3.85351 9 3.63953 9H1.53208C1.28863 9 1.10083 9.216 1.15115 9.45419C1.58645 11.5145 2.92792 13.2405 4.739 14.1957C4.85986 14.2594 4.99023 14.1359 4.94225 14.008C4.46881 12.7455 4.15207 11.1421 4.04248 9.38206Z" fill="currentColor"/>
</svg>
