<svg width="16" height="16" viewBox="0 0 16 16" fill="none" xmlns="http://www.w3.org/2000/svg">
<path fill-rule="evenodd" clip-rule="evenodd" d="M3 1.8C3 1.51997 3 1.37996 3.0545 1.273C3.10243 1.17892 3.17892 1.10243 3.273 1.0545C3.37996 1 3.51997 1 3.8 1H5.2C5.48003 1 5.62004 1 5.727 1.0545C5.82108 1.10243 5.89757 1.17892 5.9455 1.273C6 1.37996 6 1.51997 6 1.8V2H10V1.8C10 1.51997 10 1.37996 10.0545 1.273C10.1024 1.17892 10.1789 1.10243 10.273 1.0545C10.38 1 10.52 1 10.8 1H12.2C12.48 1 12.62 1 12.727 1.0545C12.8211 1.10243 12.8976 1.17892 12.9455 1.273C13 1.37996 13 1.51997 13 1.8V2.18257C13.1292 2.22172 13.2487 2.26925 13.362 2.32698C13.9265 2.6146 14.3854 3.07354 14.673 3.63803C15 4.27976 15 5.11984 15 6.8V10.2C15 11.8802 15 12.7202 14.673 13.362C14.3854 13.9265 13.9265 14.3854 13.362 14.673C12.7202 15 11.8802 15 10.2 15H5.8C4.11984 15 3.27976 15 2.63803 14.673C2.07354 14.3854 1.6146 13.9265 1.32698 13.362C1 12.7202 1 11.8802 1 10.2V6.8C1 5.11984 1 4.27976 1.32698 3.63803C1.6146 3.07354 2.07354 2.6146 2.63803 2.32698C2.75133 2.26925 2.87081 2.22172 3 2.18257V1.8ZM3 11.5C3 10.6716 3.67157 10 4.5 10H11.5C12.3284 10 13 10.6716 13 11.5C13 12.3284 12.3284 13 11.5 13H4.5C3.67157 13 3 12.3284 3 11.5ZM4.5 5C3.67157 5 3 5.67157 3 6.5C3 7.32843 3.67157 8 4.5 8H11.5C12.3284 8 13 7.32843 13 6.5C13 5.67157 12.3284 5 11.5 5H4.5Z" fill="currentColor"/>
</svg>
