<svg width="16" height="16" viewBox="0 0 16 16" fill="none" xmlns="http://www.w3.org/2000/svg">
<path d="M1 8.47012C1 7.56547 1 7.11314 1.12115 6.69987C1.22844 6.3339 1.40452 5.99174 1.63996 5.69173C1.90584 5.35293 2.27391 5.09002 3.01006 4.5642L6.14004 2.3285C6.80928 1.85047 7.1439 1.61146 7.50888 1.519C7.8312 1.43735 8.1688 1.43735 8.49112 1.519C8.8561 1.61146 9.19072 1.85047 9.85996 2.3285L12.9899 4.5642C13.7261 5.09002 14.0942 5.35293 14.36 5.69173C14.5955 5.99174 14.7716 6.3339 14.8788 6.69987C15 7.11314 15 7.56547 15 8.47012V10.2C15 11.8801 15 12.7202 14.673 13.3619C14.3854 13.9264 13.9265 14.3854 13.362 14.673C12.7202 15 11.8802 15 10.2 15H5.8C4.11984 15 3.27976 15 2.63803 14.673C2.07354 14.3854 1.6146 13.9264 1.32698 13.3619C1 12.7202 1 11.8801 1 10.2V8.47012Z" fill="currentColor"/>
</svg>
