<svg width="16" height="16" viewBox="0 0 16 16" fill="none" xmlns="http://www.w3.org/2000/svg">
<path fill-rule="evenodd" clip-rule="evenodd" d="M8 15C11.866 15 15 11.866 15 8C15 4.13401 11.866 1 8 1C4.13401 1 1 4.13401 1 8C1 11.866 4.13401 15 8 15ZM9.5 5C9.5 5.82843 8.82843 6.5 8 6.5C7.17157 6.5 6.5 5.82843 6.5 5C6.5 4.17157 7.17157 3.5 8 3.5C8.82843 3.5 9.5 4.17157 9.5 5ZM7 8.5C7 7.94772 7.44772 7.5 8 7.5C8.55229 7.5 9 7.94772 9 8.5V11.5C9 12.0523 8.55229 12.5 8 12.5C7.44772 12.5 7 12.0523 7 11.5V8.5Z" fill="currentColor"/>
</svg>
