<svg width="16" height="16" viewBox="0 0 16 16" fill="none" xmlns="http://www.w3.org/2000/svg">
<g clip-path="url(#clip0_1_139)">
<path d="M12 8C12 10.2091 10.2091 12 8 12C5.79086 12 4 10.2091 4 8C4 5.79086 5.79086 4 8 4C10.2091 4 12 5.79086 12 8Z" fill="currentColor"/>
<path d="M9.5 14.5C9.5 15.3284 8.82843 16 8 16C7.17157 16 6.5 15.3284 6.5 14.5C6.5 13.6716 7.17157 13 8 13C8.82843 13 9.5 13.6716 9.5 14.5Z" fill="currentColor"/>
<path d="M9.5 1.5C9.5 2.32843 8.82843 3 8 3C7.17157 3 6.5 2.32843 6.5 1.5C6.5 0.671573 7.17157 0 8 0C8.82843 0 9.5 0.671573 9.5 1.5Z" fill="currentColor"/>
<path d="M1.5 9.5C0.671573 9.5 -3.62117e-08 8.82843 0 8C3.62117e-08 7.17157 0.671573 6.5 1.5 6.5C2.32843 6.5 3 7.17157 3 8C3 8.82843 2.32843 9.5 1.5 9.5Z" fill="currentColor"/>
<path d="M14.5 9.5C13.6716 9.5 13 8.82843 13 8C13 7.17157 13.6716 6.5 14.5 6.5C15.3284 6.5 16 7.17157 16 8C16 8.82843 15.3284 9.5 14.5 9.5Z" fill="currentColor"/>
<path d="M13.6569 11.5355C14.2426 12.1213 14.2426 13.0711 13.6569 13.6569C13.0711 14.2426 12.1213 14.2426 11.5355 13.6569C10.9497 13.0711 10.9497 12.1213 11.5355 11.5355C12.1213 10.9497 13.0711 10.9497 13.6569 11.5355Z" fill="currentColor"/>
<path d="M4.46447 2.34315C5.05025 2.92893 5.05025 3.87868 4.46447 4.46447C3.87868 5.05025 2.92893 5.05025 2.34315 4.46447C1.75736 3.87868 1.75736 2.92893 2.34315 2.34315C2.92893 1.75736 3.87868 1.75736 4.46447 2.34315Z" fill="currentColor"/>
<path d="M4.46447 13.6569C3.87868 14.2426 2.92893 14.2426 2.34315 13.6569C1.75736 13.0711 1.75736 12.1213 2.34315 11.5355C2.92893 10.9497 3.87868 10.9497 4.46447 11.5355C5.05025 12.1213 5.05025 13.0711 4.46447 13.6569Z" fill="currentColor"/>
<path d="M13.6569 4.46447C13.0711 5.05025 12.1213 5.05025 11.5355 4.46447C10.9497 3.87868 10.9497 2.92893 11.5355 2.34315C12.1213 1.75736 13.0711 1.75736 13.6569 2.34315C14.2426 2.92893 14.2426 3.87868 13.6569 4.46447Z" fill="currentColor"/>
</g>
<defs>
<clipPath id="clip0_1_139">
<rect width="16" height="16" fill="white"/>
</clipPath>
</defs>
</svg>
