<svg width="16" height="16" viewBox="0 0 16 16" fill="none" xmlns="http://www.w3.org/2000/svg">
<path fill-rule="evenodd" clip-rule="evenodd" d="M4.99994 7.99995C4.99994 7.44766 5.44765 6.99995 5.99994 6.99995H9.99994C10.5522 6.99995 10.9999 7.44766 10.9999 7.99995C10.9999 8.55223 10.5522 8.99995 9.99994 8.99995H5.99994C5.44765 8.99995 4.99994 8.55223 4.99994 7.99995Z" fill="currentColor"/>
<path fill-rule="evenodd" clip-rule="evenodd" d="M6 5C4.34315 5 3 6.34315 3 8C3 9.65685 4.34315 11 6 11C6.55228 11 7 11.4477 7 12C7 12.5523 6.55228 13 6 13C3.23858 13 1 10.7614 1 8C1 5.23858 3.23858 3 6 3C6.55228 3 7 3.44772 7 4C7 4.55228 6.55228 5 6 5Z" fill="currentColor"/>
<path fill-rule="evenodd" clip-rule="evenodd" d="M10 5C11.6569 5 13 6.34315 13 8C13 9.65685 11.6569 11 10 11C9.44772 11 9 11.4477 9 12C9 12.5523 9.44772 13 10 13C12.7614 13 15 10.7614 15 8C15 5.23858 12.7614 3 10 3C9.44772 3 9 3.44772 9 4C9 4.55228 9.44772 5 10 5Z" fill="currentColor"/>
</svg>
