<svg width="16" height="16" viewBox="0 0 16 16" fill="none" xmlns="http://www.w3.org/2000/svg">
<path fill-rule="evenodd" clip-rule="evenodd" d="M6 6V5C6 3.89543 6.89543 3 8 3C9.10457 3 10 3.89543 10 5V6H6ZM4 6.01919L4 5C4 2.79086 5.79086 1 8 1C10.2091 1 12 2.79086 12 5V6.01919C12.3922 6.04314 12.6705 6.09698 12.908 6.21799C13.2843 6.40974 13.5903 6.7157 13.782 7.09202C14 7.51985 14 8.0799 14 9.20001V11.8C14 12.9201 14 13.4802 13.782 13.908C13.5903 14.2843 13.2843 14.5903 12.908 14.782C12.4802 15 11.9201 15 10.8 15H5.2C4.0799 15 3.51984 15 3.09202 14.782C2.71569 14.5903 2.40973 14.2843 2.21799 13.908C2 13.4802 2 12.9201 2 11.8V9.20001C2 8.0799 2 7.51985 2.21799 7.09202C2.40973 6.7157 2.71569 6.40974 3.09202 6.21799C3.32953 6.09698 3.60779 6.04314 4 6.01919Z" fill="currentColor"/>
</svg>
