<svg width="16" height="16" viewBox="0 0 16 16" fill="none" xmlns="http://www.w3.org/2000/svg">
<path fill-rule="evenodd" clip-rule="evenodd" d="M7.00001 1C7.00001 0.447715 7.44773 0 8.00001 0C8.55229 0 9.00001 0.447715 9.00001 1V1.09716C11.3617 1.56257 13.1429 3.6447 13.1429 6.14286V8.33764C13.1429 9.2559 13.3152 10.166 13.651 11.0207L13.8668 11.57C13.9431 11.7643 13.8639 11.9818 13.6717 12.0633C12.9627 12.3641 11.0977 13 8.00001 13C4.90228 13 3.03728 12.3641 2.32833 12.0633C2.1361 11.9818 2.05687 11.7643 2.13323 11.57L2.34903 11.0207C2.6848 10.166 2.85715 9.2559 2.85715 8.33764V6.14286C2.85715 3.6447 4.63834 1.56257 7.00001 1.09716V1ZM7.99986 16C7.03792 16 6.23459 15.3209 6.04317 14.4159C6.63883 14.4687 7.29085 14.5 7.99986 14.5C8.70888 14.5 9.36089 14.4687 9.95656 14.4159C9.76514 15.3209 8.96181 16 7.99986 16Z" fill="currentColor"/>
</svg>
