<svg width="16" height="16" viewBox="0 0 16 16" fill="none" xmlns="http://www.w3.org/2000/svg">
<path fill-rule="evenodd" clip-rule="evenodd" d="M5.03647 2.4453C5.22193 2.1671 5.53416 2 5.86852 2H10.1315C10.4658 2 10.7781 2.1671 10.9635 2.4453L12 4H11.8C12.9201 4 13.4802 4 13.908 4.21799C14.2843 4.40973 14.5903 4.71569 14.782 5.09202C15 5.51984 15 6.0799 15 7.2V10.8C15 11.9201 15 12.4802 14.782 12.908C14.5903 13.2843 14.2843 13.5903 13.908 13.782C13.4802 14 12.9201 14 11.8 14H4.2C3.0799 14 2.51984 14 2.09202 13.782C1.71569 13.5903 1.40973 13.2843 1.21799 12.908C1 12.4802 1 11.9201 1 10.8V7.2C1 6.0799 1 5.51984 1.21799 5.09202C1.40973 4.71569 1.71569 4.40973 2.09202 4.21799C2.51984 4 3.0799 4 4.2 4H4L5.03647 2.4453ZM8 12C9.65685 12 11 10.6569 11 9C11 7.34315 9.65685 6 8 6C6.34315 6 5 7.34315 5 9C5 10.6569 6.34315 12 8 12Z" fill="currentColor"/>
</svg>
