<svg width="16" height="16" viewBox="0 0 16 16" fill="none" xmlns="http://www.w3.org/2000/svg">
<path fill-rule="evenodd" clip-rule="evenodd" d="M0 4C0 1.79086 1.79086 0 4 0C4.55228 0 5 0.447715 5 1C5 1.55228 4.55228 2 4 2C2.89543 2 2 2.89543 2 4C2 4.55228 1.55228 5 1 5C0.447715 5 0 4.55228 0 4ZM0 12C0 14.2091 1.79086 16 4 16C4.55228 16 5 15.5523 5 15C5 14.4477 4.55228 14 4 14C2.89543 14 2 13.1046 2 12C2 11.4477 1.55228 11 1 11C0.447715 11 0 11.4477 0 12ZM12 0C14.2091 0 16 1.79086 16 4C16 4.55228 15.5523 5 15 5C14.4477 5 14 4.55228 14 4C14 2.89543 13.1046 2 12 2C11.4477 2 11 1.55228 11 1C11 0.447715 11.4477 0 12 0ZM16 12C16 14.2091 14.2091 16 12 16C11.4477 16 11 15.5523 11 15C11 14.4477 11.4477 14 12 14C13.1046 14 14 13.1046 14 12C14 11.4477 14.4477 11 15 11C15.5523 11 16 11.4477 16 12ZM3.10899 3.54601C3 3.75992 3 4.03995 3 4.6V5.4C3 5.96005 3 6.24008 3.10899 6.45399C3.20487 6.64215 3.35785 6.79513 3.54601 6.89101C3.75992 7 4.03995 7 4.6 7H5.4C5.96005 7 6.24008 7 6.45399 6.89101C6.64215 6.79513 6.79513 6.64215 6.89101 6.45399C7 6.24008 7 5.96005 7 5.4V4.6C7 4.03995 7 3.75992 6.89101 3.54601C6.79513 3.35785 6.64215 3.20487 6.45399 3.10899C6.24008 3 5.96005 3 5.4 3H4.6C4.03995 3 3.75992 3 3.54601 3.10899C3.35785 3.20487 3.20487 3.35785 3.10899 3.54601ZM3 10.6C3 10.0399 3 9.75992 3.10899 9.54601C3.20487 9.35785 3.35785 9.20487 3.54601 9.10899C3.75992 9 4.03995 9 4.6 9H5.4C5.96005 9 6.24008 9 6.45399 9.10899C6.64215 9.20487 6.79513 9.35785 6.89101 9.54601C7 9.75992 7 10.0399 7 10.6V11.4C7 11.9601 7 12.2401 6.89101 12.454C6.79513 12.6422 6.64215 12.7951 6.45399 12.891C6.24008 13 5.96005 13 5.4 13H4.6C4.03995 13 3.75992 13 3.54601 12.891C3.35785 12.7951 3.20487 12.6422 3.10899 12.454C3 12.2401 3 11.9601 3 11.4V10.6ZM9.10899 3.54601C9 3.75992 9 4.03995 9 4.6V5.4C9 5.96005 9 6.24008 9.10899 6.45399C9.20487 6.64215 9.35785 6.79513 9.54601 6.89101C9.75992 7 10.0399 7 10.6 7H11.4C11.9601 7 12.2401 7 12.454 6.89101C12.6422 6.79513 12.7951 6.64215 12.891 6.45399C13 6.24008 13 5.96005 13 5.4V4.6C13 4.03995 13 3.75992 12.891 3.54601C12.7951 3.35785 12.6422 3.20487 12.454 3.10899C12.2401 3 11.9601 3 11.4 3H10.6C10.0399 3 9.75992 3 9.54601 3.10899C9.35785 3.20487 9.20487 3.35785 9.10899 3.54601ZM9.29289 9.29289C9.68342 8.90237 10.3166 8.90237 10.7071 9.29289L11 9.58579L11.2929 9.29289C11.6834 8.90237 12.3166 8.90237 12.7071 9.29289C13.0976 9.68342 13.0976 10.3166 12.7071 10.7071L12.4142 11L12.7071 11.2929C13.0976 11.6834 13.0976 12.3166 12.7071 12.7071C12.3166 13.0976 11.6834 13.0976 11.2929 12.7071L11 12.4142L10.7071 12.7071C10.3166 13.0976 9.68342 13.0976 9.29289 12.7071C8.90237 12.3166 8.90237 11.6834 9.29289 11.2929L9.58579 11L9.29289 10.7071C8.90237 10.3166 8.90237 9.68342 9.29289 9.29289Z" fill="currentColor"/>
</svg>
