<svg width="16" height="16" viewBox="0 0 16 16" fill="none" xmlns="http://www.w3.org/2000/svg">
<path fill-rule="evenodd" clip-rule="evenodd" d="M15 8C15 4.13401 11.866 1 8 1C4.13401 1 1 4.13401 1 8C1 11.866 4.13401 15 8 15C11.866 15 15 11.866 15 8ZM8 10.5C8.82843 10.5 9.5 11.1716 9.5 12C9.5 12.8284 8.82843 13.5 8 13.5C7.17157 13.5 6.5 12.8284 6.5 12C6.5 11.1716 7.17157 10.5 8 10.5ZM8.00007 4.68186C7.54819 4.68186 7.18186 5.04819 7.18186 5.50008C7.18186 6.1528 6.65272 6.68194 6 6.68194C5.34728 6.68194 4.81814 6.1528 4.81814 5.50008C4.81814 3.74274 6.24274 2.31814 8.00007 2.31814C9.75741 2.31814 11.182 3.74274 11.182 5.50008C11.182 6.70622 10.5105 7.75381 9.5265 8.29241C9.36468 8.38099 9.25308 8.47191 9.19495 8.53968C9.18904 8.54657 9.18428 8.55247 9.1805 8.5574C9.15062 9.18356 8.63346 9.68203 7.99991 9.68198C7.34719 9.68194 6.81809 9.15276 6.81814 8.50003C6.81818 7.86435 7.09536 7.35689 7.40077 7.00081C7.70103 6.65074 8.06892 6.39559 8.39155 6.21899C8.6484 6.0784 8.81829 5.80823 8.81829 5.50008C8.81829 5.04819 8.45196 4.68186 8.00007 4.68186Z" fill="currentColor"/>
</svg>
