<svg width="16" height="16" viewBox="0 0 16 16" fill="none" xmlns="http://www.w3.org/2000/svg">
<path fill-rule="evenodd" clip-rule="evenodd" d="M1.43597 3.18404C1 4.03969 1 5.15979 1 7.4V8.6C1 10.8402 1 11.9603 1.43597 12.816C1.81947 13.5686 2.43139 14.1805 3.18404 14.564C4.03969 15 5.15979 15 7.4 15H8.6C10.8402 15 11.9603 15 12.816 14.564C13.5686 14.1805 14.1805 13.5686 14.564 12.816C15 11.9603 15 10.8402 15 8.6V7.4C15 5.15979 15 4.03969 14.564 3.18404C14.1805 2.43139 13.5686 1.81947 12.816 1.43597C11.9603 1 10.8402 1 8.6 1H7.4C5.15979 1 4.03969 1 3.18404 1.43597C2.43139 1.81947 1.81947 2.43139 1.43597 3.18404ZM11.7071 6.70711C12.0976 6.31658 12.0976 5.68342 11.7071 5.29289C11.3166 4.90237 10.6834 4.90237 10.2929 5.29289L7 8.58579L5.70711 7.29289C5.31658 6.90237 4.68342 6.90237 4.29289 7.29289C3.90237 7.68342 3.90237 8.31658 4.29289 8.70711L7 11.4142L11.7071 6.70711Z" fill="currentColor"/>
</svg>
