<svg width="16" height="16" viewBox="0 0 16 16" fill="none" xmlns="http://www.w3.org/2000/svg">
<path d="M1 7.4C1 5.15979 1 4.03968 1.43597 3.18404C1.81947 2.43139 2.43139 1.81947 3.18404 1.43597C4.03968 1 5.15979 1 7.4 1H8.6C10.8402 1 11.9603 1 12.816 1.43597C13.5686 1.81947 14.1805 2.43139 14.564 3.18404C15 4.03968 15 5.15979 15 7.4V8.6C15 10.8402 15 11.9603 14.564 12.816C14.1805 13.5686 13.5686 14.1805 12.816 14.564C11.9603 15 10.8402 15 8.6 15H7.4C5.15979 15 4.03968 15 3.18404 14.564C2.43139 14.1805 1.81947 13.5686 1.43597 12.816C1 11.9603 1 10.8402 1 8.6V7.4Z" fill="currentColor"/>
</svg>
