<svg width="16" height="16" viewBox="0 0 16 16" fill="none" xmlns="http://www.w3.org/2000/svg">
<path fill-rule="evenodd" clip-rule="evenodd" d="M8.6 3H7.4C6.24689 3 5.50235 3.00156 4.93567 3.04785C4.39235 3.09225 4.19091 3.1676 4.09202 3.21799C3.71569 3.40973 3.40973 3.71569 3.21799 4.09202C3.1676 4.19091 3.09225 4.39235 3.04785 4.93567C3.00156 5.50235 3 6.24689 3 7.4V8.6C3 9.75311 3.00156 10.4977 3.04785 11.0643C3.09225 11.6077 3.1676 11.8091 3.21799 11.908C3.40973 12.2843 3.71569 12.5903 4.09202 12.782C4.19091 12.8324 4.39235 12.9078 4.93567 12.9521C5.50235 12.9984 6.24689 13 7.4 13H8.6C9.75311 13 10.4977 12.9984 11.0643 12.9521C11.6077 12.9078 11.8091 12.8324 11.908 12.782C12.2843 12.5903 12.5903 12.2843 12.782 11.908C12.8324 11.8091 12.9078 11.6077 12.9521 11.0643C12.9984 10.4977 13 9.75311 13 8.6V7.4C13 6.24689 12.9984 5.50235 12.9521 4.93567C12.9078 4.39235 12.8324 4.19091 12.782 4.09202C12.5903 3.71569 12.2843 3.40973 11.908 3.21799C11.8091 3.1676 11.6077 3.09225 11.0643 3.04785C10.4977 3.00156 9.75311 3 8.6 3ZM1.43597 3.18404C1 4.03969 1 5.15979 1 7.4V8.6C1 10.8402 1 11.9603 1.43597 12.816C1.81947 13.5686 2.43139 14.1805 3.18404 14.564C4.03969 15 5.15979 15 7.4 15H8.6C10.8402 15 11.9603 15 12.816 14.564C13.5686 14.1805 14.1805 13.5686 14.564 12.816C15 11.9603 15 10.8402 15 8.6V7.4C15 5.15979 15 4.03969 14.564 3.18404C14.1805 2.43139 13.5686 1.81947 12.816 1.43597C11.9603 1 10.8402 1 8.6 1H7.4C5.15979 1 4.03969 1 3.18404 1.43597C2.43139 1.81947 1.81947 2.43139 1.43597 3.18404Z" fill="currentColor"/>
</svg>
