<svg width="16" height="16" viewBox="0 0 16 16" fill="none" xmlns="http://www.w3.org/2000/svg">
<path d="M5.13589 12.1408H2.68C2.52536 12.1408 2.4 12.0128 2.4 11.8549V9.34703C2.4 8.96788 2.5475 8.60425 2.81005 8.33615L9.78924 1.20936C10.0626 0.930213 10.5058 0.930213 10.7792 1.20936L13.105 3.58439C13.3784 3.86354 13.3784 4.31613 13.105 4.59528L6.12584 11.7221C5.86329 11.9902 5.50719 12.1408 5.13589 12.1408Z" fill="currentColor"/>
<path d="M1.7 13.5704C1.3134 13.5704 1 13.8904 1 14.2852C1 14.68 1.3134 15 1.7 15H14.3C14.6866 15 15 14.68 15 14.2852C15 13.8904 14.6866 13.5704 14.3 13.5704H1.7Z" fill="currentColor"/>
</svg>
