<svg width="16" height="16" viewBox="0 0 16 16" fill="none" xmlns="http://www.w3.org/2000/svg">
<path fill-rule="evenodd" clip-rule="evenodd" d="M15 8C15 11.866 11.866 15 8 15C4.13401 15 1 11.866 1 8C1 4.13401 4.13401 1 8 1C11.866 1 15 4.13401 15 8ZM4.5 7.36631C4.11757 7.58736 3.62008 7.53429 3.29289 7.20711C2.90237 6.81658 2.90237 6.18342 3.29289 5.79289L4.79289 4.29289L5.5 3.58579L6.20711 4.29289L7.70711 5.79289C8.09763 6.18342 8.09763 6.81658 7.70711 7.20711C7.37992 7.53429 6.88243 7.58736 6.5 7.36631V9C6.5 9.55228 6.05228 10 5.5 10C4.94772 10 4.5 9.55228 4.5 9L4.5 7.36631ZM8.29289 8.79289C8.62008 8.46571 9.11757 8.41264 9.5 8.63369V7C9.5 6.44772 9.94771 6 10.5 6C11.0523 6 11.5 6.44772 11.5 7V8.63369C11.8824 8.41264 12.3799 8.46571 12.7071 8.79289C13.0976 9.18342 13.0976 9.81658 12.7071 10.2071L11.2071 11.7071L10.5 12.4142L9.79289 11.7071L8.29289 10.2071C7.90237 9.81658 7.90237 9.18342 8.29289 8.79289Z" fill="currentColor"/>
</svg>
