<svg width="16" height="16" viewBox="0 0 16 16" fill="none" xmlns="http://www.w3.org/2000/svg">
<path fill-rule="evenodd" clip-rule="evenodd" d="M10.3975 4.2692C8.70519 2.57693 5.96148 2.57693 4.2692 4.2692C2.57693 5.96148 2.57693 8.70519 4.2692 10.3975C5.96148 12.0897 8.70519 12.0897 10.3975 10.3975C12.0897 8.70519 12.0897 5.96148 10.3975 4.2692ZM2.85499 2.85499C5.32831 0.38167 9.33836 0.38167 11.8117 2.85499C14.0444 5.08771 14.2616 8.5727 12.4633 11.0491L14.7071 13.2929C15.0976 13.6834 15.0976 14.3166 14.7071 14.7071C14.3166 15.0976 13.6834 15.0976 13.2929 14.7071L11.0491 12.4633C8.5727 14.2616 5.08771 14.0444 2.85499 11.8117C0.38167 9.33836 0.38167 5.32831 2.85499 2.85499Z" fill="currentColor"/>
</svg>
