<svg width="16" height="16" viewBox="0 0 16 16" fill="none" xmlns="http://www.w3.org/2000/svg">
<path fill-rule="evenodd" clip-rule="evenodd" d="M4.94788 2.54868C5.0986 2.64051 5.28588 2.6446 5.44553 2.56937C5.61502 2.48951 5.78884 2.41735 5.96656 2.35334C6.13252 2.29357 6.26196 2.15829 6.30358 1.98687L6.68404 0.419902C6.73178 0.223292 6.89315 0.0733699 7.0942 0.050713C7.39151 0.0172091 7.69374 0 8 0C8.30626 0 8.60849 0.0172091 8.9058 0.050713C9.10685 0.0733699 9.26822 0.223292 9.31596 0.419903L9.69642 1.98687C9.73804 2.15829 9.86748 2.29357 10.0334 2.35334C10.2112 2.41735 10.385 2.48951 10.5545 2.56937C10.7141 2.6446 10.9014 2.64051 11.0521 2.54868L12.429 1.70979C12.6017 1.60456 12.8217 1.61261 12.9799 1.7386C13.4539 2.11603 13.884 2.54614 14.2614 3.02006C14.3874 3.17826 14.3954 3.39828 14.2902 3.57099L13.4513 4.94788C13.3595 5.0986 13.3554 5.28588 13.4306 5.44553C13.5105 5.61502 13.5826 5.78884 13.6467 5.96656C13.7064 6.13252 13.8417 6.26196 14.0131 6.30358L15.5801 6.68404C15.7767 6.73178 15.9266 6.89315 15.9493 7.0942C15.9828 7.39151 16 7.69374 16 8C16 8.30626 15.9828 8.60849 15.9493 8.9058C15.9266 9.10685 15.7767 9.26822 15.5801 9.31596L14.0131 9.69642C13.8417 9.73804 13.7064 9.86748 13.6467 10.0334C13.5826 10.2112 13.5105 10.385 13.4306 10.5545C13.3554 10.7141 13.3595 10.9014 13.4513 11.0521L14.2902 12.429C14.3954 12.6017 14.3874 12.8217 14.2614 12.9799C13.884 13.4539 13.4539 13.884 12.9799 14.2614C12.8217 14.3874 12.6017 14.3954 12.429 14.2902L11.0521 13.4513C10.9014 13.3595 10.7141 13.3554 10.5545 13.4306C10.385 13.5105 10.2112 13.5826 10.0334 13.6467C9.86748 13.7064 9.73804 13.8417 9.69642 14.0131L9.31596 15.5801C9.26822 15.7767 9.10685 15.9266 8.9058 15.9493C8.60849 15.9828 8.30626 16 8 16C7.69374 16 7.39151 15.9828 7.0942 15.9493C6.89315 15.9266 6.73178 15.7767 6.68404 15.5801L6.30358 14.0131C6.26196 13.8417 6.13252 13.7064 5.96656 13.6467C5.78884 13.5826 5.61502 13.5105 5.44553 13.4306C5.28588 13.3554 5.0986 13.3595 4.94788 13.4513L3.57099 14.2902C3.39828 14.3954 3.17826 14.3874 3.02006 14.2614C2.54614 13.884 2.11603 13.4539 1.7386 12.9799C1.61261 12.8217 1.60456 12.6017 1.70979 12.429L2.54869 11.0521C2.64051 10.9014 2.6446 10.7141 2.56937 10.5545C2.48951 10.385 2.41735 10.2112 2.35334 10.0334C2.29357 9.86748 2.15829 9.73804 1.98687 9.69642L0.419903 9.31596C0.223292 9.26822 0.0733699 9.10685 0.0507131 8.9058C0.0172091 8.60849 0 8.30626 0 8C0 7.69374 0.0172091 7.39151 0.050713 7.0942C0.0733699 6.89315 0.223292 6.73178 0.419903 6.68404L1.98687 6.30358C2.15829 6.26196 2.29357 6.13252 2.35334 5.96656C2.41735 5.78884 2.48951 5.61502 2.56937 5.44553C2.6446 5.28588 2.64051 5.0986 2.54869 4.94788L1.70979 3.57099C1.60456 3.39828 1.61261 3.17826 1.7386 3.02006C2.11603 2.54614 2.54614 2.11603 3.02006 1.7386C3.17826 1.61261 3.39828 1.60456 3.57099 1.70979L4.94788 2.54868ZM8 11C9.65685 11 11 9.65685 11 8C11 6.34315 9.65685 5 8 5C6.34315 5 5 6.34315 5 8C5 9.65685 6.34315 11 8 11Z" fill="currentColor"/>
</svg>
