<svg width="16" height="16" viewBox="0 0 16 16" fill="none" xmlns="http://www.w3.org/2000/svg">
<path fill-rule="evenodd" clip-rule="evenodd" d="M2.32698 2.63803C2 3.27976 2 4.11984 2 5.8V10.2C2 11.8802 2 12.7202 2.32698 13.362C2.6146 13.9265 3.07354 14.3854 3.63803 14.673C4.27976 15 5.11984 15 6.8 15H9.2C10.8802 15 11.7202 15 12.362 14.673C12.9265 14.3854 13.3854 13.9265 13.673 13.362C14 12.7202 14 11.8802 14 10.2V6.32548C14 5.8363 14 5.59171 13.9447 5.36154C13.8957 5.15746 13.8149 4.96237 13.7053 4.78343C13.5816 4.5816 13.4086 4.40865 13.0627 4.06274L10.9373 1.93726C10.5914 1.59135 10.4184 1.4184 10.2166 1.29472C10.0376 1.18506 9.84254 1.10425 9.63846 1.05526C9.40829 1 9.1637 1 8.67452 1H6.8C5.11984 1 4.27976 1 3.63803 1.32698C3.07354 1.6146 2.6146 2.07354 2.32698 2.63803ZM4.10899 9.54601C4 9.75992 4 10.0399 4 10.6V11.4C4 11.9601 4 12.2401 4.10899 12.454C4.20487 12.6422 4.35785 12.7951 4.54601 12.891C4.75992 13 5.03995 13 5.6 13H6.4C6.96005 13 7.24008 13 7.45399 12.891C7.64215 12.7951 7.79513 12.6422 7.89101 12.454C8 12.2401 8 11.9601 8 11.4V10.6C8 10.0399 8 9.75992 7.89101 9.54601C7.79513 9.35785 7.64215 9.20487 7.45399 9.10899C7.24008 9 6.96005 9 6.4 9H5.6C5.03995 9 4.75992 9 4.54601 9.10899C4.35785 9.20487 4.20487 9.35785 4.10899 9.54601Z" fill="currentColor"/>
</svg>
