<svg width="16" height="16" viewBox="0 0 16 16" fill="none" xmlns="http://www.w3.org/2000/svg">
<path fill-rule="evenodd" clip-rule="evenodd" d="M1.43597 3.18404C1 4.03969 1 5.15979 1 7.4V8.6C1 10.8402 1 11.9603 1.43597 12.816C1.81947 13.5686 2.43139 14.1805 3.18404 14.564C4.03969 15 5.15979 15 7.4 15H8.00223C8.00598 14.5091 8.01599 14.0667 8.0427 13.6752C8.08771 13.0156 8.18672 12.3558 8.45672 11.7039C9.06569 10.2337 10.2337 9.06569 11.7039 8.45672C12.3558 8.18672 13.0156 8.08771 13.6752 8.0427C14.0667 8.01599 14.5091 8.00598 15 8.00223V7.4C15 5.15979 15 4.03969 14.564 3.18404C14.1805 2.43139 13.5686 1.81947 12.816 1.43597C11.9603 1 10.8402 1 8.6 1H7.4C5.15979 1 4.03969 1 3.18404 1.43597C2.43139 1.81947 1.81947 2.43139 1.43597 3.18404ZM14.9944 10.0024C13.774 10.012 13.0584 10.0604 12.4693 10.3045C11.4892 10.7105 10.7105 11.4892 10.3045 12.4693C10.0604 13.0584 10.012 13.774 10.0024 14.9944C11.3511 14.976 12.161 14.8978 12.816 14.564C13.5686 14.1805 14.1805 13.5686 14.564 12.816C14.8978 12.161 14.976 11.3511 14.9944 10.0024Z" fill="currentColor"/>
</svg>
