<svg width="16" height="16" viewBox="0 0 16 16" fill="none" xmlns="http://www.w3.org/2000/svg">
<path d="M7 3.00003V1.48287C7 1.30469 6.78457 1.21546 6.65858 1.34145L1.34142 6.65861C1.21543 6.7846 1.30466 7.00003 1.48284 7.00003H13C13.5523 7.00003 14 6.55231 14 6.00003V4.00003C14 3.44774 13.5523 3.00003 13 3.00003H7Z" fill="currentColor"/>
<path d="M9 13V14.5172C9 14.6954 9.21543 14.7846 9.34142 14.6586L14.6586 9.34145C14.7846 9.21546 14.6953 9.00003 14.5172 9.00003H3C2.44771 9.00003 2 9.44774 2 10V12C2 12.5523 2.44771 13 3 13H9Z" fill="currentColor"/>
</svg>
