<svg width="16" height="16" viewBox="0 0 16 16" fill="none" xmlns="http://www.w3.org/2000/svg">
<g clip-path="url(#clip0_1_173)">
<path fill-rule="evenodd" clip-rule="evenodd" d="M14.5858 9.41416C15.3668 8.63311 15.3668 7.36678 14.5858 6.58573L9.41419 1.41416C8.63314 0.633108 7.36681 0.633106 6.58576 1.41415L1.41419 6.58573C0.633142 7.36678 0.633141 8.63311 1.41419 9.41416L6.58576 14.5857C7.36681 15.3668 8.63314 15.3668 9.41419 14.5857L14.5858 9.41416ZM7.99997 4.00006C8.55225 4.00006 8.99997 4.44777 8.99997 5.00005V8.00006C8.99997 8.55234 8.55225 9.00006 7.99997 9.00006C7.44768 9.00006 6.99997 8.55234 6.99997 8.00006V5.00006C6.99997 4.44777 7.44768 4.00006 7.99997 4.00006ZM8.99997 10.5001C8.99997 11.0523 8.55225 11.5001 7.99997 11.5001C7.44768 11.5001 6.99997 11.0523 6.99997 10.5001C6.99997 9.94777 7.44768 9.50006 7.99997 9.50006C8.55225 9.50006 8.99997 9.94777 8.99997 10.5001Z" fill="currentColor"/>
</g>
<defs>
<clipPath id="clip0_1_173">
<rect width="16" height="16" fill="white"/>
</clipPath>
</defs>
</svg>
