<svg width="16" height="16" viewBox="0 0 16 16" fill="none" xmlns="http://www.w3.org/2000/svg">
<path fill-rule="evenodd" clip-rule="evenodd" d="M3.0545 1.273C3 1.37996 3 1.51997 3 1.8V2.18257C2.87081 2.22172 2.75133 2.26925 2.63803 2.32698C2.07354 2.6146 1.6146 3.07354 1.32698 3.63803C1 4.27976 1 5.11984 1 6.8V10.2C1 11.8802 1 12.7202 1.32698 13.362C1.6146 13.9265 2.07354 14.3854 2.63803 14.673C3.27976 15 4.11984 15 5.8 15H10.2C11.8802 15 12.7202 15 13.362 14.673C13.9265 14.3854 14.3854 13.9265 14.673 13.362C15 12.7202 15 11.8802 15 10.2V6.8C15 5.11984 15 4.27976 14.673 3.63803C14.3854 3.07354 13.9265 2.6146 13.362 2.32698C13.2487 2.26925 13.1292 2.22172 13 2.18257V1.8C13 1.51997 13 1.37996 12.9455 1.273C12.8976 1.17892 12.8211 1.10243 12.727 1.0545C12.62 1 12.48 1 12.2 1H10.8C10.52 1 10.38 1 10.273 1.0545C10.1789 1.10243 10.1024 1.17892 10.0545 1.273C10 1.37996 10 1.51997 10 1.8V2H6V1.8C6 1.51997 6 1.37996 5.9455 1.273C5.89757 1.17892 5.82108 1.10243 5.727 1.0545C5.62004 1 5.48003 1 5.2 1H3.8C3.51997 1 3.37996 1 3.273 1.0545C3.17892 1.10243 3.10243 1.17892 3.0545 1.273ZM4.5 4C3.67157 4 3 4.67157 3 5.5C3 6.32843 3.67157 7 4.5 7H11.5C12.3284 7 13 6.32843 13 5.5C13 4.67157 12.3284 4 11.5 4H4.5ZM6 11.5C6 12.3284 5.32843 13 4.5 13C3.67157 13 3 12.3284 3 11.5C3 10.6716 3.67157 10 4.5 10C5.32843 10 6 10.6716 6 11.5ZM11.5 13C12.3284 13 13 12.3284 13 11.5C13 10.6716 12.3284 10 11.5 10C10.6716 10 10 10.6716 10 11.5C10 12.3284 10.6716 13 11.5 13Z" fill="currentColor"/>
</svg>
