<svg width="16" height="16" viewBox="0 0 16 16" fill="none" xmlns="http://www.w3.org/2000/svg">
<path fill-rule="evenodd" clip-rule="evenodd" d="M4 2C2.89543 2 2 2.89543 2 4V5C2 6.10457 2.89543 7 4 7H6.8C6.91046 7 7 6.91046 7 6.8V4C7 2.89543 6.10457 2 5 2H4ZM4 14C2.89543 14 2 13.1046 2 12V11C2 9.89543 2.89543 9 4 9H6.8C6.91046 9 7 9.08954 7 9.2V12C7 13.1046 6.10457 14 5 14H4ZM14 4C14 2.89543 13.1046 2 12 2H11C9.89543 2 9 2.89543 9 4V6.8C9 6.91046 9.08954 7 9.2 7H12C13.1046 7 14 6.10457 14 5V4ZM12 14C13.1046 14 14 13.1046 14 12V11C14 9.89543 13.1046 9 12 9H9.2C9.08954 9 9 9.08954 9 9.2V12C9 13.1046 9.89543 14 11 14H12Z" fill="currentColor"/>
</svg>
