<svg width="16" height="16" viewBox="0 0 16 16" fill="none" xmlns="http://www.w3.org/2000/svg">
<path d="M14.7969 5.8496C15.1379 5.41552 15.0648 4.7833 14.6041 4.47909C12.7099 3.22819 10.44 2.5 8.00011 2.5C5.5602 2.5 3.29036 3.22819 1.39607 4.47909C0.935407 4.7833 0.862305 5.41552 1.20337 5.8496C1.54476 6.2841 2.17149 6.35461 2.63763 6.05789C4.18734 5.07146 6.02699 4.5 8.00011 4.5C9.97323 4.5 11.8129 5.07146 13.3626 6.05789C13.8287 6.35461 14.4555 6.2841 14.7969 5.8496Z" fill="currentColor"/>
<path d="M10.1628 11.7475C10.3333 11.5305 10.2971 11.2132 10.0606 11.0708C9.4588 10.7084 8.7538 10.5 8.00011 10.5C7.24642 10.5 6.54142 10.7084 5.93961 11.0708C5.70316 11.2132 5.6669 11.5305 5.83742 11.7475L7.60695 13.9996C7.80714 14.2544 8.19308 14.2544 8.39327 13.9996L10.1628 11.7475Z" fill="currentColor"/>
<path d="M12.1211 7.64166C10.9175 6.91689 9.50747 6.5 8.00011 6.5C6.49275 6.5 5.08276 6.91689 3.87914 7.64166C3.40622 7.92644 3.3337 8.56093 3.67476 8.99501C4.01615 9.42951 4.64232 9.49618 5.12722 9.23121C5.98043 8.765 6.95932 8.5 8.00011 8.5C9.0409 8.5 10.0198 8.765 10.873 9.23121C11.3579 9.49617 11.9841 9.42951 12.3255 8.99501C12.6665 8.56093 12.594 7.92644 12.1211 7.64166Z" fill="currentColor"/>
</svg>
