<svg width="16" height="16" viewBox="0 0 16 16" fill="none" xmlns="http://www.w3.org/2000/svg">
<path fill-rule="evenodd" clip-rule="evenodd" d="M3.0545 1.273C3 1.37996 3 1.51997 3 1.8V2.18257C2.87081 2.22172 2.75133 2.26925 2.63803 2.32698C2.07354 2.6146 1.6146 3.07354 1.32698 3.63803C1 4.27976 1 5.11984 1 6.8V10.2C1 11.8802 1 12.7202 1.32698 13.362C1.6146 13.9265 2.07354 14.3854 2.63803 14.673C3.27976 15 4.11984 15 5.8 15H10.2C11.8802 15 12.7202 15 13.362 14.673C13.9265 14.3854 14.3854 13.9265 14.673 13.362C15 12.7202 15 11.8802 15 10.2V6.8C15 5.11984 15 4.27976 14.673 3.63803C14.3854 3.07354 13.9265 2.6146 13.362 2.32698C13.2487 2.26925 13.1292 2.22172 13 2.18257V1.8C13 1.51997 13 1.37996 12.9455 1.273C12.8976 1.17892 12.8211 1.10243 12.727 1.0545C12.62 1 12.48 1 12.2 1H10.8C10.52 1 10.38 1 10.273 1.0545C10.1789 1.10243 10.1024 1.17892 10.0545 1.273C10 1.37996 10 1.51997 10 1.8V2H6V1.8C6 1.51997 6 1.37996 5.9455 1.273C5.89757 1.17892 5.82108 1.10243 5.727 1.0545C5.62004 1 5.48003 1 5.2 1H3.8C3.51997 1 3.37996 1 3.273 1.0545C3.17892 1.10243 3.10243 1.17892 3.0545 1.273ZM3.10899 7.54601C3 7.75992 3 8.03995 3 8.6V11.4C3 11.9601 3 12.2401 3.10899 12.454C3.20487 12.6422 3.35785 12.7951 3.54601 12.891C3.75992 13 4.03995 13 4.6 13H11.4C11.9601 13 12.2401 13 12.454 12.891C12.6422 12.7951 12.7951 12.6422 12.891 12.454C13 12.2401 13 11.9601 13 11.4V8.6C13 8.03995 13 7.75992 12.891 7.54601C12.7951 7.35785 12.6422 7.20487 12.454 7.10899C12.2401 7 11.9601 7 11.4 7H4.6C4.03995 7 3.75992 7 3.54601 7.10899C3.35785 7.20487 3.20487 7.35785 3.10899 7.54601Z" fill="currentColor"/>
</svg>
