<svg xmlns="http://www.w3.org/2000/svg" width="10" height="6" viewBox="0 0 10 6" fill="none">
    <path fill-rule="evenodd" clip-rule="evenodd" d="M5 5.23588C5.61375 4.68656 6 3.88828 6 2.99978C6 2.11128 5.61375 1.31299 5 0.763672C4.38625 1.31299 4 2.11128 4 2.99978C4 3.88828 4.38625 4.68656 5 5.23588Z" fill="#FF8E26"/>
    <path fill-rule="evenodd" clip-rule="evenodd" d="M5 5.23611C5.61375 4.68679 6 3.8885 6 3C6 2.1115 5.61375 1.31321 5 0.763893C5.53076 0.288854 6.23165 0 7 0C8.65685 0 10 1.34315 10 3C10 4.65685 8.65685 6 7 6C6.23165 6 5.53076 5.71115 5 5.23611Z" fill="#FAB400"/>
    <path fill-rule="evenodd" clip-rule="evenodd" d="M5 5.23611C4.38625 4.68679 4 3.8885 4 3C4 2.1115 4.38625 1.31321 5 0.763893C4.46924 0.288854 3.76835 0 3 0C1.34315 0 0 1.34315 0 3C0 4.65685 1.34315 6 3 6C3.76835 6 4.46924 5.71115 5 5.23611Z" fill="#E21836"/>
</svg>
