<svg width="40" height="49" viewBox="0 0 40 49" fill="none" xmlns="http://www.w3.org/2000/svg">
<path opacity="0.2" d="M20 48.0816C24.4183 48.0816 28 47.1862 28 46.0816C28 44.9771 24.4183 44.0816 20 44.0816C15.5817 44.0816 12 44.9771 12 46.0816C12 47.1862 15.5817 48.0816 20 48.0816Z" fill="#3C7DFC"/>
<path d="M19 39.0402C19 38.5597 19.4477 38.1702 20 38.1702C20.5523 38.1702 21 38.5597 21 39.0402V45.13C21 45.6105 20.5523 46 20 46C19.4477 46 19 45.6105 19 45.13V39.0402Z" fill="#3C7DFC"/>
<path d="M40 19.5745C40 30.3851 31.0457 39.1489 20 39.1489C8.9543 39.1489 0 30.3851 0 19.5745C0 8.76379 8.9543 0 20 0C31.0457 0 40 8.76379 40 19.5745Z" fill="#3C7DFC"/>
<circle cx="20" cy="19.7551" r="8" fill="white"/>
</svg>
