<svg width="40" height="40" viewBox="0 0 40 40" fill="none" xmlns="http://www.w3.org/2000/svg">
<path d="M15.4745 4.52549C17.0586 2.94142 17.8506 2.14938 18.7639 1.85263C19.5673 1.5916 20.4327 1.5916 21.2361 1.85263C22.1494 2.14938 22.9414 2.94142 24.5255 4.52548L35.4745 15.4745C37.0586 17.0586 37.8506 17.8506 38.1474 18.7639C38.4084 19.5673 38.4084 20.4327 38.1474 21.2361C37.8506 22.1494 37.0586 22.9414 35.4745 24.5255L24.5255 35.4745C22.9414 37.0586 22.1494 37.8506 21.2361 38.1474C20.4327 38.4084 19.5673 38.4084 18.7639 38.1474C17.8506 37.8506 17.0586 37.0586 15.4745 35.4745L4.52549 24.5255C2.94142 22.9414 2.14938 22.1494 1.85263 21.2361C1.5916 20.4327 1.5916 19.5673 1.85263 18.7639C2.14938 17.8506 2.94142 17.0586 4.52548 15.4745L15.4745 4.52549Z" fill="#FF8A00"/>
<circle cx="1.5" cy="1.5" r="1.5" transform="matrix(1 0 0 -1 18.5 26)" fill="white"/>
<path fill-rule="evenodd" clip-rule="evenodd" d="M20 21C20.5523 21 21 20.5523 21 20L21 14C21 13.4477 20.5523 13 20 13C19.4477 13 19 13.4477 19 14L19 20C19 20.5523 19.4477 21 20 21Z" fill="white"/>
</svg>
