<svg width="16" height="16" viewBox="0 0 16 16" fill="none" xmlns="http://www.w3.org/2000/svg">
<path fill-rule="evenodd" clip-rule="evenodd" d="M8 15C11.866 15 15 11.866 15 8C15 4.13401 11.866 1 8 1C4.13401 1 1 4.13401 1 8C1 11.866 4.13401 15 8 15ZM10.945 6.74497C11.2184 6.47161 11.2184 6.02839 10.945 5.75503C10.6716 5.48166 10.2284 5.48166 9.95506 5.75503L6.95004 8.76005L6.04501 7.85503C5.77165 7.58166 5.32843 7.58166 5.05506 7.85503C4.7817 8.12839 4.7817 8.57161 5.05506 8.84497L6.45506 10.245L6.95004 10.74L7.44501 10.245L10.945 6.74497Z" fill="#3C7DFC"/>
</svg>
