<svg width="24" height="24" viewBox="0 0 24 24" fill="none" xmlns="http://www.w3.org/2000/svg">
<circle cx="12" cy="12" r="10" fill="#BCF222"/>
<path d="M15.5355 15.5355C14.8363 16.2348 13.9454 16.711 12.9755 16.9039C12.0055 17.0969 11.0002 16.9978 10.0866 16.6194C9.17295 16.241 8.39206 15.6001 7.84265 14.7779C7.29325 13.9556 7 12.9889 7 12C7 11.0111 7.29324 10.0444 7.84265 9.22215C8.39206 8.3999 9.17295 7.75904 10.0866 7.3806C11.0002 7.00216 12.0055 6.90315 12.9755 7.09607C13.9454 7.289 14.8363 7.7652 15.5355 8.46447" stroke="#1B1D21" stroke-width="2" stroke-linecap="round"/>
<path d="M6 10.5H11" stroke="#1B1D21" stroke-width="2" stroke-linecap="round"/>
<path d="M6 13.5H11" stroke="#1B1D21" stroke-width="2" stroke-linecap="round"/>
</svg>
