<svg width="24" height="24" viewBox="0 0 24 24" fill="none" xmlns="http://www.w3.org/2000/svg">
<circle cx="12" cy="12" r="10" fill="#BCF222"/>
<path fill-rule="evenodd" clip-rule="evenodd" d="M9.32457 6.75315C9.8068 6.27092 10.4609 6 11.1428 6H15.5C16.0523 6 16.5 6.44772 16.5 7C16.5 7.55228 16.0523 8 15.5 8H11.1428C10.9913 8 10.8459 8.0602 10.7388 8.16737C10.6316 8.27453 10.5714 8.41988 10.5714 8.57143V10.7142H14.5714C15.1237 10.7142 15.5714 11.1619 15.5714 11.7142C15.5714 12.2665 15.1237 12.7142 14.5714 12.7142H10.5714V13.8572H12C12.5523 13.8572 13 14.3049 13 14.8572C13 15.4095 12.5523 15.8572 12 15.8572H10.5714V18C10.5714 18.5523 10.1237 19 9.57141 19C9.01913 19 8.57141 18.5523 8.57141 18V15.8572H8C7.44772 15.8572 7 15.4095 7 14.8572C7 14.3049 7.44772 13.8572 8 13.8572H8.57141V11.7142V8.57143C8.57141 7.88944 8.84233 7.23539 9.32457 6.75315Z" fill="#1B1D21"/>
</svg>
