<svg width="24" height="24" viewBox="0 0 24 24" fill="none" xmlns="http://www.w3.org/2000/svg">
<circle cx="12" cy="12" r="10" fill="#BCF222"/>
<path fill-rule="evenodd" clip-rule="evenodd" d="M15.4731 8.56916C15.4731 7.8216 15.1949 6.87886 14.603 6.14787C13.9705 5.3667 12.9533 4.81165 11.6263 5.05651C10.0626 5.34503 9.11003 6.40436 8.7882 7.75828C8.5438 8.78643 8.66268 9.95223 9.04372 11.0923H8.16919C7.6169 11.0923 7.16919 11.54 7.16919 12.0923C7.16919 12.6446 7.6169 13.0923 8.16919 13.0923H9.45748C9.38631 13.4259 9.24518 13.7869 9.03563 14.1708C8.56372 15.0354 7.85053 15.8091 7.34753 16.2422C6.94733 16.5868 6.88408 17.1832 7.2031 17.6041C7.52212 18.0249 8.11342 18.1252 8.55333 17.833C9.10704 17.4652 10.4321 16.867 11.6682 17.4144C12.7952 17.9135 13.7501 17.974 14.5097 17.8572C14.8823 17.7999 15.1899 17.7028 15.4273 17.6124C15.5447 17.5678 15.6451 17.5246 15.72 17.4921L15.75 17.479C15.7674 17.4715 15.782 17.4651 15.7955 17.4593C15.8009 17.457 15.8061 17.4548 15.8113 17.4526L15.8377 17.4416C15.8432 17.4393 15.8459 17.4383 15.8462 17.4382L15.8463 17.4381C15.8463 17.4381 15.8463 17.4382 15.8462 17.4382C16.3644 17.2469 16.6294 16.6719 16.4382 16.1538C16.247 15.6357 15.672 15.3706 15.1538 15.5618C15.0516 15.5996 14.965 15.6372 14.8822 15.6731L14.8822 15.6731C14.6876 15.7576 14.5136 15.8331 14.2057 15.8805C13.8231 15.9393 13.2548 15.9296 12.478 15.5856C11.889 15.3248 11.3066 15.2109 10.7558 15.1931C10.7677 15.1718 10.7795 15.1504 10.7912 15.129C11.1137 14.5381 11.3934 13.837 11.4831 13.0923H13.1692C13.7215 13.0923 14.1692 12.6446 14.1692 12.0923C14.1692 11.54 13.7215 11.0923 13.1692 11.0923H11.1888C10.6821 9.96318 10.5637 8.93712 10.734 8.2208C10.8881 7.57239 11.2682 7.15633 11.9892 7.02331C12.4898 6.93093 12.8053 7.10593 13.0486 7.4064C13.3325 7.75705 13.4731 8.24756 13.4731 8.56916C13.4731 9.12144 13.9208 9.56916 14.4731 9.56916C15.0254 9.56916 15.4731 9.12144 15.4731 8.56916Z" fill="#1B1D21"/>
</svg>
