<svg width="24" height="24" viewBox="0 0 24 24" fill="none" xmlns="http://www.w3.org/2000/svg">
<circle cx="12" cy="12" r="10" fill="#BCF222"/>
<path fill-rule="evenodd" clip-rule="evenodd" d="M8.5 13.0923C8.5 12.54 8.94772 12.0923 9.5 12.0923L14.5 12.0923C15.0523 12.0923 15.5 12.54 15.5 13.0923C15.5 13.6446 15.0523 14.0923 14.5 14.0923H9.5C8.94772 14.0923 8.5 13.6446 8.5 13.0923Z" fill="#1B1D21"/>
<path fill-rule="evenodd" clip-rule="evenodd" d="M7.41178 6.19121C7.85843 5.86637 8.48385 5.96512 8.80868 6.41178L11.9999 10.7998L15.1912 6.41178C15.5161 5.96512 16.1415 5.86637 16.5881 6.19121C17.0348 6.51605 17.1335 7.14147 16.8087 7.58812L12.9999 12.8251V17.9999C12.9999 18.5522 12.5522 18.9999 11.9999 18.9999C11.4477 18.9999 10.9999 18.5522 10.9999 17.9999V12.8251L7.19121 7.58812C6.86637 7.14147 6.96512 6.51605 7.41178 6.19121Z" fill="#1B1D21"/>
</svg>
