<svg width="24" height="24" viewBox="0 0 24 24" fill="none" xmlns="http://www.w3.org/2000/svg">
    <path d="M18.0341 11.6995C18.0561 10.0012 18.9733 8.39426 20.4283 7.50474C19.5104 6.20114 17.9729 5.37462 16.3733 5.32486C14.6672 5.14678 13.0132 6.34003 12.1438 6.34003C11.2576 6.34003 9.919 5.34254 8.47757 5.37203C6.59873 5.43239 4.84718 6.49459 3.93309 8.12797C1.96814 11.5108 3.43381 16.4825 5.31606 19.217C6.25779 20.556 7.3584 22.0517 8.79853 21.9986C10.2078 21.9405 10.7341 21.105 12.4352 21.105C14.1205 21.105 14.6143 21.9986 16.0837 21.9649C17.5958 21.9405 18.5486 20.62 19.4573 19.2683C20.1339 18.3142 20.6546 17.2598 21 16.144C19.2229 15.3966 18.0361 13.6182 18.0341 11.6995Z" fill="currentColor"/>
    <path d="M15.2587 3.52654C16.0832 2.54231 16.4894 1.27724 16.391 0C15.1314 0.131561 13.9678 0.730217 13.1321 1.67669C12.315 2.60144 11.8897 3.84424 11.9701 5.07267C13.2303 5.08557 14.4691 4.50314 15.2587 3.52654Z" fill="currentColor"/>
</svg>
