<svg width="24" height="24" viewBox="0 0 72 72" fill="none" xmlns="http://www.w3.org/2000/svg">
<rect width="72" height="72" rx="22.5" fill="#BCF222" transform="scale(0.33)"/>
<path d="M18.2558 48.1097C20.2901 53.0033 21.3072 55.4501 23.4194 56.6696C25.5316 57.8891 28.1592 57.5466 33.4143 56.8614L40.5444 55.9319C43.4728 55.5501 44.9371 55.3593 46.1814 54.6408C47.4258 53.9223 48.3232 52.7498 50.1181 50.4045L54.4882 44.6945C57.709 40.4859 59.3195 38.3817 59.3195 35.9427C59.3195 33.5037 57.709 31.3995 54.4882 27.191L50.1181 21.4809C48.3232 19.1357 47.4258 17.9631 46.1814 17.2446C44.9371 16.5262 43.4728 16.3353 40.5444 15.9535L33.4143 15.024C28.1592 14.3388 25.5316 13.9963 23.4194 15.2158C21.3072 16.4353 20.2901 18.8821 18.2558 23.7757L15.4958 30.4153C14.3622 33.1423 13.7954 34.5058 13.7954 35.9427C13.7954 37.3796 14.3622 38.7431 15.4958 41.4701L18.2558 48.1097Z" fill="url(#paint0_radial_10024_18974)" transform="scale(0.33)"/>
<path d="M18.2558 48.1097C20.2901 53.0033 21.3072 55.4501 23.4194 56.6696C25.5316 57.8891 28.1592 57.5466 33.4143 56.8614L40.5444 55.9319C43.4728 55.5501 44.9371 55.3593 46.1814 54.6408C47.4258 53.9223 48.3232 52.7498 50.1181 50.4045L54.4882 44.6945C57.709 40.4859 59.3195 38.3817 59.3195 35.9427C59.3195 33.5037 57.709 31.3995 54.4882 27.191L50.1181 21.4809C48.3232 19.1357 47.4258 17.9631 46.1814 17.2446C44.9371 16.5262 43.4728 16.3353 40.5444 15.9535L33.4143 15.024C28.1592 14.3388 25.5316 13.9963 23.4194 15.2158C21.3072 16.4353 20.2901 18.8821 18.2558 23.7757L15.4958 30.4153C14.3622 33.1423 13.7954 34.5058 13.7954 35.9427C13.7954 37.3796 14.3622 38.7431 15.4958 41.4701L18.2558 48.1097Z" fill="url(#paint1_radial_10024_18974)" transform="scale(0.33)"/>
<path d="M18.2558 48.1097C20.2901 53.0033 21.3072 55.4501 23.4194 56.6696C25.5316 57.8891 28.1592 57.5466 33.4143 56.8614L40.5444 55.9319C43.4728 55.5501 44.9371 55.3593 46.1814 54.6408C47.4258 53.9223 48.3232 52.7498 50.1181 50.4045L54.4882 44.6945C57.709 40.4859 59.3195 38.3817 59.3195 35.9427C59.3195 33.5037 57.709 31.3995 54.4882 27.191L50.1181 21.4809C48.3232 19.1357 47.4258 17.9631 46.1814 17.2446C44.9371 16.5262 43.4728 16.3353 40.5444 15.9535L33.4143 15.024C28.1592 14.3388 25.5316 13.9963 23.4194 15.2158C21.3072 16.4353 20.2901 18.8821 18.2558 23.7757L15.4958 30.4153C14.3622 33.1423 13.7954 34.5058 13.7954 35.9427C13.7954 37.3796 14.3622 38.7431 15.4958 41.4701L18.2558 48.1097Z" fill="url(#paint2_radial_10024_18974)" transform="scale(0.33)"/>
<path fill-rule="evenodd" clip-rule="evenodd" d="M27.3181 8.09678C25.1147 8.07044 22.6708 8.36672 20.274 9.7505C17.8772 11.1343 16.3987 13.1026 15.3198 15.024C14.3632 16.7274 13.4788 18.8557 12.563 21.0594L9.68298 27.9877C9.61254 28.1572 9.54144 28.3271 9.46944 28.4992L9.46908 28.5L9.42234 28.6117C8.5338 30.7338 7.5 33.2028 7.5 35.9334C7.5 38.664 8.5338 41.133 9.42234 43.2551L9.46908 43.3668C9.5412 43.5391 9.61242 43.7093 9.68298 43.879L12.563 50.8074C13.4788 53.011 14.3632 55.1393 15.3198 56.8428C16.3987 58.7641 17.8772 60.7325 20.274 62.1161C22.6708 63.5003 25.1147 63.7961 27.3181 63.7697C29.2716 63.7469 31.5569 63.4487 33.9233 63.1397L41.3634 62.1695C41.5444 62.1461 41.7262 62.1227 41.9102 62.0993L41.914 62.0987L42.0341 62.0837C44.3161 61.7921 46.9713 61.4525 49.336 60.0875C51.7007 58.7221 53.3221 56.5923 54.7157 54.7618L54.789 54.6654C54.9022 54.5168 55.0139 54.37 55.1257 54.2241L59.6857 48.2658C61.1364 46.3708 62.5374 44.5407 63.534 42.8606C64.6584 40.9656 65.6238 38.701 65.6238 35.9334C65.6238 33.1658 64.6584 30.9012 63.534 29.0062C62.5374 27.3261 61.1364 25.4961 59.686 23.6013L55.1257 17.6427C55.0139 17.4967 54.9022 17.3499 54.789 17.2013L54.7157 17.105C53.3222 15.2745 51.7008 13.1446 49.336 11.7793C46.9713 10.414 44.3161 10.0748 42.0341 9.78326L41.914 9.7679C41.7287 9.7442 41.5457 9.7208 41.3634 9.69704L33.9231 8.72702C31.5568 8.41826 29.2715 8.12012 27.3181 8.09678ZM24.174 16.5055C24.911 16.08 25.7962 15.8791 27.225 15.8962C28.6937 15.9138 30.5617 16.1548 33.225 16.5021L40.3551 17.4316C43.4054 17.8293 44.5112 18.0004 45.436 18.5343C46.3609 19.0683 47.062 19.9404 48.9316 22.3833L53.3016 28.0933C54.9339 30.2261 56.0767 31.7233 56.8262 32.9865C57.5554 34.2153 57.824 35.0824 57.824 35.9334C57.824 36.7843 57.5554 37.6514 56.8262 38.8803C56.0767 40.1434 54.9339 41.6406 53.3016 43.7735L48.9316 49.4835C47.062 51.9264 46.3609 52.7985 45.436 53.3325C44.5112 53.8664 43.4053 54.0375 40.355 54.4352L33.225 55.3647C30.5617 55.7119 28.6937 55.953 27.225 55.9705C25.7962 55.9876 24.911 55.7868 24.174 55.3612C23.437 54.9358 22.8205 54.2695 22.1209 53.0237C21.4017 51.743 20.6765 50.0047 19.6455 47.5246L16.8855 40.885C15.7048 38.0445 15.3 37.0013 15.3 35.9334C15.3 34.8655 15.7048 33.8222 16.8855 30.9817L19.6455 24.3421C20.6765 21.8621 21.4017 20.1238 22.1209 18.8431C22.8205 17.5972 23.437 16.931 24.174 16.5055Z" fill="#1B1D21" transform="scale(0.33)"/>
<path fill-rule="evenodd" clip-rule="evenodd" d="M27.3181 8.09678C25.1147 8.07044 22.6708 8.36672 20.274 9.7505C17.8772 11.1343 16.3987 13.1026 15.3198 15.024C14.3632 16.7274 13.4788 18.8557 12.563 21.0594L9.68298 27.9877C9.61254 28.1572 9.54144 28.3271 9.46944 28.4992L9.46908 28.5L9.42234 28.6117C8.5338 30.7338 7.5 33.2028 7.5 35.9334C7.5 38.664 8.5338 41.133 9.42234 43.2551L9.46908 43.3668C9.5412 43.5391 9.61242 43.7093 9.68298 43.879L12.563 50.8074C13.4788 53.011 14.3632 55.1393 15.3198 56.8428C16.3987 58.7641 17.8772 60.7325 20.274 62.1161C22.6708 63.5003 25.1147 63.7961 27.3181 63.7697C29.2716 63.7469 31.5569 63.4487 33.9233 63.1397L41.3634 62.1695C41.5444 62.1461 41.7262 62.1227 41.9102 62.0993L41.914 62.0987L42.0341 62.0837C44.3161 61.7921 46.9713 61.4525 49.336 60.0875C51.7007 58.7221 53.3221 56.5923 54.7157 54.7618L54.789 54.6654C54.9022 54.5168 55.0139 54.37 55.1257 54.2241L59.6857 48.2658C61.1364 46.3708 62.5374 44.5407 63.534 42.8606C64.6584 40.9656 65.6238 38.701 65.6238 35.9334C65.6238 33.1658 64.6584 30.9012 63.534 29.0062C62.5374 27.3261 61.1364 25.4961 59.686 23.6013L55.1257 17.6427C55.0139 17.4967 54.9022 17.3499 54.789 17.2013L54.7157 17.105C53.3222 15.2745 51.7008 13.1446 49.336 11.7793C46.9713 10.414 44.3161 10.0748 42.0341 9.78326L41.914 9.7679C41.7287 9.7442 41.5457 9.7208 41.3634 9.69704L33.9231 8.72702C31.5568 8.41826 29.2715 8.12012 27.3181 8.09678ZM24.174 16.5055C24.911 16.08 25.7962 15.8791 27.225 15.8962C28.6937 15.9138 30.5617 16.1548 33.225 16.5021L40.3551 17.4316C43.4054 17.8293 44.5112 18.0004 45.436 18.5343C46.3609 19.0683 47.062 19.9404 48.9316 22.3833L53.3016 28.0933C54.9339 30.2261 56.0767 31.7233 56.8262 32.9865C57.5554 34.2153 57.824 35.0824 57.824 35.9334C57.824 36.7843 57.5554 37.6514 56.8262 38.8803C56.0767 40.1434 54.9339 41.6406 53.3016 43.7735L48.9316 49.4835C47.062 51.9264 46.3609 52.7985 45.436 53.3325C44.5112 53.8664 43.4053 54.0375 40.355 54.4352L33.225 55.3647C30.5617 55.7119 28.6937 55.953 27.225 55.9705C25.7962 55.9876 24.911 55.7868 24.174 55.3612C23.437 54.9358 22.8205 54.2695 22.1209 53.0237C21.4017 51.743 20.6765 50.0047 19.6455 47.5246L16.8855 40.885C15.7048 38.0445 15.3 37.0013 15.3 35.9334C15.3 34.8655 15.7048 33.8222 16.8855 30.9817L19.6455 24.3421C20.6765 21.8621 21.4017 20.1238 22.1209 18.8431C22.8205 17.5972 23.437 16.931 24.174 16.5055Z" fill="black" transform="scale(0.33)"/>
<defs>
<radialGradient id="paint0_radial_10024_18974" cx="0" cy="0" r="1" gradientUnits="userSpaceOnUse" gradientTransform="translate(24.8954 26.4045) rotate(56.2149) scale(50.1727 47.0397)">
<stop offset="0.554649" stop-color="white" stop-opacity="0"/>
<stop offset="0.754096" stop-color="white"/>
<stop offset="1" stop-color="white"/>
</radialGradient>
<radialGradient id="paint1_radial_10024_18974" cx="0" cy="0" r="1" gradientUnits="userSpaceOnUse" gradientTransform="translate(-0.604596 33.3045) rotate(-27.21) scale(71.514 57.2532)">
<stop offset="0.6" stop-color="white" stop-opacity="0"/>
<stop offset="0.8" stop-color="white"/>
<stop offset="1" stop-color="white"/>
</radialGradient>
<radialGradient id="paint2_radial_10024_18974" cx="0" cy="0" r="1" gradientUnits="userSpaceOnUse" gradientTransform="translate(-0.00459122 67.2047) rotate(-59.3227) scale(82.3206 65.9046)">
<stop offset="0.6" stop-color="white" stop-opacity="0"/>
<stop offset="0.845" stop-color="white"/>
</radialGradient>
</defs>
</svg>
