<svg width="24" height="24" viewBox="0 0 24 24" fill="none" xmlns="http://www.w3.org/2000/svg">
<path fill-rule="evenodd" clip-rule="evenodd" d="M11.9996 2C17.5221 2 21.9991 6.477 21.9991 11.9996H21.9995C21.9995 17.1121 18.1629 21.3279 13.2115 21.9259V15.0562H15.9163H15.9167L16.4778 12.0003H16.4776L16.4778 11.9996H13.2116V10.9196C13.2116 9.30483 13.8451 8.68366 15.4847 8.68366C15.9939 8.68366 16.4038 8.69606 16.6398 8.72086V5.95098C16.6398 5.95097 16.6398 5.95097 16.6397 5.95096V5.95022C16.1926 5.82623 15.0994 5.70183 14.4658 5.70183C11.1244 5.70183 9.58406 7.27936 9.58406 10.6828V11.9996H7.52215V15.0554H7.52223V15.0562H9.58406V21.7047C5.22866 20.624 2 16.6889 2 11.9996C2 6.477 6.477 2 11.9996 2Z" fill="#0866FF"/>
</svg>
