<svg width="24" height="24" viewBox="0 0 24 24" fill="none" xmlns="http://www.w3.org/2000/svg">
<path fill-rule="evenodd" clip-rule="evenodd" d="M14.1277 10.9844L16.7495 8.34442L6.13833 2.18455C5.8412 2.01218 5.52406 1.97218 5.22312 2.01694L14.1277 10.9844ZM18.0288 9.08659L20.904 10.7551C21.8564 11.3085 21.8564 12.6922 20.904 13.2446L18.0288 14.9141L15.1356 12.0008L18.0288 9.08659ZM5.22312 21.9835L14.1277 13.016L16.7495 15.656L6.13833 21.8158C5.8412 21.9882 5.52406 22.0273 5.22312 21.9835ZM4 3.42948C4 3.24472 4.04286 3.0771 4.1019 2.91901L13.1188 12.0007L4.1019 21.0805C4.04286 20.9234 4 20.7558 4 20.571V3.42948Z" fill="currentColor"/>
</svg>
