<svg width="24" height="24" viewBox="0 0 24 24" fill="none" xmlns="http://www.w3.org/2000/svg">
<path fill-rule="evenodd" clip-rule="evenodd" d="M12 22C17.5228 22 22 17.5228 22 12C22 6.47715 17.5228 2 12 2C6.47715 2 2 6.47715 2 12C2 17.5228 6.47715 22 12 22ZM12.386 11.5075L12.6958 9.5L16.2577 9.50097L17.2509 12.1267L17.3758 12.4472L17.5051 12.1277L18.6441 9.5003L19.8682 9.50045L17.589 14.4999H16.0205L14.4361 10.236L13.7156 14.4999H11.9384L12.2799 12.2348H10.5861L10.2488 14.4999H5V9.50045L7.21015 9.50097L6.56579 13.7666H8.83982V9.50097H11.0063L10.697 11.5075H12.386Z" fill="#202020"/>
</svg>
