<svg width="24" height="24" viewBox="0 0 24 24" fill="none" xmlns="http://www.w3.org/2000/svg">
<path fill-rule="evenodd" clip-rule="evenodd" d="M2.3749 11.3481C7.74359 9.00908 11.3236 7.46703 13.1148 6.72199C18.2292 4.59475 19.2919 4.22522 19.9846 4.21302C20.1369 4.21034 20.4776 4.24809 20.6982 4.42713C20.8845 4.57831 20.9358 4.78253 20.9603 4.92587C20.9848 5.0692 21.0154 5.39572 20.9911 5.65085C20.714 8.56288 19.5147 15.6296 18.9046 18.8911C18.6465 20.2712 18.1382 20.734 17.6461 20.7792C16.5766 20.8777 15.7645 20.0725 14.7287 19.3935C13.1078 18.331 12.1921 17.6696 10.6188 16.6328C8.80053 15.4346 9.97923 14.776 11.0154 13.6997C11.2866 13.4181 15.9987 9.13209 16.0899 8.74328C16.1013 8.69466 16.1119 8.5134 16.0042 8.41769C15.8965 8.32198 15.7376 8.35471 15.6229 8.38074C15.4604 8.41763 12.871 10.1291 7.85486 13.5151C7.11988 14.0198 6.45416 14.2657 5.8577 14.2528C5.20015 14.2386 3.93528 13.881 2.99498 13.5754C1.84166 13.2005 0.925027 13.0023 1.00485 12.3656C1.04642 12.034 1.5031 11.6948 2.3749 11.3481Z" fill="#29AAEC"/>
</svg>
