<svg width="24" height="24" viewBox="0 0 24 24" fill="none" xmlns="http://www.w3.org/2000/svg">
<path d="M1.91602 22.1732L3.3345 16.9929C2.45919 15.4765 1.99926 13.7576 2.0001 11.995C2.00262 6.48432 6.48845 2 12.0001 2C14.6748 2.00084 17.1855 3.04228 19.074 4.93183C20.9617 6.82138 22.0009 9.33294 22.0001 12.0042C21.9976 17.5157 17.5117 22 12.0001 22C10.3268 21.9992 8.67798 21.5797 7.21745 20.7829L1.91602 22.1732ZM17.0375 14.3804C16.9753 14.2762 16.8088 14.214 16.5582 14.0888C16.3085 13.9635 15.0801 13.3592 14.8505 13.276C14.6218 13.1927 14.4553 13.1507 14.288 13.4012C14.1215 13.6508 13.6422 14.214 13.4968 14.3804C13.3513 14.5469 13.205 14.5679 12.9553 14.4426C12.7056 14.3174 11.9 14.0543 10.9457 13.2028C10.2032 12.5405 9.70127 11.7226 9.5558 11.4721C9.41034 11.2225 9.54067 11.0872 9.66511 10.9628C9.77778 10.851 9.91484 10.6711 10.0401 10.5248C10.1671 10.3803 10.2083 10.276 10.2924 10.1088C10.3756 9.94234 10.3344 9.79608 10.2713 9.67084C10.2083 9.54644 9.70883 8.31672 9.50115 7.81659C9.29767 7.32992 9.09166 7.39548 8.93863 7.38791L8.45936 7.37951C8.29288 7.37951 8.02213 7.44171 7.79342 7.69219C7.56472 7.94267 6.91896 8.54619 6.91896 9.77591C6.91896 11.0056 7.81444 12.1933 7.93889 12.3598C8.06417 12.5262 9.70043 15.0495 12.2069 16.1313C12.8031 16.3885 13.2689 16.5423 13.6313 16.6575C14.23 16.8474 14.7748 16.8205 15.2053 16.7567C15.6855 16.6852 16.6835 16.1523 16.8921 15.569C17.1006 14.9848 17.1006 14.4847 17.0375 14.3804Z" fill="#60D66A"/>
</svg>
