<svg width="16" height="16" viewBox="0 0 16 16" fill="none" xmlns="http://www.w3.org/2000/svg">
<path d="M12.0227 7.79968C12.0374 6.66748 12.6488 5.59618 13.6189 5.00316C13.0069 4.13409 11.9819 3.58308 10.9155 3.5499C9.77813 3.43119 8.67547 4.22668 8.09587 4.22668C7.50505 4.22668 6.61266 3.56169 5.65171 3.58135C4.39915 3.62159 3.23145 4.32973 2.62206 5.41864C1.3121 7.6739 2.28921 10.9884 3.54404 12.8113C4.17186 13.704 4.9056 14.7011 5.86569 14.6658C6.80519 14.627 7.15607 14.07 8.29013 14.07C9.41366 14.07 9.74287 14.6658 10.7224 14.6433C11.7306 14.627 12.3657 13.7466 12.9715 12.8455C13.4226 12.2095 13.7697 11.5065 14 10.7626C12.8153 10.2644 12.0241 9.0788 12.0227 7.79968Z" fill="currentColor"/>
<path d="M10.1725 2.35103C10.7221 1.69487 10.9929 0.851495 10.9274 0C10.0876 0.087707 9.31186 0.486811 8.75476 1.11779C8.20999 1.73429 7.92649 2.56283 7.98009 3.38178C8.82017 3.39038 9.64604 3.00209 10.1725 2.35103Z" fill="currentColor"/>
</svg>
