<svg width="17" height="16" viewBox="0 0 17 16" fill="none" xmlns="http://www.w3.org/2000/svg">
<path fill-rule="evenodd" clip-rule="evenodd" d="M9.91853 7.32308L11.6664 5.56311L4.5923 1.45653C4.39421 1.34161 4.18279 1.31495 3.98216 1.34479L9.91853 7.32308ZM12.5193 6.05789L14.4361 7.17026C15.071 7.53914 15.071 8.46166 14.4361 8.8299L12.5193 9.94289L10.5905 8.00071L12.5193 6.05789ZM3.98216 14.6558L9.91853 8.67752L11.6664 10.4375L4.5923 14.5441C4.39421 14.659 4.18279 14.685 3.98216 14.6558ZM3.16675 2.28648C3.16675 2.16331 3.19532 2.05157 3.23468 1.94617L9.24598 8.00065L3.23468 14.0538C3.19532 13.9491 3.16675 13.8373 3.16675 13.7142V2.28648Z" fill="currentColor"/>
</svg>
