<svg width="24" height="16" viewBox="0 0 24 16" fill="none" xmlns="http://www.w3.org/2000/svg">
<g clip-path="url(#clip0_4178_48461)">
<path d="M0 3.2C0 2.0799 0 1.51984 0.217987 1.09202C0.409734 0.715695 0.715695 0.409734 1.09202 0.217987C1.51984 0 2.0799 0 3.2 0H20.8C21.9201 0 22.4802 0 22.908 0.217987C23.2843 0.409734 23.5903 0.715695 23.782 1.09202C24 1.51984 24 2.0799 24 3.2V12.8C24 13.9201 24 14.4802 23.782 14.908C23.5903 15.2843 23.2843 15.5903 22.908 15.782C22.4802 16 21.9201 16 20.8 16H3.2C2.0799 16 1.51984 16 1.09202 15.782C0.715695 15.5903 0.409734 15.2843 0.217987 14.908C0 14.4802 0 13.9201 0 12.8V3.2Z" fill="#0E1013"/>
<path d="M0 3.2C0 2.0799 0 1.51984 0.217987 1.09202C0.409734 0.715695 0.715695 0.409734 1.09202 0.217987C1.51984 0 2.0799 0 3.2 0H20.8C21.9201 0 22.4802 0 22.908 0.217987C23.2843 0.409734 23.5903 0.715695 23.782 1.09202C24 1.51984 24 2.0799 24 3.2V12.8C24 13.9201 24 14.4802 23.782 14.908C23.5903 15.2843 23.2843 15.5903 22.908 15.782C22.4802 16 21.9201 16 20.8 16H3.2C2.0799 16 1.51984 16 1.09202 15.782C0.715695 15.5903 0.409734 15.2843 0.217987 14.908C0 14.4802 0 13.9201 0 12.8V3.2Z" fill="url(#paint0_linear_4178_48461)"/>
<path fill-rule="evenodd" clip-rule="evenodd" d="M18.3333 13.4909C18.7425 13.1247 19 12.5925 19 12.0001C19 11.4077 18.7425 10.8755 18.3333 10.5093C17.924 10.8755 17.6665 11.4077 17.6665 12.0001C17.6665 12.5925 17.924 13.1247 18.3333 13.4909Z" fill="#FF8E26"/>
<path fill-rule="evenodd" clip-rule="evenodd" d="M18.333 13.4898C18.7422 13.1236 18.9998 12.5914 18.9998 11.999C18.9998 11.4066 18.7422 10.8744 18.333 10.5082C18.6868 10.1916 19.1541 9.99902 19.6662 9.99902C20.7708 9.99902 21.6662 10.8945 21.6662 11.999C21.6662 13.1036 20.7708 13.999 19.6662 13.999C19.1541 13.999 18.6868 13.8065 18.333 13.4898Z" fill="#FAB400"/>
<path fill-rule="evenodd" clip-rule="evenodd" d="M18.333 13.4898C17.9238 13.1236 17.6662 12.5914 17.6662 11.999C17.6662 11.4066 17.9238 10.8744 18.333 10.5082C17.9792 10.1916 17.512 9.99902 16.9998 9.99902C15.8952 9.99902 14.9998 10.8945 14.9998 11.999C14.9998 13.1036 15.8952 13.999 16.9998 13.999C17.512 13.999 17.9792 13.8065 18.333 13.4898Z" fill="#E21836"/>
</g>
<defs>
<linearGradient id="paint0_linear_4178_48461" x1="0" y1="0" x2="25.1386" y2="13.9478" gradientUnits="userSpaceOnUse">
<stop stop-color="#424242"/>
<stop offset="1" stop-color="#141413"/>
</linearGradient>
<clipPath id="clip0_4178_48461">
<path d="M0 3.2C0 2.0799 0 1.51984 0.217987 1.09202C0.409734 0.715695 0.715695 0.409734 1.09202 0.217987C1.51984 0 2.0799 0 3.2 0H20.8C21.9201 0 22.4802 0 22.908 0.217987C23.2843 0.409734 23.5903 0.715695 23.782 1.09202C24 1.51984 24 2.0799 24 3.2V12.8C24 13.9201 24 14.4802 23.782 14.908C23.5903 15.2843 23.2843 15.5903 22.908 15.782C22.4802 16 21.9201 16 20.8 16H3.2C2.0799 16 1.51984 16 1.09202 15.782C0.715695 15.5903 0.409734 15.2843 0.217987 14.908C0 14.4802 0 13.9201 0 12.8V3.2Z" fill="white"/>
</clipPath>
</defs>
</svg>
