<svg width="24" height="16" viewBox="0 0 24 16" fill="none" xmlns="http://www.w3.org/2000/svg">
<g clip-path="url(#clip0_4178_48651)">
<path d="M0 3.2C0 2.0799 0 1.51984 0.217987 1.09202C0.409734 0.715695 0.715695 0.409734 1.09202 0.217987C1.51984 0 2.0799 0 3.2 0H20.8C21.9201 0 22.4802 0 22.908 0.217987C23.2843 0.409734 23.5903 0.715695 23.782 1.09202C24 1.51984 24 2.0799 24 3.2V12.8C24 13.9201 24 14.4802 23.782 14.908C23.5903 15.2843 23.2843 15.5903 22.908 15.782C22.4802 16 21.9201 16 20.8 16H3.2C2.0799 16 1.51984 16 1.09202 15.782C0.715695 15.5903 0.409734 15.2843 0.217987 14.908C0 14.4802 0 13.9201 0 12.8V3.2Z" fill="#486A8A"/>
<path d="M0 3.2C0 2.0799 0 1.51984 0.217987 1.09202C0.409734 0.715695 0.715695 0.409734 1.09202 0.217987C1.51984 0 2.0799 0 3.2 0H20.8C21.9201 0 22.4802 0 22.908 0.217987C23.2843 0.409734 23.5903 0.715695 23.782 1.09202C24 1.51984 24 2.0799 24 3.2V12.8C24 13.9201 24 14.4802 23.782 14.908C23.5903 15.2843 23.2843 15.5903 22.908 15.782C22.4802 16 21.9201 16 20.8 16H3.2C2.0799 16 1.51984 16 1.09202 15.782C0.715695 15.5903 0.409734 15.2843 0.217987 14.908C0 14.4802 0 13.9201 0 12.8V3.2Z" fill="url(#paint0_linear_4178_48651)"/>
<path d="M0 3.2C0 2.0799 0 1.51984 0.217987 1.09202C0.409734 0.715695 0.715695 0.409734 1.09202 0.217987C1.51984 0 2.0799 0 3.2 0H20.8C21.9201 0 22.4802 0 22.908 0.217987C23.2843 0.409734 23.5903 0.715695 23.782 1.09202C24 1.51984 24 2.0799 24 3.2V12.8C24 13.9201 24 14.4802 23.782 14.908C23.5903 15.2843 23.2843 15.5903 22.908 15.782C22.4802 16 21.9201 16 20.8 16H3.2C2.0799 16 1.51984 16 1.09202 15.782C0.715695 15.5903 0.409734 15.2843 0.217987 14.908C0 14.4802 0 13.9201 0 12.8V3.2Z" fill="url(#paint1_linear_4178_48651)"/>
<g clip-path="url(#clip1_4178_48651)">
<path d="M15.5657 9H17.5588C17.837 9 18.0101 9.22677 17.9452 9.50591L17.0173 13.4898C16.9518 13.768 16.6732 13.995 16.3948 13.995H14.4019C14.1241 13.995 13.9507 13.768 14.0156 13.4898L14.9439 9.50591C15.0088 9.22677 15.2872 9 15.5657 9Z" fill="#E21836"/>
<path d="M17.3937 9H19.6857C19.9639 9 19.8385 9.22677 19.773 9.50591L18.8453 13.4898C18.7802 13.768 18.8005 13.995 18.5217 13.995H16.2297C15.951 13.995 15.7785 13.768 15.844 13.4898L16.7717 9.50591C16.8376 9.22677 17.1154 9 17.3937 9Z" fill="#00447C"/>
<path d="M19.5929 9H21.586C21.8646 9 22.0376 9.22677 21.9722 9.50591L21.0444 13.4898C20.9789 13.768 20.7002 13.995 20.4216 13.995H18.4294C18.1507 13.995 17.9778 13.768 18.0431 13.4898L18.971 9.50591C19.0359 9.22677 19.3141 9 19.5929 9Z" fill="#007B84"/>
<path d="M16.0875 10.2771C15.8826 10.2791 15.822 10.2771 15.8027 10.2725C15.7953 10.3078 15.657 10.9458 15.6566 10.9463C15.6268 11.0754 15.6051 11.1674 15.5315 11.2268C15.4898 11.2614 15.441 11.278 15.3844 11.278C15.2935 11.278 15.2406 11.2329 15.2317 11.1473L15.23 11.1179C15.23 11.1179 15.2577 10.945 15.2577 10.9441C15.2577 10.9441 15.4029 10.3627 15.4288 10.2858C15.4302 10.2814 15.4306 10.2791 15.4309 10.2771C15.1484 10.2795 15.0983 10.2771 15.0949 10.2725C15.093 10.2788 15.086 10.3148 15.086 10.3148L14.9377 10.9701L14.925 11.0257L14.9004 11.2075C14.9004 11.2614 14.911 11.3054 14.9321 11.3426C14.9996 11.4606 15.1922 11.4783 15.3012 11.4783C15.4416 11.4783 15.5733 11.4485 15.6623 11.394C15.8167 11.3027 15.8572 11.16 15.8932 11.0332L15.9099 10.9682C15.9099 10.9682 16.0595 10.3644 16.0849 10.2858C16.0858 10.2814 16.0862 10.2791 16.0875 10.2771ZM16.5963 10.7642C16.5602 10.7642 16.4944 10.7729 16.4352 10.8019C16.4137 10.813 16.3934 10.8257 16.372 10.8384L16.3913 10.7686L16.3807 10.7568C16.2553 10.7822 16.2272 10.7856 16.1113 10.8019L16.1016 10.8084C16.0881 10.92 16.0762 11.0039 16.0263 11.2232C16.0073 11.304 15.9875 11.3857 15.9678 11.4663L15.9731 11.4766C16.0919 11.4703 16.1279 11.4703 16.2312 11.472L16.2395 11.4629C16.2526 11.3957 16.2543 11.38 16.2834 11.2439C16.297 11.1794 16.3255 11.0376 16.3396 10.9872C16.3653 10.9752 16.3908 10.9635 16.4151 10.9635C16.473 10.9635 16.4659 11.0139 16.4637 11.034C16.4612 11.0678 16.4401 11.1781 16.4185 11.2728L16.4041 11.3339C16.394 11.379 16.383 11.4229 16.3729 11.4676L16.3773 11.4766C16.4944 11.4703 16.5301 11.4703 16.6301 11.472L16.6418 11.4629C16.6599 11.358 16.6652 11.3299 16.6972 11.1771L16.7134 11.1069C16.7447 10.9695 16.7604 10.8999 16.7367 10.8431C16.7117 10.7795 16.6515 10.7642 16.5963 10.7642ZM17.1646 10.908C17.1024 10.92 17.0627 10.9279 17.0233 10.9331C16.9842 10.9394 16.946 10.945 16.8859 10.9534L16.8811 10.9577L16.8768 10.9612C16.8705 11.006 16.8661 11.0447 16.8578 11.0902C16.8508 11.1373 16.8399 11.1908 16.8223 11.2676C16.8086 11.3264 16.8016 11.3469 16.7938 11.3676C16.7863 11.3883 16.7779 11.4084 16.7625 11.4663L16.7661 11.4716L16.7692 11.4766C16.8254 11.4739 16.8621 11.472 16.8999 11.4716C16.9377 11.4703 16.9768 11.4716 17.0373 11.472L17.0426 11.4677L17.0483 11.4629C17.057 11.4107 17.0583 11.3967 17.0637 11.3712C17.069 11.3439 17.0781 11.3061 17.1005 11.2052C17.1111 11.1578 17.1229 11.1105 17.1339 11.0621C17.1453 11.0139 17.1573 10.9665 17.1686 10.919L17.1669 10.9133L17.1646 10.908ZM17.166 10.7141C17.1094 10.6807 17.0102 10.6913 16.9434 10.7374C16.8768 10.7826 16.8692 10.8467 16.9255 10.8805C16.9811 10.913 17.0808 10.9033 17.147 10.8568C17.2134 10.8107 17.2217 10.7471 17.166 10.7141ZM17.5079 11.487C17.6223 11.487 17.7396 11.4555 17.8279 11.3619C17.8958 11.286 17.9269 11.1731 17.9377 11.1266C17.9728 10.9726 17.9455 10.9006 17.9112 10.8568C17.859 10.79 17.7668 10.7686 17.6711 10.7686C17.6136 10.7686 17.4766 10.7742 17.3696 10.8729C17.2927 10.9441 17.2572 11.0407 17.2358 11.1333C17.2142 11.2276 17.1893 11.3974 17.3455 11.4606C17.3937 11.4813 17.4632 11.487 17.5079 11.487ZM17.499 11.1403C17.5254 11.0236 17.5565 10.9257 17.636 10.9257C17.6983 10.9257 17.7028 10.9985 17.6751 11.1156C17.6701 11.1416 17.6474 11.2382 17.6167 11.2794C17.5952 11.3097 17.5698 11.3282 17.5417 11.3282C17.5333 11.3282 17.4837 11.3282 17.4829 11.2544C17.4825 11.2179 17.4899 11.1807 17.499 11.1403ZM18.2237 11.472L18.2327 11.4629C18.2453 11.3957 18.2474 11.3799 18.2755 11.2439C18.2895 11.1794 18.3186 11.0377 18.3322 10.9872C18.3581 10.9752 18.3831 10.9634 18.4082 10.9634C18.4656 10.9634 18.4586 11.0139 18.4564 11.034C18.4543 11.0678 18.4332 11.178 18.4112 11.2727L18.3975 11.3338C18.3871 11.379 18.3757 11.4228 18.3657 11.4676L18.37 11.4766C18.4875 11.4703 18.5218 11.4703 18.6224 11.472L18.6346 11.4629C18.6522 11.3579 18.6569 11.3299 18.69 11.1771L18.7057 11.1069C18.7372 10.9695 18.7531 10.8999 18.7298 10.8431C18.704 10.7795 18.6435 10.7642 18.589 10.7642C18.5529 10.7642 18.4867 10.7729 18.4279 10.8019C18.4069 10.813 18.3858 10.8257 18.3651 10.8384L18.3831 10.7686L18.3734 10.7568C18.248 10.7822 18.2193 10.7856 18.1036 10.8019L18.0947 10.8084C18.0806 10.92 18.0692 11.0038 18.0193 11.2232C18.0003 11.3041 17.9806 11.3857 17.9609 11.4663L17.9662 11.4766C18.0852 11.4703 18.1207 11.4703 18.2237 11.472ZM19.0868 11.4765C19.0941 11.4405 19.138 11.2268 19.1384 11.2268C19.1384 11.2268 19.1758 11.0701 19.178 11.0644C19.178 11.0644 19.1898 11.0481 19.2016 11.0416H19.2188C19.382 11.0416 19.5663 11.0416 19.7107 10.9354C19.809 10.8625 19.8762 10.7549 19.9062 10.6241C19.9139 10.5921 19.9197 10.5539 19.9197 10.5158C19.9197 10.4657 19.9096 10.4161 19.8806 10.3774C19.8069 10.2744 19.6602 10.2725 19.4909 10.2717C19.4904 10.2717 19.4075 10.2725 19.4075 10.2725C19.1908 10.2752 19.1039 10.2744 19.0682 10.27C19.0651 10.2858 19.0595 10.3139 19.0595 10.3139C19.0595 10.3139 18.9818 10.6737 18.9818 10.6743C18.9818 10.6743 18.7961 11.4392 18.7873 11.4752C18.9765 11.473 19.0541 11.473 19.0868 11.4765ZM19.2306 10.8374C19.2306 10.8374 19.3131 10.4784 19.3128 10.4797L19.3154 10.4613L19.3166 10.4473L19.3496 10.4507C19.3496 10.4507 19.5198 10.4653 19.5238 10.4657C19.591 10.4917 19.6187 10.5587 19.5993 10.6461C19.5817 10.726 19.5299 10.7932 19.4633 10.8257C19.4084 10.8532 19.3412 10.8555 19.272 10.8555H19.2272L19.2306 10.8374ZM19.7445 11.1469C19.7227 11.2399 19.6976 11.4098 19.853 11.4703C19.9026 11.4914 19.947 11.4976 19.9921 11.4954C20.0398 11.4928 20.0839 11.4689 20.1248 11.4345C20.1211 11.4486 20.1174 11.4628 20.1138 11.4769L20.1208 11.486C20.2326 11.4813 20.2673 11.4813 20.3884 11.4822L20.3994 11.4739C20.417 11.3699 20.4337 11.269 20.4797 11.0701C20.5021 10.9748 20.5244 10.8805 20.5474 10.7856L20.5438 10.7752C20.4187 10.7983 20.3853 10.8033 20.265 10.8203L20.2559 10.8278C20.2547 10.8374 20.2534 10.8467 20.2523 10.856C20.2336 10.8258 20.2064 10.8 20.1646 10.7839C20.1111 10.7629 19.9855 10.79 19.8775 10.8883C19.8016 10.9585 19.7652 11.0547 19.7445 11.1469ZM20.0071 11.1526C20.0339 11.038 20.0646 10.9411 20.1443 10.9411C20.1947 10.9411 20.2212 10.9876 20.2158 11.0668C20.2115 11.0866 20.2069 11.1075 20.2014 11.131C20.1935 11.1651 20.1848 11.1988 20.1764 11.2326C20.1679 11.2558 20.1579 11.2776 20.147 11.2921C20.1265 11.3212 20.0777 11.3392 20.0496 11.3392C20.0417 11.3392 19.9925 11.3392 19.9908 11.2667C19.9904 11.2306 19.9978 11.1934 20.0071 11.1526ZM21.3786 10.7742L21.3689 10.7632C21.2452 10.7883 21.2228 10.7923 21.1091 10.8076L21.1007 10.816C21.1003 10.8173 21.1 10.8194 21.0994 10.8213L21.099 10.8194C21.0144 11.0147 21.0169 10.9725 20.948 11.1262C20.9476 11.1193 20.9476 11.1149 20.9472 11.1074L20.93 10.7742L20.9191 10.7632C20.7895 10.7883 20.7865 10.7923 20.6668 10.8076L20.6574 10.816C20.6561 10.82 20.6561 10.8243 20.6553 10.8291L20.6561 10.8308C20.6711 10.9072 20.6675 10.8902 20.6825 11.0109C20.6895 11.0701 20.6988 11.1296 20.7058 11.1881C20.7176 11.286 20.7242 11.3342 20.7387 11.4836C20.6578 11.617 20.6387 11.6675 20.5609 11.7846L20.5614 11.7857L20.5066 11.8724C20.5003 11.8815 20.4946 11.8878 20.4867 11.8905C20.4779 11.8948 20.4666 11.8956 20.4508 11.8956H20.4204L20.3753 12.0457L20.5301 12.0483C20.621 12.048 20.6781 12.0054 20.7089 11.9483L20.8062 11.7815H20.8047L20.8149 11.7697C20.8804 11.6288 21.3786 10.7742 21.3786 10.7742ZM19.7445 12.7457H19.6788L19.9219 11.9417H20.0025L20.0282 11.8589L20.0306 11.951C20.0276 12.0079 20.0724 12.0584 20.1901 12.05H20.3261L20.373 11.8952H20.3218C20.2923 11.8952 20.2787 11.8878 20.2804 11.8718L20.2779 11.7781H20.0259V11.7786C19.9444 11.7803 19.7012 11.7864 19.6519 11.7995C19.5923 11.8149 19.5295 11.8601 19.5295 11.8601L19.5542 11.7771H19.3184L19.2693 11.9417L19.023 12.758H18.9752L18.9283 12.9117H19.3978L19.382 12.963H19.6134L19.6287 12.9117H19.6936L19.7445 12.7457ZM19.5519 12.1051C19.5141 12.1155 19.4439 12.1472 19.4439 12.1472L19.5064 11.9417H19.6936L19.6485 12.0914C19.6485 12.0914 19.5906 12.0948 19.5519 12.1051ZM19.5555 12.3986C19.5555 12.3986 19.4966 12.406 19.4579 12.4148C19.4198 12.4263 19.3483 12.4627 19.3483 12.4627L19.4128 12.2489H19.601L19.5555 12.3986ZM19.4505 12.7476H19.2627L19.3171 12.5671H19.5044L19.4505 12.7476ZM19.9029 12.2489H20.1737L20.1348 12.3749H19.8604L19.8192 12.5127H20.0593L19.8775 12.7687C19.8648 12.7875 19.8534 12.7941 19.8407 12.7994C19.828 12.8059 19.8113 12.8134 19.7919 12.8134H19.7253L19.6796 12.9643H19.8538C19.9443 12.9643 19.9978 12.9231 20.0373 12.8691L20.162 12.6985L20.1887 12.8717C20.1944 12.9041 20.2177 12.9231 20.2335 12.9305C20.251 12.9393 20.269 12.9543 20.2944 12.9565C20.3217 12.9577 20.3415 12.9586 20.3546 12.9586H20.4402L20.4916 12.7897H20.4578C20.4384 12.7897 20.4051 12.7865 20.3994 12.7804C20.3937 12.773 20.3937 12.7617 20.3906 12.7444L20.3635 12.5707H20.2523L20.3011 12.5127H20.5749L20.617 12.3749H20.3635L20.403 12.2489H20.6557L20.7026 12.0935H19.949L19.9029 12.2489ZM17.6159 12.7827L17.6791 12.5725H17.9389L17.9863 12.4161H17.7263L17.766 12.2867H18.0201L18.0672 12.1352H17.4314L17.3853 12.2867H17.5298L17.4912 12.4161H17.3464L17.2984 12.5751H17.4428L17.3586 12.8533C17.3472 12.8901 17.3639 12.9042 17.3745 12.9213C17.3853 12.9379 17.3963 12.9489 17.421 12.9552C17.4464 12.9609 17.4639 12.9643 17.4876 12.9643H17.7804L17.8326 12.7911L17.7028 12.8089C17.6777 12.8089 17.6083 12.8059 17.6159 12.7827ZM17.6457 11.7762L17.5799 11.8952C17.5658 11.9212 17.5531 11.9373 17.5417 11.9447C17.5316 11.951 17.5117 11.9536 17.4828 11.9536H17.4485L17.4026 12.1058H17.5167C17.5715 12.1058 17.6136 12.0857 17.6337 12.0756C17.6554 12.0641 17.661 12.0707 17.6778 12.0546L17.7163 12.0212H18.0725L18.1197 11.8627H17.859L17.9045 11.7762H17.6457ZM18.1715 12.7858C18.1655 12.777 18.1698 12.7616 18.1791 12.7296L18.2765 12.4073H18.6228C18.6733 12.4066 18.7097 12.406 18.7334 12.4043C18.7589 12.4016 18.7866 12.3926 18.8167 12.3762C18.8479 12.3591 18.8638 12.3411 18.8773 12.3204C18.8923 12.2998 18.9164 12.2546 18.9371 12.1849L19.0594 11.7772L18.7 11.7792C18.7 11.7792 18.5894 11.7956 18.5406 11.8136C18.4915 11.8337 18.4212 11.8899 18.4212 11.8899L18.4537 11.7781H18.2317L17.9209 12.8089C17.9098 12.8489 17.9025 12.878 17.9008 12.8954C17.9002 12.9142 17.9245 12.9328 17.9402 12.9469C17.9588 12.9609 17.9863 12.9586 18.0127 12.9609C18.0404 12.963 18.0799 12.9643 18.1343 12.9643H18.3049L18.3573 12.7875L18.2046 12.8019C18.1882 12.8019 18.1764 12.7931 18.1715 12.7858ZM18.3393 12.1897H18.703L18.6799 12.2622C18.6767 12.2639 18.6689 12.2586 18.6319 12.2629H18.3169L18.3393 12.1897ZM18.4122 11.9466H18.779L18.7526 12.0339C18.7526 12.0339 18.5797 12.0322 18.552 12.0373C18.4302 12.0584 18.359 12.1235 18.359 12.1235L18.4122 11.9466ZM18.6881 12.5049C18.6851 12.5157 18.6803 12.5223 18.6736 12.5273C18.6663 12.532 18.6543 12.5337 18.6365 12.5337H18.5846L18.5877 12.4455H18.3721L18.3634 12.877C18.363 12.9082 18.366 12.9262 18.3888 12.9406C18.4116 12.9586 18.4818 12.9609 18.5763 12.9609H18.7114L18.7602 12.7994L18.6425 12.8058L18.6034 12.8081C18.5981 12.8058 18.593 12.8038 18.5873 12.7981C18.5824 12.7932 18.574 12.7962 18.5754 12.765L18.5763 12.6544L18.6996 12.6493C18.7662 12.6493 18.7947 12.6277 18.819 12.607C18.8422 12.5872 18.8497 12.5645 18.8585 12.5337L18.8792 12.4358H18.7097L18.6881 12.5049Z" fill="white"/>
</g>
</g>
<defs>
<linearGradient id="paint0_linear_4178_48651" x1="0" y1="0" x2="25.1386" y2="13.9478" gradientUnits="userSpaceOnUse">
<stop stop-color="#1434CB"/>
<stop offset="1" stop-color="#202D68"/>
</linearGradient>
<linearGradient id="paint1_linear_4178_48651" x1="0" y1="0" x2="25.1386" y2="13.9478" gradientUnits="userSpaceOnUse">
<stop stop-color="#007B84"/>
<stop offset="1" stop-color="#255255"/>
</linearGradient>
<clipPath id="clip0_4178_48651">
<path d="M0 3.2C0 2.0799 0 1.51984 0.217987 1.09202C0.409734 0.715695 0.715695 0.409734 1.09202 0.217987C1.51984 0 2.0799 0 3.2 0H20.8C21.9201 0 22.4802 0 22.908 0.217987C23.2843 0.409734 23.5903 0.715695 23.782 1.09202C24 1.51984 24 2.0799 24 3.2V12.8C24 13.9201 24 14.4802 23.782 14.908C23.5903 15.2843 23.2843 15.5903 22.908 15.782C22.4802 16 21.9201 16 20.8 16H3.2C2.0799 16 1.51984 16 1.09202 15.782C0.715695 15.5903 0.409734 15.2843 0.217987 14.908C0 14.4802 0 13.9201 0 12.8V3.2Z" fill="white"/>
</clipPath>
<clipPath id="clip1_4178_48651">
<rect width="8" height="5" fill="white" transform="translate(14 9)"/>
</clipPath>
</defs>
</svg>
