<svg width="24" height="16" viewBox="0 0 24 16" fill="none" xmlns="http://www.w3.org/2000/svg">
<g clip-path="url(#clip0_4178_48573)">
<path d="M0 3.2C0 2.0799 0 1.51984 0.217987 1.09202C0.409734 0.715695 0.715695 0.409734 1.09202 0.217987C1.51984 0 2.0799 0 3.2 0H20.8C21.9201 0 22.4802 0 22.908 0.217987C23.2843 0.409734 23.5903 0.715695 23.782 1.09202C24 1.51984 24 2.0799 24 3.2V12.8C24 13.9201 24 14.4802 23.782 14.908C23.5903 15.2843 23.2843 15.5903 22.908 15.782C22.4802 16 21.9201 16 20.8 16H3.2C2.0799 16 1.51984 16 1.09202 15.782C0.715695 15.5903 0.409734 15.2843 0.217987 14.908C0 14.4802 0 13.9201 0 12.8V3.2Z" fill="#E21836"/>
<path d="M0 3.2C0 2.0799 0 1.51984 0.217987 1.09202C0.409734 0.715695 0.715695 0.409734 1.09202 0.217987C1.51984 0 2.0799 0 3.2 0H20.8C21.9201 0 22.4802 0 22.908 0.217987C23.2843 0.409734 23.5903 0.715695 23.782 1.09202C24 1.51984 24 2.0799 24 3.2V12.8C24 13.9201 24 14.4802 23.782 14.908C23.5903 15.2843 23.2843 15.5903 22.908 15.782C22.4802 16 21.9201 16 20.8 16H3.2C2.0799 16 1.51984 16 1.09202 15.782C0.715695 15.5903 0.409734 15.2843 0.217987 14.908C0 14.4802 0 13.9201 0 12.8V3.2Z" fill="url(#paint0_linear_4178_48573)"/>
<path d="M18.862 11C18.223 11 17.6519 11.3408 17.6519 11.9703C17.6519 12.6923 18.6647 12.7422 18.6647 13.1049C18.6647 13.2576 18.4946 13.3944 18.204 13.3944C17.7917 13.3944 17.4835 13.2033 17.4835 13.2033L17.3516 13.8386C17.3516 13.8386 17.7066 14 18.178 14C18.8767 14 19.4265 13.6425 19.4265 13.0022C19.4265 12.2392 18.4094 12.1909 18.4094 11.8542C18.4094 11.7346 18.5491 11.6035 18.8388 11.6035C19.1657 11.6035 19.4324 11.7424 19.4324 11.7424L19.5615 11.1288C19.5615 11.1288 19.2713 11 18.862 11ZM13.0155 11.0463L13 11.1389C13 11.1389 13.2688 11.1895 13.511 11.2905C13.8228 11.4063 13.845 11.4737 13.8975 11.6831L14.4696 13.9522H15.2366L16.4183 11.0463H15.653L14.8938 13.0221L14.5839 11.3473C14.5555 11.1556 14.4116 11.0463 14.2354 11.0463H13.0155ZM16.726 11.0463L16.1257 13.9522H16.8554L17.4536 11.0463H16.726ZM20.7959 11.0463C20.6199 11.0463 20.5267 11.1432 20.4583 11.3126L19.3892 13.9522H20.1544L20.3025 13.5123H21.2348L21.3248 13.9522H22L21.4109 11.0463H20.7959ZM20.8954 11.8314L21.1222 12.9219H20.5145L20.8954 11.8314Z" fill="white"/>
</g>
<defs>
<linearGradient id="paint0_linear_4178_48573" x1="0" y1="0" x2="25.1386" y2="13.9478" gradientUnits="userSpaceOnUse">
<stop stop-color="#1434CB"/>
<stop offset="1" stop-color="#202D68"/>
</linearGradient>
<clipPath id="clip0_4178_48573">
<path d="M0 3.2C0 2.0799 0 1.51984 0.217987 1.09202C0.409734 0.715695 0.715695 0.409734 1.09202 0.217987C1.51984 0 2.0799 0 3.2 0H20.8C21.9201 0 22.4802 0 22.908 0.217987C23.2843 0.409734 23.5903 0.715695 23.782 1.09202C24 1.51984 24 2.0799 24 3.2V12.8C24 13.9201 24 14.4802 23.782 14.908C23.5903 15.2843 23.2843 15.5903 22.908 15.782C22.4802 16 21.9201 16 20.8 16H3.2C2.0799 16 1.51984 16 1.09202 15.782C0.715695 15.5903 0.409734 15.2843 0.217987 14.908C0 14.4802 0 13.9201 0 12.8V3.2Z" fill="white"/>
</clipPath>
</defs>
</svg>
