<svg width="40" height="40" viewBox="0 0 40 40" fill="none" xmlns="http://www.w3.org/2000/svg">
<path d="M10.2562 17.9801L10.2375 17.9988C10.2001 18.0175 10.1814 18.0362 10.144 18.0549C10.1252 18.0736 10.0879 18.0923 10.0692 18.111L10.0318 18.1297C10.0131 18.1484 9.97564 18.1671 9.95695 18.1671C9.91957 18.1858 9.88215 18.2045 9.86346 18.2045L9.82604 18.2232C9.80735 18.2419 9.76992 18.2419 9.75123 18.2606C9.71385 18.2793 9.65774 18.298 9.62032 18.3167L9.58294 18.3354C9.56425 18.3354 9.54552 18.3541 9.50813 18.3541C9.43333 18.3728 9.37722 18.3915 9.30242 18.4102H9.26504C9.05932 18.4476 8.8536 18.4851 8.64788 18.4851C8.64788 18.4851 8.59177 18.4851 8.57308 18.4851C8.42347 18.4851 8.27387 18.4663 8.12426 18.4289C8.03073 18.4102 7.95592 18.3915 7.86243 18.3541L7.73152 19.0648H4.40275L5.0573 15.4368H2.64485L1.44798 22.0944C1.46669 22.0756 1.48539 22.0569 1.52279 22.0383L1.56019 22.0196C1.59759 22.0008 1.6163 21.9821 1.6537 21.9634C1.6724 21.9448 1.7098 21.926 1.7285 21.9073L1.7659 21.8886C1.78461 21.8699 1.82201 21.8512 1.84071 21.8512C1.87811 21.8325 1.91551 21.8138 1.93421 21.8138L1.97162 21.7951C1.99032 21.7764 2.02772 21.7764 2.04642 21.7577C2.08382 21.739 2.13993 21.7203 2.17733 21.7203H2.21473C2.23343 21.7203 2.25213 21.7016 2.27083 21.7016C2.34564 21.6829 2.40174 21.6642 2.47654 21.6455H2.51394C2.71966 21.6081 2.92537 21.5707 3.13108 21.5707C3.14978 21.5707 3.18718 21.5707 3.20588 21.5707C3.28069 21.5707 3.35549 21.5707 3.4303 21.5894C3.59861 21.6081 3.76691 21.6455 3.91652 21.6829L4.04743 20.9723H7.3575L6.70297 24.6003H9.11539L10.3123 17.9427C10.3123 17.9427 10.2936 17.9614 10.2562 17.9801Z" fill="#FF4646"/>
<path d="M16.8771 15.2688C15.3623 15.2688 13.9784 15.8673 13.006 16.9706C12.0709 18.0179 11.5473 19.4579 11.5473 20.9913C11.5473 23.3103 12.9312 24.7503 15.1566 24.7503C18.2049 24.7503 20.5051 22.2817 20.5051 19.009C20.5238 16.7088 19.1212 15.2688 16.8771 15.2688ZM15.5306 22.6931C14.633 22.6931 14.128 22.0199 14.128 20.7856C14.128 19.0838 15.0257 17.3446 16.5218 17.3446C17.4381 17.3446 17.9431 18.0179 17.9431 19.2334C17.9431 20.8978 17.0267 22.6931 15.5306 22.6931Z" fill="#FF4646"/>
<path d="M24.8818 15.437H22.6189L20.9733 24.5818H26.2283L26.6023 22.4686H23.6288L24.8818 15.437Z" fill="#FF4646"/>
<path d="M35.8395 15.4368L33.558 21.6081L32.6417 15.4368H29.4625L27.6485 24.5816H29.9113L31.0146 18.5225L31.9684 24.5816H34.624L36.9055 18.4663L36.6811 24.5816H38.9065L39 15.4368H35.8395Z" fill="#FF4646"/>
<path d="M10.8182 15.9418V15.9231C10.8182 15.8857 10.8182 15.867 10.7995 15.8296C10.6686 15.1377 9.93924 14.6888 9.17252 14.8197C8.38707 14.9506 7.86345 15.6239 7.99437 16.3345C7.99437 16.3719 8.01306 16.3906 8.01306 16.428C8.01306 16.4467 8.03175 16.4841 8.03175 16.5028V16.5215C8.12524 16.7646 8.27485 16.9704 8.4993 17.12C8.38707 17.2883 8.23747 17.4566 8.05044 17.5688C7.93825 17.6436 7.78865 17.7184 7.73254 17.7371C7.73254 17.7371 8.14397 17.9428 8.61148 17.9428C8.79851 17.9428 8.9855 17.9241 9.19121 17.8867C9.19121 17.8867 9.19121 17.8867 9.2099 17.8867C9.26602 17.868 9.34082 17.8493 9.39693 17.8306C9.41562 17.8306 9.43431 17.8119 9.47174 17.8119C9.50912 17.7932 9.54654 17.7932 9.58396 17.7745C9.60265 17.7558 9.64003 17.7558 9.65876 17.7371C9.69614 17.7184 9.71483 17.6997 9.75226 17.6997C9.77095 17.681 9.80837 17.6623 9.82706 17.6623C9.84575 17.6436 9.88317 17.6249 9.90186 17.6249C9.93924 17.6062 9.95797 17.5875 9.97666 17.5688C9.99535 17.5501 10.0328 17.5314 10.0515 17.5127C10.0702 17.494 10.1076 17.4753 10.1263 17.4566C10.145 17.4379 10.1637 17.4192 10.1824 17.4005C10.2011 17.3818 10.2385 17.3444 10.2572 17.3257C10.2759 17.307 10.2946 17.2883 10.3133 17.2883C10.332 17.2696 10.3694 17.2322 10.3881 17.2135C10.4068 17.1948 10.4068 17.1761 10.4255 17.1761C10.4442 17.1387 10.4816 17.12 10.5003 17.0826C10.519 17.0639 10.519 17.0639 10.5377 17.0452C10.5564 17.0078 10.5751 16.9704 10.6125 16.933C10.6125 16.9143 10.6312 16.9143 10.6312 16.8956C10.6499 16.8581 10.6686 16.8207 10.6873 16.7833C10.6873 16.7646 10.6873 16.7646 10.706 16.7459C10.7247 16.7085 10.7434 16.6711 10.7621 16.615V16.5963C10.7808 16.5589 10.7808 16.5028 10.7995 16.4654V16.4467C10.8182 16.3906 10.8182 16.3532 10.8182 16.2971C10.8182 16.2971 10.8182 16.2971 10.8182 16.2784C10.8182 16.2223 10.8369 16.1849 10.8369 16.1288C10.8369 16.054 10.8369 15.9979 10.8182 15.9418Z" fill="#FF4646"/>
<path d="M3.78645 22.4686C3.89866 22.3938 4.04827 22.319 4.10437 22.3003C4.10437 22.3003 3.69295 22.0946 3.22542 22.0946C3.03841 22.0946 2.8514 22.1133 2.64569 22.1507C2.64569 22.1507 2.64569 22.1507 2.62699 22.1507C2.57088 22.1694 2.49608 22.1881 2.43998 22.2068C2.42128 22.2068 2.40258 22.2255 2.36517 22.2255C2.32777 22.2442 2.29037 22.2442 2.25297 22.2629C2.23427 22.2816 2.19687 22.2816 2.17816 22.3003C2.14076 22.319 2.12206 22.3377 2.08466 22.3377C2.06596 22.3564 2.02856 22.3751 2.00986 22.3751C1.99116 22.3938 1.95375 22.4125 1.93505 22.4125C1.89765 22.4312 1.87895 22.4499 1.86025 22.4686C1.84155 22.4873 1.80415 22.506 1.78544 22.5247C1.76674 22.5434 1.72934 22.5621 1.71064 22.5808C1.69194 22.5995 1.67324 22.6182 1.65454 22.6369C1.63584 22.6556 1.59843 22.693 1.57973 22.7117C1.56103 22.7304 1.54233 22.7491 1.52363 22.7491C1.50493 22.7678 1.46752 22.8052 1.44883 22.8239C1.43012 22.8426 1.43012 22.8614 1.41142 22.8614C1.39272 22.8987 1.35532 22.9174 1.33662 22.9549C1.31792 22.9735 1.31792 22.9735 1.29922 22.9922C1.28052 23.0297 1.26181 23.067 1.22441 23.1045C1.22441 23.1231 1.20571 23.1231 1.20571 23.1418C1.18701 23.1793 1.16831 23.2166 1.14961 23.2541C1.14961 23.2728 1.14961 23.2728 1.13091 23.2914C1.11221 23.3289 1.09351 23.3662 1.0748 23.4224V23.4411C1.0561 23.4785 1.0561 23.5346 1.0374 23.572V23.5907C1.0187 23.6468 1.0187 23.6842 1.0187 23.7403C1.0187 23.7403 1.0187 23.7403 1.0187 23.759C1.0187 23.8151 1 23.8525 1 23.9086C1 23.9647 1 24.0021 1 24.0582V24.0769C1 24.1143 1 24.133 1.0187 24.1704C1.14961 24.8623 1.87895 25.3112 2.64569 25.1802C3.43113 25.0494 3.95476 24.3761 3.82386 23.6655C3.82386 23.6281 3.80515 23.6094 3.80515 23.572C3.80515 23.5533 3.78645 23.5159 3.78645 23.4972V23.4785C3.69295 23.2354 3.54334 23.0297 3.31893 22.88C3.43113 22.7491 3.59944 22.5995 3.78645 22.4686Z" fill="#FF4646"/>
</svg>
