<svg width="40" height="40" viewBox="0 0 40 40" fill="none" xmlns="http://www.w3.org/2000/svg">
    <path fill-rule="evenodd" clip-rule="evenodd" d="M20 28.0485C22.2095 26.0709 23.6 23.1971 23.6 19.9985C23.6 16.7999 22.2095 13.9261 20 11.9485C17.7905 13.9261 16.4 16.7999 16.4 19.9985C16.4 23.1971 17.7905 26.0709 20 28.0485Z" fill="#FF8E26"/>
    <path fill-rule="evenodd" clip-rule="evenodd" d="M20 28.0502C22.2095 26.0726 23.6 23.1988 23.6 20.0002C23.6 16.8016 22.2095 13.9278 20 11.9503C21.9107 10.2401 24.434 9.2002 27.2001 9.2002C33.1647 9.2002 38.0001 14.0355 38.0001 20.0002C38.0001 25.9649 33.1647 30.8002 27.2001 30.8002C24.434 30.8002 21.9107 29.7604 20 28.0502Z" fill="#FAB400"/>
    <path fill-rule="evenodd" clip-rule="evenodd" d="M20 28.0502C17.7905 26.0726 16.4 23.1988 16.4 20.0002C16.4 16.8016 17.7905 13.9278 20 11.9503C18.0893 10.2401 15.566 9.2002 12.7999 9.2002C6.83526 9.2002 1.99992 14.0355 1.99992 20.0002C1.99992 25.9649 6.83526 30.8002 12.7999 30.8002C15.566 30.8002 18.0893 29.7604 20 28.0502Z" fill="#E21836"/>
</svg>
