<svg width="40" height="40" viewBox="0 0 40 40" fill="none" xmlns="http://www.w3.org/2000/svg">
<path d="M11.6965 16.0835L9.72303 17.5484C8.80463 16.7514 7.5978 16.592 6.94504 16.592C6.29229 16.592 5.57882 16.7818 5.48015 17.26C5.37389 17.723 5.80652 18.0873 6.54277 18.2922C7.39286 18.5199 8.15947 18.7173 9.35112 19.0512C11.112 19.5598 12.3113 20.3264 12.3113 22.0873C12.3113 24.5313 10.1557 25.7989 7.24865 25.7989C4.34163 25.7989 2.37578 24.2808 1.78375 23.5825L3.86345 22.0266C5.32075 23.3017 6.33783 23.4763 7.18034 23.4763C8.15188 23.4763 9.06269 23.2713 9.18413 22.7173C9.27521 22.277 8.91089 21.9279 8.08356 21.7305C7.14239 21.518 6.35301 21.3435 5.47256 21.1082C3.08167 20.4858 2.40614 19.0892 2.40614 17.8444C2.40614 16.1214 4.00007 14.3529 6.93745 14.3529C8.68033 14.3306 10.3718 14.943 11.6965 16.0759M24.2126 14.5275H15.446V25.4649H24.3644V22.945H18.52V21.1765H22.5428V18.7628H18.52V17.0171H24.205L24.2126 14.5275ZM13.1917 28H13.8748V12H13.1917V28ZM25.5181 28H26.2012V12H25.5181V28ZM27.78 25.4725H34.816C36.6908 25.4725 38.2164 24.334 38.2164 22.5275C38.2164 21.1082 37.2904 20.1746 35.9925 19.7571C35.95 19.7482 35.9068 19.7431 35.8635 19.7419C35.907 19.7379 35.9502 19.7303 35.9925 19.7192C36.4688 19.5253 36.8742 19.1898 37.1538 18.7582C37.4334 18.3265 37.5738 17.8195 37.5561 17.3055C37.5561 15.6129 36.0608 14.5275 34.2164 14.5275H27.78V25.4725ZM30.8691 16.8046H33.3283C33.89 16.8046 34.353 17.26 34.353 17.7685C34.353 18.277 33.8976 18.7249 33.3283 18.7249H30.8691V16.8046ZM33.8748 23.0436H30.8691V21.0474H33.8748C34.1174 21.0775 34.3406 21.1951 34.5025 21.3782C34.6643 21.5614 34.7536 21.7973 34.7536 22.0417C34.7536 22.2861 34.6643 22.5221 34.5025 22.7052C34.3406 22.8884 34.1174 23.006 33.8748 23.0361V23.0436Z" fill="#4A4E5A"/>
</svg>
