<svg width="24" height="24" viewBox="0 0 24 24" fill="none" xmlns="http://www.w3.org/2000/svg">
<path d="M16 7C16 9.76142 13.7614 12 11 12C8.23858 12 6 9.76142 6 7C6 4.23858 8.23858 2 11 2C13.7614 2 16 4.23858 16 7Z" fill="currentColor"/>
<path d="M3 18C3 20.2091 3 22 11 22C19 22 19 20.2091 19 18C19 15.7909 15.4183 14 11 14C6.58172 14 3 15.7909 3 18Z" fill="currentColor"/>
<path d="M21 10C21 9.44772 20.5523 9 20 9C19.4477 9 19 9.44772 19 10V11H18C17.4477 11 17 11.4477 17 12C17 12.5523 17.4477 13 18 13H19V14C19 14.5523 19.4477 15 20 15C20.5523 15 21 14.5523 21 14V13H22C22.5523 13 23 12.5523 23 12C23 11.4477 22.5523 11 22 11H21V10Z" fill="currentColor"/>
</svg>
