<svg width="24" height="24" viewBox="0 0 24 24" fill="none" xmlns="http://www.w3.org/2000/svg">
<path fill-rule="evenodd" clip-rule="evenodd" d="M12 22C17.5228 22 22 17.5228 22 12C22 6.47715 17.5228 2 12 2C6.47715 2 2 6.47715 2 12C2 17.5228 6.47715 22 12 22ZM12.7071 7.29289C12.3166 6.90237 11.6834 6.90237 11.2929 7.29289C10.9024 7.68342 10.9024 8.31658 11.2929 8.70711L13.5858 11H8C7.44772 11 7 11.4477 7 12C7 12.5523 7.44772 13 8 13H13.5858L11.2929 15.2929C10.9024 15.6834 10.9024 16.3166 11.2929 16.7071C11.6834 17.0976 12.3166 17.0976 12.7071 16.7071L17.4142 12L12.7071 7.29289Z" fill="currentColor"/>
</svg>
