<svg width="24" height="24" viewBox="0 0 24 24" fill="none" xmlns="http://www.w3.org/2000/svg">
<path fill-rule="evenodd" clip-rule="evenodd" d="M12 22C17.5228 22 22 17.5228 22 12C22 6.47715 17.5228 2 12 2C6.47715 2 2 6.47715 2 12C2 17.5228 6.47715 22 12 22ZM13 8.00001C13 7.44772 12.5523 7.00001 12 7.00001C11.4477 7.00001 11 7.44772 11 8.00001V13.5858L8.7071 11.2929C8.31658 10.9024 7.68341 10.9024 7.29289 11.2929C6.90237 11.6834 6.90237 12.3166 7.29289 12.7071L12 17.4142L16.7071 12.7071C17.0976 12.3166 17.0976 11.6834 16.7071 11.2929C16.3166 10.9024 15.6834 10.9024 15.2929 11.2929L13 13.5858V8.00001Z" fill="currentColor"/>
</svg>
