<svg width="24" height="24" viewBox="0 0 24 24" fill="none" xmlns="http://www.w3.org/2000/svg">
<path d="M9.07612 2.61732C9 2.80109 9 3.03406 9 3.5V6L11.8638 5.99999C12.3686 5.99993 12.8602 5.99988 13.2765 6.03389C13.7336 6.07124 14.2731 6.15938 14.816 6.43597C15.5686 6.81947 16.1805 7.43139 16.564 8.18404C16.8406 8.72689 16.9288 9.26635 16.9661 9.72354C17.0001 10.1398 17.0001 10.6314 17 11.1361L17 22H17.9888C17.9926 22 17.9963 22.0001 18 22.0001H22C22.5523 22.0001 23 21.5523 23 21.0001C23 20.4478 22.5523 20.0001 22 20.0001H21V12.5C21 9.23841 21 7.60761 20.4672 6.32122C19.7567 4.60602 18.394 3.2433 16.6788 2.53284C15.3924 2 13.7616 2 10.5 2C10.0341 2 9.80109 2 9.61732 2.07612C9.37229 2.17761 9.17761 2.37229 9.07612 2.61732Z" fill="currentColor"/>
<path fill-rule="evenodd" clip-rule="evenodd" d="M15 11.2C15 10.0799 15 9.51984 14.782 9.09202C14.5903 8.71569 14.2843 8.40973 13.908 8.21799C13.4802 8 12.9201 8 11.8 8H6.2C5.0799 8 4.51984 8 4.09202 8.21799C3.71569 8.40973 3.40973 8.71569 3.21799 9.09202C3 9.51984 3 10.0799 3 11.2V20.0001H2C1.44772 20.0001 1 20.4478 1 21.0001C1 21.5523 1.44772 22.0001 2 22.0001H6L6.01116 22H7.5V20.0001C7.5 19.1716 8.17157 18.5001 9 18.5001C9.82843 18.5001 10.5 19.1716 10.5 20.0001V22H15V11.2ZM7 10C6.44772 10 6 10.4477 6 11C6 11.5523 6.44772 12 7 12H11C11.5523 12 12 11.5523 12 11C12 10.4477 11.5523 10 11 10H7ZM7 13.9999C6.44772 13.9999 6 14.4477 6 14.9999C6 15.5522 6.44772 15.9999 7 15.9999H11C11.5523 15.9999 12 15.5522 12 14.9999C12 14.4477 11.5523 13.9999 11 13.9999H7Z" fill="currentColor"/>
</svg>
