<svg width="24" height="24" viewBox="0 0 24 24" fill="none" xmlns="http://www.w3.org/2000/svg">
<path d="M22 7C22 9.76142 19.7614 12 17 12C16.2002 12 15.4442 11.8122 14.7738 11.4783C14.5956 11.3895 14.392 11.36 14.1997 11.4114L13.0867 11.7092C12.6035 11.8385 12.1615 11.3965 12.2908 10.9133L12.5886 9.80031C12.64 9.60803 12.6105 9.4044 12.5217 9.22624C12.1878 8.55582 12 7.79984 12 7C12 4.23858 14.2386 2 17 2C19.7614 2 22 4.23858 22 7Z" fill="currentColor"/>
<path d="M4.7183 4.17724L6.98681 4.00274C7.36209 3.97387 7.7175 4.1751 7.88583 4.51176L9.92748 8.59506C10.1057 8.95146 10.0358 9.38191 9.75407 9.66368L8.2059 11.2118C8.03229 11.3855 7.9519 11.6228 8.06201 11.8422C8.25158 12.2201 8.72355 12.9264 9.89858 14.1014C11.0736 15.2765 11.7799 15.7484 12.1578 15.938C12.3772 16.0481 12.6145 15.9677 12.7882 15.7941L14.3363 14.2459C14.6181 13.9642 15.0485 13.8943 15.4049 14.0725L19.4882 16.1142C19.8249 16.2825 20.0261 16.6379 19.9973 17.0132L19.8228 19.2817C19.755 20.1631 19.3758 21.0151 18.5806 21.4012C17.8027 21.7788 16.6398 22.1239 15.1354 21.9567C13.497 21.7747 11.2078 21.3021 6.95284 17.0472C2.69789 12.7922 2.22533 10.503 2.04328 8.86456C1.87613 7.36018 2.22116 6.19727 2.59883 5.4194C2.98491 4.62422 3.83695 4.24504 4.7183 4.17724Z" fill="currentColor"/>
</svg>
