<svg width="24" height="24" viewBox="0 0 24 24" fill="none" xmlns="http://www.w3.org/2000/svg">
<path fill-rule="evenodd" clip-rule="evenodd" d="M2.0001 10H21.9999L22 13.6C22 15.8402 22 16.9603 21.564 17.816C21.1805 18.5686 20.5686 19.1805 19.816 19.564C18.9603 20 17.8402 20 15.6 20H8.4C6.15979 20 5.03969 20 4.18404 19.564C3.43139 19.1805 2.81947 18.5686 2.43597 17.816C2 16.9603 2 15.8402 2 13.6L2.0001 10ZM5 16C5 15.4477 5.44772 15 6 15H9C9.55228 15 10 15.4477 10 16C10 16.5523 9.55228 17 9 17H6C5.44772 17 5 16.5523 5 16ZM11 16C11 15.4477 11.4477 15 12 15H14C14.5523 15 15 15.4477 15 16C15 16.5523 14.5523 17 14 17H12C11.4477 17 11 16.5523 11 16Z" fill="currentColor"/>
<path d="M21.4641 6H2.5359C2.92178 5.33161 3.49372 4.78771 4.18404 4.43597C5.03969 4 6.15979 4 8.4 4H15.6C17.8402 4 18.9603 4 19.816 4.43597C20.5063 4.78771 21.0782 5.33161 21.4641 6Z" fill="currentColor"/>
</svg>
