<svg width="24" height="24" viewBox="0 0 24 24" fill="none" xmlns="http://www.w3.org/2000/svg">
<path d="M9.82501 2.00002H14.1751C15.8674 1.99975 16.9199 1.99958 17.8118 2.23856C20.2274 2.88583 22.1142 4.77266 22.7615 7.1883C23.0005 8.08017 23.0003 9.13265 23.0001 10.825L23 11C23 11.5523 22.5523 12 22 12C21.4478 12 21 11.5523 21 11C21 9.07571 20.9914 8.30972 20.8297 7.70594C20.3673 5.98048 19.0196 4.63274 17.2941 4.17041C16.6904 4.00863 15.9244 4.00004 14 4.00004H10C8.07571 4.00004 7.30972 4.00863 6.70594 4.17041C4.98048 4.63274 3.63274 5.98048 3.17041 7.70594C3.00863 8.30972 3.00004 9.07571 3.00004 11C3.00004 11.5523 2.55232 12 2.00004 12C1.44775 12 1.00004 11.5523 1.00004 11L1.00002 10.825C0.999748 9.13265 0.99958 8.08017 1.23856 7.1883C1.88583 4.77266 3.77266 2.88583 6.1883 2.23856C7.08017 1.99958 8.13265 1.99975 9.82501 2.00002Z" fill="currentColor"/>
<path fill-rule="evenodd" clip-rule="evenodd" d="M5.00003 10.8C5.00003 9.11987 5.00003 8.27979 5.32701 7.63806C5.61463 7.07357 6.07357 6.61463 6.63806 6.32701C7.27979 6.00003 8.11987 6.00003 9.80003 6.00003H11V9.56939L10.7105 9.27709C10.3219 8.8847 9.68871 8.88167 9.29632 9.27033C8.90393 9.65898 8.9009 10.2921 9.28956 10.6845L12 13.4211L14.7105 10.6845C15.0992 10.2921 15.0961 9.65898 14.7038 9.27032C14.3114 8.88167 13.6782 8.8847 13.2896 9.27709L13 9.56939V6.00003H14.2C15.8802 6.00003 16.7203 6.00003 17.362 6.32701C17.9265 6.61463 18.3854 7.07357 18.673 7.63806C19 8.27979 19 9.11987 19 10.8V17.2C19 18.8802 19 19.7203 18.673 20.362C18.3854 20.9265 17.9265 21.3854 17.362 21.673C16.7203 22 15.8802 22 14.2 22H9.80003C8.11987 22 7.27979 22 6.63806 21.673C6.07357 21.3854 5.61463 20.9265 5.32701 20.362C5.00003 19.7203 5.00003 18.8802 5.00003 17.2V10.8ZM16 19C16 19.5523 15.5523 20 15 20H9.00004C8.44775 20 8.00004 19.5523 8.00004 19C8.00004 18.4478 8.44775 18 9.00004 18H15C15.5523 18 16 18.4478 16 19Z" fill="currentColor"/>
</svg>
