<svg width="24" height="24" viewBox="0 0 24 24" fill="none" xmlns="http://www.w3.org/2000/svg">
<path d="M19 9C19 13.4183 14.9706 17 10 17C8.70454 17 7.47301 16.7567 6.36008 16.3187C5.59822 17.1284 4.50745 17.7623 2.9644 17.9488C2.61069 17.9916 2.41679 17.5587 2.61274 17.2611C3.27325 16.2581 3.30489 15.2551 3.21096 14.2521C1.8339 12.8468 1 11.01 1 9C1 4.58172 5.02944 1 10 1C14.9706 1 19 4.58172 19 9Z" fill="currentColor"/>
<path d="M21 9C21 14.5228 16.0751 19 10 19C8.79802 19 7.64107 18.8247 6.55837 18.5008C8.17842 20.6131 10.907 22 14 22C15.2955 22 16.527 21.7567 17.6399 21.3187C18.4018 22.1284 19.4925 22.7623 21.0356 22.9488C21.3893 22.9916 21.5832 22.5587 21.3873 22.2611C20.7267 21.2581 20.6951 20.2551 20.789 19.2521C22.1661 17.8468 23 16.01 23 14C23 12.0948 22.2508 10.3452 21 8.97121L21 9Z" fill="currentColor"/>
</svg>
