<svg width="24" height="24" viewBox="0 0 24 24" fill="none" xmlns="http://www.w3.org/2000/svg">
<path fill-rule="evenodd" clip-rule="evenodd" d="M12 22C17.5228 22 22 17.5228 22 12C22 6.47715 17.5228 2 12 2C6.47715 2 2 6.47715 2 12C2 17.5228 6.47715 22 12 22ZM16.2071 10.2071C16.5976 9.81658 16.5976 9.18342 16.2071 8.79289C15.8166 8.40237 15.1834 8.40237 14.7929 8.79289L10.5 13.0858L9.20711 11.7929C8.81658 11.4024 8.18342 11.4024 7.79289 11.7929C7.40237 12.1834 7.40237 12.8166 7.79289 13.2071L10.5 15.9142L16.2071 10.2071Z" fill="currentColor"/>
</svg>
