<svg width="24" height="24" viewBox="0 0 24 24" fill="none" xmlns="http://www.w3.org/2000/svg">
<path fill-rule="evenodd" clip-rule="evenodd" d="M8.85321 18.9475C9.60608 18.9989 10.5748 19 12 19C13.4252 19 14.3939 18.9989 15.1468 18.9475C15.8817 18.8974 16.2637 18.8061 16.5307 18.6955C17.5108 18.2895 18.2895 17.5108 18.6955 16.5307C18.8061 16.2637 18.8974 15.8817 18.9475 15.1468C18.9989 14.3939 19 13.4252 19 12C19 10.5748 18.9989 9.60608 18.9475 8.85321C18.8974 8.1183 18.8061 7.73627 18.6955 7.46927C18.2895 6.48915 17.5108 5.71046 16.5307 5.30448C16.2637 5.19389 15.8817 5.10259 15.1468 5.05245C14.3939 5.00108 13.4252 5 12 5C10.5748 5 9.60608 5.00108 8.85321 5.05245C8.1183 5.10259 7.73627 5.19389 7.46927 5.30448C6.48915 5.71046 5.71046 6.48915 5.30448 7.46927C5.19389 7.73627 5.10259 8.1183 5.05245 8.85321C5.00108 9.60608 5 10.5748 5 12C5 13.4252 5.00108 14.3939 5.05245 15.1468C5.10259 15.8817 5.19389 16.2637 5.30448 16.5307C5.71046 17.5108 6.48915 18.2895 7.46927 18.6955C7.73627 18.8061 8.1183 18.8974 8.85321 18.9475ZM3.45672 6.7039C3 7.80653 3 9.20435 3 12C3 14.7956 3 16.1935 3.45672 17.2961C4.06569 18.7663 5.23373 19.9343 6.7039 20.5433C7.80653 21 9.20435 21 12 21C14.7956 21 16.1935 21 17.2961 20.5433C18.7663 19.9343 19.9343 18.7663 20.5433 17.2961C21 16.1935 21 14.7956 21 12C21 9.20435 21 7.80653 20.5433 6.7039C19.9343 5.23373 18.7663 4.06569 17.2961 3.45672C16.1935 3 14.7956 3 12 3C9.20435 3 7.80653 3 6.7039 3.45672C5.23373 4.06569 4.06569 5.23373 3.45672 6.7039Z" fill="currentColor"/>
<path d="M7 10.2C7 9.07989 7 8.51984 7.21799 8.09202C7.40973 7.71569 7.71569 7.40973 8.09202 7.21799C8.51984 7 9.07989 7 10.2 7H13.8C14.9201 7 15.4802 7 15.908 7.21799C16.2843 7.40973 16.5903 7.71569 16.782 8.09202C17 8.51984 17 9.07989 17 10.2V13.8C17 14.9201 17 15.4802 16.782 15.908C16.5903 16.2843 16.2843 16.5903 15.908 16.782C15.4802 17 14.9201 17 13.8 17H10.2C9.07989 17 8.51984 17 8.09202 16.782C7.71569 16.5903 7.40973 16.2843 7.21799 15.908C7 15.4802 7 14.9201 7 13.8V10.2Z" fill="currentColor"/>
</svg>
