<svg width="24" height="24" viewBox="0 0 24 24" fill="none" xmlns="http://www.w3.org/2000/svg">
<path d="M20 6C20 7.65685 16.4183 9 12 9C7.58172 9 4 7.65685 4 6C4 4.34315 7.58172 3 12 3C16.4183 3 20 4.34315 20 6Z" fill="currentColor"/>
<path d="M12 11C16.4183 11 20 9.65685 20 8V12C20 13.6569 16.4183 15 12 15C7.58172 15 4 13.6569 4 12V8C4 9.65685 7.58172 11 12 11Z" fill="currentColor"/>
<path d="M20 14C20 15.6569 16.4183 17 12 17C7.58172 17 4 15.6569 4 14V18C4 19.6569 7.58172 21 12 21C16.4183 21 20 19.6569 20 18V14Z" fill="currentColor"/>
</svg>
