<svg width="24" height="24" viewBox="0 0 24 24" fill="none" xmlns="http://www.w3.org/2000/svg">
<path d="M11.2571 2.97158C10.8762 3.12404 10.5366 3.46363 9.85742 4.14282C9.17823 4.822 8.83864 5.16159 8.68618 5.5425C8.49523 6.01956 8.49523 6.55182 8.68618 7.02889C8.83864 7.40979 9.17823 7.74938 9.85742 8.42857L11.774 10.3452C11.8532 10.4244 11.8928 10.464 11.9385 10.4788C11.9787 10.4919 12.0219 10.4919 12.0621 10.4788C12.1078 10.464 12.1474 10.4244 12.2266 10.3452L14.1432 8.42857C14.8223 7.74939 15.1619 7.40979 15.3144 7.02889C15.5054 6.55182 15.5054 6.01956 15.3144 5.5425C15.1619 5.16159 14.8223 4.822 14.1432 4.14282C13.464 3.46364 13.1244 3.12404 12.7435 2.97158C12.2664 2.78063 11.7342 2.78063 11.2571 2.97158Z" fill="currentColor"/>
<path d="M16.968 8.68642C16.5871 8.83888 16.2475 9.17848 15.5684 9.85766L13.6518 11.7743C13.5725 11.8535 13.5329 11.8931 13.5181 11.9387C13.5051 11.9789 13.5051 12.0222 13.5181 12.0623C13.5329 12.108 13.5725 12.1476 13.6518 12.2268L15.5684 14.1434C16.2475 14.8226 16.5871 15.1622 16.968 15.3146C17.4451 15.5056 17.9774 15.5056 18.4544 15.3146C18.8353 15.1622 19.1749 14.8226 19.8541 14.1434C20.5333 13.4642 20.8729 13.1246 21.0253 12.7437C21.2163 12.2667 21.2163 11.7344 21.0253 11.2573C20.8729 10.8764 20.5333 10.5368 19.8541 9.85766C19.1749 9.17848 18.8353 8.83888 18.4544 8.68642C17.9774 8.49548 17.4451 8.49548 16.968 8.68642Z" fill="currentColor"/>
<path d="M11.774 13.6549C11.8532 13.5757 11.8928 13.5361 11.9385 13.5213C11.9787 13.5082 12.0219 13.5082 12.0621 13.5213C12.1078 13.5361 12.1474 13.5757 12.2266 13.6549L14.1432 15.5715C14.8223 16.2507 15.1619 16.5903 15.3144 16.9712C15.5054 17.4483 15.5054 17.9805 15.3144 18.4576C15.1619 18.8385 14.8223 19.1781 14.1432 19.8573C13.464 20.5365 13.1244 20.8761 12.7435 21.0285C12.2664 21.2195 11.7342 21.2195 11.2571 21.0285C10.8762 20.8761 10.5366 20.5365 9.85742 19.8573C9.17823 19.1781 8.83864 18.8385 8.68618 18.4576C8.49523 17.9805 8.49523 17.4483 8.68618 16.9712C8.83864 16.5903 9.17823 16.2507 9.85742 15.5715L11.774 13.6549Z" fill="currentColor"/>
<path d="M5.54616 8.68642C5.16525 8.83888 4.82566 9.17848 4.14648 9.85766C3.4673 10.5368 3.1277 10.8764 2.97524 11.2573C2.78429 11.7344 2.78429 12.2667 2.97524 12.7437C3.1277 13.1246 3.4673 13.4642 4.14648 14.1434C4.82566 14.8226 5.16525 15.1622 5.54616 15.3146C6.02322 15.5056 6.55548 15.5056 7.03255 15.3146C7.41345 15.1622 7.75304 14.8226 8.43223 14.1434L10.3488 12.2268C10.428 12.1476 10.4676 12.108 10.4825 12.0623C10.4955 12.0222 10.4955 11.9789 10.4825 11.9387C10.4676 11.8931 10.428 11.8535 10.3488 11.7743L8.43223 9.85766C7.75304 9.17848 7.41345 8.83888 7.03255 8.68642C6.55548 8.49548 6.02322 8.49548 5.54616 8.68642Z" fill="currentColor"/>
</svg>
