<svg width="24" height="24" viewBox="0 0 24 24" fill="none" xmlns="http://www.w3.org/2000/svg">
<path d="M2.99999 9C2.99999 5.68629 5.68628 3 8.99999 3L15.6391 3C15.7962 3 15.892 3.17279 15.8087 3.306L13.6175 6.812C13.5444 6.92895 13.4162 7 13.2783 7H8.99999C7.89542 7 6.99999 7.89543 6.99999 9V13H9.27829C9.59246 13 9.784 13.3456 9.61749 13.612L5.33919 20.4573C5.18252 20.7079 4.81745 20.7079 4.66079 20.4573L0.382485 13.612C0.215973 13.3456 0.40751 13 0.721684 13H2.99999V9Z" fill="currentColor"/>
<path d="M14.3825 10.388C14.216 10.6544 14.4075 11 14.7217 11H17V15C17 16.1046 16.1046 17 15 17H10.7217C10.5838 17 10.4556 17.071 10.3825 17.188L8.19124 20.694C8.10798 20.8272 8.20375 21 8.36084 21H15C18.3137 21 21 18.3137 21 15V11H23.2783C23.5925 11 23.784 10.6544 23.6175 10.388L19.3392 3.54272C19.1825 3.29205 18.8175 3.29205 18.6608 3.54272L14.3825 10.388Z" fill="currentColor"/>
</svg>
