<svg width="24" height="24" viewBox="0 0 24 24" fill="none" xmlns="http://www.w3.org/2000/svg">
<path d="M6.7587 1H12C14.2091 1 16 2.79086 16 5C16 5.55228 15.5523 5.99999 15 5.99999C14.4477 5.99999 14 5.55228 14 4.99999C14 4.99961 14 4.99923 14 4.99886C13.9994 3.89481 13.1042 3 12 3H6.8C5.94342 3 5.36113 3.00078 4.91104 3.03755C4.47262 3.07337 4.24842 3.1383 4.09202 3.21799C3.7157 3.40973 3.40973 3.7157 3.21799 4.09202C3.1383 4.24842 3.07337 4.47262 3.03755 4.91104C3.00078 5.36113 3 5.94342 3 6.8V12C3 13.1046 3.89543 14 5 14C5.55228 14 6 14.4477 6 15C6 15.5523 5.55228 16 5 16C2.79086 16 1 14.2091 1 12V6.75869C0.999988 5.95372 0.999978 5.28937 1.04419 4.74818C1.09012 4.18608 1.18868 3.66937 1.43598 3.18404C1.81947 2.43139 2.43139 1.81947 3.18404 1.43598C3.66937 1.18868 4.18608 1.09012 4.74818 1.04419C5.28937 0.999978 5.95374 0.999988 6.7587 1Z" fill="currentColor"/>
<path d="M8 14.4C8 12.1598 8 11.0397 8.43597 10.184C8.81947 9.43139 9.43139 8.81947 10.184 8.43597C11.0397 8 12.1598 8 14.4 8H16.6C18.8402 8 19.9603 8 20.816 8.43597C21.5686 8.81947 22.1805 9.43139 22.564 10.184C23 11.0397 23 12.1598 23 14.4V16.6C23 18.8402 23 19.9603 22.564 20.816C22.1805 21.5686 21.5686 22.1805 20.816 22.564C19.9603 23 18.8402 23 16.6 23H14.4C12.1598 23 11.0397 23 10.184 22.564C9.43139 22.1805 8.81947 21.5686 8.43597 20.816C8 19.9603 8 18.8402 8 16.6V14.4Z" fill="currentColor"/>
</svg>
