<svg width="24" height="24" viewBox="0 0 24 24" fill="none" xmlns="http://www.w3.org/2000/svg">
<path d="M20.3187 15.5031C20.741 15.212 21.3512 15.5877 21.1429 16.0565C19.587 19.558 16.0787 21.9998 12 21.9998C6.47715 21.9998 2 17.5226 2 11.9998C2 7.92086 4.4421 4.41234 7.94394 2.85656C8.4127 2.6483 8.78838 3.25855 8.49722 3.68085C7.55292 5.05041 7 6.71064 7 8.50001C7 13.1944 10.8056 17 15.5 17C17.2892 17 18.9492 16.4472 20.3187 15.5031Z" fill="currentColor"/>
<path d="M17.3862 3.43454C17.28 3.03987 16.72 3.03987 16.6138 3.43454L15.9992 5.71698C15.9621 5.85464 15.8546 5.96216 15.717 5.99923L13.4345 6.61377C13.0399 6.72003 13.0399 7.27999 13.4345 7.38626L15.717 8.0008C15.8546 8.03786 15.9621 8.14539 15.9992 8.28305L16.6138 10.5655C16.72 10.9602 17.28 10.9602 17.3862 10.5655L18.0008 8.28305C18.0378 8.14539 18.1454 8.03786 18.283 8.0008L20.5655 7.38626C20.9601 7.27999 20.9601 6.72003 20.5655 6.61377L18.283 5.99923C18.1454 5.96216 18.0379 5.85464 18.0008 5.71698L17.3862 3.43454Z" fill="currentColor"/>
</svg>
