<svg width="24" height="24" viewBox="0 0 24 24" fill="none" xmlns="http://www.w3.org/2000/svg">
<path fill-rule="evenodd" clip-rule="evenodd" d="M5 7.8C5 6.11984 5 5.27976 5.32698 4.63803C5.6146 4.07354 6.07354 3.6146 6.63803 3.32698C7.27976 3 8.11984 3 9.8 3H14.2C15.8802 3 16.7202 3 17.362 3.32698C17.9265 3.6146 18.3854 4.07354 18.673 4.63803C19 5.27976 19 6.11984 19 7.8V16.2C19 17.8802 19 18.7202 18.673 19.362C18.3854 19.9265 17.9265 20.3854 17.362 20.673C16.7202 21 15.8802 21 14.2 21H9.8C8.11984 21 7.27976 21 6.63803 20.673C6.07354 20.3854 5.6146 19.9265 5.32698 19.362C5 18.7202 5 17.8802 5 16.2V7.8ZM7 12C7 11.4477 7.44772 11 8 11H16C16.5523 11 17 11.4477 17 12C17 12.5523 16.5523 13 16 13H8C7.44772 13 7 12.5523 7 12ZM8 15C7.44772 15 7 15.4477 7 16C7 16.5523 7.44772 17 8 17H11C11.5523 17 12 16.5523 12 16C12 15.4477 11.5523 15 11 15H8ZM7 8C7 7.44772 7.44772 7 8 7H16C16.5523 7 17 7.44772 17 8C17 8.55228 16.5523 9 16 9H8C7.44772 9 7 8.55228 7 8Z" fill="currentColor"/>
<path d="M3 18V6C1.89543 6 1 6.89543 1 8V16C1 17.1046 1.89543 18 3 18Z" fill="currentColor"/>
<path d="M23 16C23 17.1046 22.1046 18 21 18V6C22.1046 6 23 6.89543 23 8V16Z" fill="currentColor"/>
</svg>
