<svg width="24" height="25" viewBox="0 0 24 25" fill="none" xmlns="http://www.w3.org/2000/svg">
<path fill-rule="evenodd" clip-rule="evenodd" d="M11.5516 0.405916C10.8736 0.0640294 10.1903 -0.075362 9.54484 0.0393101C8.8888 0.155861 8.37326 0.51785 8.0259 0.988574C7.36388 1.88571 7.3004 3.16973 7.79792 4.17506C7.83823 4.2565 7.89283 4.37343 7.96177 4.52107C8.32842 5.30623 9.10073 6.96009 10.286 8.766C9.79943 10.1787 9.152 11.7897 8.35395 13.5959C8.23887 13.6398 8.12399 13.684 8.00945 13.7285C6.45291 14.3328 4.91876 15.0001 3.71625 15.6629C3.11672 15.9934 2.57132 16.338 2.1398 16.69C1.7384 17.0174 1.304 17.4546 1.12369 18.0011C0.826692 18.9013 1.07465 19.8011 1.75884 20.3834C2.40199 20.9307 3.30405 21.0985 4.20544 20.9459C6.03499 20.6362 8.08214 19.0221 9.60367 15.6933C9.68317 15.5194 9.76158 15.3468 9.83889 15.1755C11.6032 14.527 13.3329 13.972 14.5885 13.6113C15.5859 14.4028 16.7039 15.0927 17.9487 15.5955C19.0955 16.0587 20.1942 16.1537 21.0192 15.692C21.4486 15.4517 21.7661 15.0742 21.9122 14.6097C22.0552 14.1549 22.0135 13.6849 21.8567 13.2685C21.2315 11.6085 18.9132 10.612 15.7179 11.2573C15.5435 11.2925 15.3291 11.3422 15.0809 11.405C14.0885 10.5007 13.2278 9.47681 12.4947 8.45194C12.7763 7.55251 12.9923 6.72378 13.1369 5.96929C13.374 4.73188 13.4371 3.60744 13.2242 2.6642C13.0023 1.68094 12.4695 0.868857 11.5516 0.405916ZM11.1726 5.59286C11.1365 5.7815 11.0951 5.97634 11.0485 6.17739C10.4606 5.13947 10.0458 4.25406 9.78447 3.6963C9.70619 3.52922 9.64168 3.39154 9.59043 3.28797C9.39396 2.89098 9.45811 2.41605 9.63517 2.17611C9.70736 2.07829 9.78922 2.02721 9.89468 2.00848C10.0107 1.98786 10.253 1.99097 10.651 2.19168C10.9369 2.33589 11.1566 2.58723 11.2733 3.10447C11.399 3.66173 11.3869 4.47485 11.1726 5.59286ZM10.9289 12.6693C11.2104 11.9935 11.4699 11.3428 11.7061 10.7182C12.0659 11.1633 12.4529 11.6068 12.8678 12.0388C12.2637 12.226 11.6086 12.4383 10.9289 12.6693ZM4.6817 17.4145C5.35166 17.0452 6.15418 16.6647 7.02669 16.2891C5.85809 18.1741 4.63667 18.8444 3.87162 18.9739C3.39159 19.0552 3.13642 18.9295 3.05502 18.8603C3.01466 18.8259 2.97074 18.7861 3.023 18.6277C3.02215 18.6302 3.02266 18.6294 3.02527 18.6252C3.04007 18.6015 3.12227 18.4696 3.40394 18.2398C3.70506 17.9942 4.13517 17.7157 4.6817 17.4145ZM18.6977 13.741C18.2164 13.5466 17.7545 13.3174 17.3118 13.0596C19.2 12.96 19.888 13.7305 19.983 13.9683C19.8395 14.0067 19.4476 14.0439 18.6977 13.741ZM19.9997 14.0326C19.9996 14.0326 19.9996 14.0321 19.9997 14.0309L19.9997 14.0326ZM13.9998 16C14.552 16 14.9998 16.4477 14.9998 17V20.5858L16.2926 19.2929C16.6832 18.9024 17.3163 18.9024 17.7069 19.2929C18.0974 19.6834 18.0974 20.3166 17.7069 20.7071L14.7075 23.7065L14.7062 23.7077L13.9998 24.4142L13.2931 23.7076L13.2922 23.7066L10.2926 20.7071C9.90212 20.3166 9.90212 19.6834 10.2926 19.2929C10.6832 18.9024 11.3163 18.9024 11.7069 19.2929L12.9998 20.5858V17C12.9998 16.4477 13.4475 16 13.9998 16Z" fill="currentColor"/>
</svg>
