<svg width="24" height="24" viewBox="0 0 24 24" fill="none" xmlns="http://www.w3.org/2000/svg">
<path fill-rule="evenodd" clip-rule="evenodd" d="M13 4C13 3.44772 12.5523 3 12 3C11.4477 3 11 3.44772 11 4L11 13.5858L6.70711 9.29289C6.31658 8.90237 5.68342 8.90237 5.29289 9.29289C4.90237 9.68342 4.90237 10.3166 5.29289 10.7071L12 17.4142L18.7071 10.7071C19.0976 10.3166 19.0976 9.68342 18.7071 9.29289C18.3166 8.90237 17.6834 8.90237 17.2929 9.29289L13 13.5858L13 4ZM19 20C19 19.4477 18.5523 19 18 19H6C5.44772 19 5 19.4477 5 20C5 20.5523 5.44772 21 6 21H18C18.5523 21 19 20.5523 19 20Z" fill="currentColor"/>
</svg>
