<svg width="24" height="24" viewBox="0 0 24 24" fill="none" xmlns="http://www.w3.org/2000/svg">
<path fill-rule="evenodd" clip-rule="evenodd" d="M9 5.7774C9 4.47778 9 3.82797 9.26514 3.36573C9.49781 2.9601 9.86526 2.64882 10.3036 2.486C10.8032 2.30045 11.4441 2.40728 12.7261 2.62094L16.9891 3.33145C18.4141 3.56894 19.1265 3.68768 19.6612 4.04323C20.1325 4.35664 20.5055 4.79698 20.7372 5.31339C21 5.89922 21 6.62153 21 8.06614V15.9337C21 17.3783 21 18.1006 20.7372 18.6865C20.5055 19.2029 20.1325 19.6432 19.6612 19.9566C19.1265 20.3122 18.4141 20.4309 16.9891 20.6684L12.7261 21.3789C11.4441 21.5926 10.8032 21.6994 10.3036 21.5139C9.86526 21.351 9.49781 21.0398 9.26514 20.6341C9 20.1719 9 19.5221 9 18.2225V5.7774ZM12 10C11.4477 10 11 10.4477 11 11V13C11 13.5523 11.4477 14 12 14C12.5523 14 13 13.5523 13 13V11C13 10.4477 12.5523 10 12 10Z" fill="currentColor"/>
<path d="M5 5.01912C5.31428 4.99993 5.70173 4.99993 6.2 4.99993H7V18.9999H6.2C5.70173 18.9999 5.31428 18.9999 5 18.9807C4.60779 18.9568 4.32953 18.903 4.09202 18.7819C3.71569 18.5902 3.40973 18.2842 3.21799 17.9079C3 17.4801 3 16.92 3 15.7999V8.19993C3 7.07982 3 6.51977 3.21799 6.09195C3.40973 5.71562 3.71569 5.40966 4.09202 5.21791C4.32953 5.0969 4.60779 5.04306 5 5.01912Z" fill="currentColor"/>
</svg>
