<svg width="24" height="24" viewBox="0 0 24 24" fill="none" xmlns="http://www.w3.org/2000/svg">
<path d="M1.40232 10.8018C1.84493 11.1317 2.47111 11.0405 2.8013 10.5982L2.80485 10.5936C2.80943 10.5876 2.81752 10.5771 2.8291 10.5624C2.85226 10.533 2.88931 10.4868 2.93995 10.4261C3.04131 10.3047 3.1967 10.1261 3.40372 9.90922C3.81858 9.4746 4.43599 8.89141 5.23647 8.30827C6.84088 7.13948 9.13855 6 12 6C14.8614 6 17.1591 7.13948 18.7635 8.30827C19.564 8.89141 20.1814 9.4746 20.5962 9.90922C20.8033 10.1261 20.9586 10.3047 21.06 10.4261C21.1106 10.4868 21.1477 10.533 21.1709 10.5624C21.1824 10.5771 21.1905 10.5876 21.1951 10.5936L21.1982 10.5977L21.1989 10.5986C21.5293 11.0401 22.1553 11.1315 22.5976 10.8018C23.0404 10.4717 23.1318 9.84514 22.8017 9.40235L22 10C22.8017 9.40235 22.802 9.4027 22.8017 9.40235L22.8006 9.40085L22.7992 9.3989L22.7952 9.39363L22.7831 9.37773C22.7732 9.36478 22.7596 9.3472 22.7423 9.32528C22.7078 9.28146 22.6587 9.22027 22.5951 9.1442C22.4682 8.99214 22.2834 8.78015 22.043 8.52828C21.5629 8.0254 20.8565 7.35859 19.9411 6.69173C18.1137 5.36051 15.4114 4 12 4C8.58855 4 5.88623 5.36051 4.05885 6.69173C3.14344 7.35859 2.437 8.0254 1.95699 8.52828C1.71658 8.78015 1.53178 8.99214 1.4048 9.1442C1.34128 9.22027 1.29213 9.28146 1.25763 9.32528C1.24038 9.3472 1.22678 9.36478 1.21687 9.37773L1.20477 9.39363L1.2008 9.3989L1.19934 9.40085L1.19874 9.40166C1.19847 9.40201 1.19822 9.40235 1.99998 10L1.19874 9.40166C0.868661 9.84446 0.959526 10.4717 1.40232 10.8018Z" fill="currentColor"/>
<path d="M17 14C17 16.7614 14.7614 19 12 19C9.23855 19 6.99998 16.7614 6.99998 14C6.99998 11.2386 9.23855 9 12 9C12.5263 9 13.0336 9.08132 13.51 9.23207C13.6618 9.28009 13.6876 9.4824 13.5759 9.59574C13.2198 9.95686 13 10.4528 13 11C13 12.1046 13.8954 13 15 13C15.5472 13 16.0431 12.7802 16.4042 12.4241C16.5176 12.3123 16.7199 12.3382 16.7679 12.49C16.9187 12.9664 17 13.4737 17 14Z" fill="currentColor"/>
</svg>
