<svg width="24" height="24" viewBox="0 0 24 24" fill="none" xmlns="http://www.w3.org/2000/svg">
<path d="M4.70714 3.29289C4.31662 2.90237 3.68345 2.90237 3.29293 3.29289C2.90241 3.68342 2.90241 4.31658 3.29293 4.70711L19.2929 20.7071C19.6835 21.0976 20.3166 21.0976 20.7071 20.7071C21.0977 20.3166 21.0977 19.6834 20.7071 19.2929L16.8043 15.3901C16.9318 14.9488 17.0001 14.4824 17.0001 14C17.0001 11.2386 14.7615 9 12.0001 9C11.5177 9 11.0513 9.0683 10.61 9.19577L8.13475 6.7205C9.27034 6.28692 10.5642 6 12.0001 6C14.8615 6 17.1592 7.13948 18.7636 8.30827C19.5641 8.89141 20.1815 9.47459 20.5964 9.90922C20.8034 10.1261 20.9588 10.3047 21.0601 10.4261C21.1108 10.4868 21.1478 10.533 21.171 10.5624C21.1826 10.5771 21.1906 10.5876 21.1952 10.5936L21.1983 10.5977L21.199 10.5986C21.5294 11.0401 22.1554 11.1315 22.5977 10.8018C23.0405 10.4717 23.1319 9.84514 22.8019 9.40235L22.0001 10C22.8019 9.40235 22.8021 9.4027 22.8019 9.40235L22.8007 9.40085L22.7993 9.3989L22.7953 9.39363L22.7832 9.37773C22.7733 9.36478 22.7597 9.3472 22.7424 9.32528C22.7079 9.28146 22.6588 9.22027 22.5953 9.1442C22.4683 8.99214 22.2835 8.78015 22.0431 8.52828C21.5631 8.0254 20.8566 7.35859 19.9412 6.69173C18.1138 5.36051 15.4115 4 12.0001 4C9.92888 4 8.11906 4.50151 6.60774 5.19349L4.70714 3.29289Z" fill="currentColor"/>
<path d="M1.40245 10.8018C1.84505 11.1317 2.47124 11.0405 2.80142 10.5982L2.80497 10.5936C2.80955 10.5876 2.81764 10.5771 2.82922 10.5624C2.85238 10.533 2.88943 10.4868 2.94008 10.4261C3.04143 10.3047 3.19682 10.1261 3.40384 9.90922C3.70971 9.58878 4.12567 9.18759 4.64392 8.76521L3.22331 7.34459C2.70289 7.77994 2.27907 8.19099 1.95712 8.52828C1.7167 8.78015 1.5319 8.99214 1.40493 9.1442C1.34141 9.22027 1.29226 9.28146 1.25776 9.32528C1.2405 9.3472 1.2269 9.36478 1.21699 9.37773L1.20489 9.39363L1.20092 9.3989L1.19946 9.40085L1.19886 9.40166C1.19859 9.40201 1.19834 9.40235 2.0001 10L1.19886 9.40166C0.868783 9.84445 0.959648 10.4717 1.40245 10.8018Z" fill="currentColor"/>
<path d="M7.0001 14C7.0001 13.1656 7.2045 12.3789 7.56597 11.6873L14.3128 18.4341C13.6212 18.7956 12.8345 19 12.0001 19C9.23867 19 7.0001 16.7614 7.0001 14Z" fill="currentColor"/>
</svg>
