<svg width="24" height="24" viewBox="0 0 24 24" fill="none" xmlns="http://www.w3.org/2000/svg">
<path fill-rule="evenodd" clip-rule="evenodd" d="M12 8.99988C12.5523 8.99988 13 9.44759 13 9.99988V12.3999C13 13.2835 12.2837 13.9999 11.4 13.9999H11C10.4477 13.9999 10 13.5522 10 12.9999C10 12.4476 10.4477 11.9999 11 11.9999V9.99988C11 9.44759 11.4477 8.99988 12 8.99988Z" fill="currentColor"/>
<path fill-rule="evenodd" clip-rule="evenodd" d="M7.14434 15.4823C7.42946 15.0109 8.04193 14.8591 8.51403 15.1421L8.51925 15.1451C8.52591 15.149 8.53857 15.1562 8.55698 15.1663C8.59384 15.1866 8.65359 15.2183 8.73439 15.2578C8.89626 15.337 9.14084 15.4465 9.45352 15.5571C10.0814 15.7793 10.9669 15.9999 12 15.9999C13.0331 15.9999 13.9186 15.7793 14.5465 15.5571C14.8592 15.4465 15.1037 15.337 15.2656 15.2578C15.3464 15.2183 15.4062 15.1866 15.443 15.1663C15.4614 15.1562 15.4741 15.149 15.4808 15.1451L15.486 15.1421C15.9581 14.8591 16.5705 15.0109 16.8557 15.4823C17.1415 15.9549 16.9901 16.5697 16.5175 16.8555L16.5164 16.8562L16.5151 16.857L16.5121 16.8588L16.5042 16.8635L16.481 16.8771C16.4623 16.8879 16.4371 16.9021 16.4057 16.9194C16.343 16.9538 16.2553 17.0002 16.1444 17.0544C15.9229 17.1628 15.6075 17.3032 15.2135 17.4426C14.4281 17.7205 13.3135 17.9999 12 17.9999C10.6865 17.9999 9.57195 17.7205 8.78648 17.4426C8.3925 17.3032 8.07708 17.1628 7.85562 17.0544C7.74475 17.0002 7.657 16.9538 7.59427 16.9194C7.56289 16.9021 7.53774 16.8879 7.51903 16.8771L7.49584 16.8635L7.48791 16.8588L7.48488 16.857L7.48359 16.8562L7.48247 16.8555C7.0099 16.5697 6.85851 15.9549 7.14434 15.4823Z" fill="currentColor"/>
<path fill-rule="evenodd" clip-rule="evenodd" d="M8 6.99988C8.55229 6.99988 9 7.4476 9 7.99988V9.99988C9 10.5522 8.55229 10.9999 8 10.9999C7.44772 10.9999 7 10.5522 7 9.99988V7.99988C7 7.4476 7.44772 6.99988 8 6.99988Z" fill="currentColor"/>
<path fill-rule="evenodd" clip-rule="evenodd" d="M16 6.99988C16.5523 6.99988 17 7.4476 17 7.99988V9.99988C17 10.5522 16.5523 10.9999 16 10.9999C15.4477 10.9999 15 10.5522 15 9.99988V7.99988C15 7.4476 15.4477 6.99988 16 6.99988Z" fill="currentColor"/>
<path fill-rule="evenodd" clip-rule="evenodd" d="M2 14.9999C2.55229 14.9999 3 15.4476 3 15.9999V18.7999C3 19.3764 3.00078 19.7487 3.02393 20.032C3.04612 20.3037 3.0838 20.4044 3.109 20.4539C3.20487 20.642 3.35785 20.795 3.54601 20.8909C3.59546 20.9161 3.69617 20.9538 3.96784 20.976C4.25117 20.9991 4.62345 20.9999 5.2 20.9999H8C8.55229 20.9999 9 21.4476 9 21.9999C9 22.5522 8.55229 22.9999 8 22.9999H5.16146C4.63431 22.9999 4.17955 22.9999 3.80497 22.9693C3.40963 22.937 3.01641 22.8657 2.63803 22.6729C2.07354 22.3853 1.6146 21.9263 1.32698 21.3619C1.13419 20.9835 1.06287 20.5903 1.03057 20.1949C0.999967 19.8203 0.999983 19.3656 1 18.8384L1 15.9999C1 15.4476 1.44772 14.9999 2 14.9999Z" fill="currentColor"/>
<path fill-rule="evenodd" clip-rule="evenodd" d="M2 8.99988C2.55229 8.99988 3 8.55216 3 7.99988V5.19988C3 4.62333 3.00078 4.25105 3.02393 3.96772C3.04612 3.69605 3.0838 3.59533 3.109 3.54589C3.20487 3.35773 3.35785 3.20475 3.54601 3.10887C3.59546 3.08368 3.69617 3.046 3.96784 3.02381C4.25117 3.00066 4.62345 2.99988 5.2 2.99988H8C8.55229 2.99988 9 2.55216 9 1.99988C9 1.4476 8.55229 0.99988 8 0.99988L5.16146 0.999879C4.63431 0.999861 4.17955 0.999845 3.80497 1.03045C3.40963 1.06275 3.01641 1.13407 2.63803 1.32686C2.07354 1.61448 1.6146 2.07342 1.32698 2.63791C1.13419 3.01629 1.06287 3.40951 1.03057 3.80485C0.999967 4.17942 0.999983 4.63419 1 5.16134L1 7.99988C1 8.55216 1.44772 8.99988 2 8.99988Z" fill="currentColor"/>
<path fill-rule="evenodd" clip-rule="evenodd" d="M22 14.9999C21.4477 14.9999 21 15.4476 21 15.9999V18.7999C21 19.3764 20.9992 19.7487 20.9761 20.032C20.9539 20.3037 20.9162 20.4044 20.891 20.4539C20.7951 20.642 20.6422 20.795 20.454 20.8909C20.4045 20.9161 20.3038 20.9538 20.0322 20.976C19.7488 20.9991 19.3766 20.9999 18.8 20.9999H16C15.4477 20.9999 15 21.4476 15 21.9999C15 22.5522 15.4477 22.9999 16 22.9999H18.8385C19.3657 22.9999 19.8205 22.9999 20.195 22.9693C20.5904 22.937 20.9836 22.8657 21.362 22.6729C21.9265 22.3853 22.3854 21.9263 22.673 21.3619C22.8658 20.9835 22.9371 20.5903 22.9694 20.1949C23 19.8203 23 19.3656 23 18.8384V15.9999C23 15.4476 22.5523 14.9999 22 14.9999Z" fill="currentColor"/>
<path fill-rule="evenodd" clip-rule="evenodd" d="M22 8.99988C21.4477 8.99988 21 8.55216 21 7.99988V5.19988C21 4.62333 20.9992 4.25105 20.9761 3.96772C20.9539 3.69605 20.9162 3.59533 20.891 3.54589C20.7951 3.35773 20.6422 3.20475 20.454 3.10887C20.4045 3.08368 20.3038 3.046 20.0322 3.02381C19.7488 3.00066 19.3766 2.99988 18.8 2.99988H16C15.4477 2.99988 15 2.55216 15 1.99988C15 1.4476 15.4477 0.99988 16 0.99988L18.8385 0.999879C19.3657 0.999861 19.8205 0.999845 20.195 1.03045C20.5904 1.06275 20.9836 1.13407 21.362 1.32686C21.9265 1.61448 22.3854 2.07342 22.673 2.63791C22.8658 3.01629 22.9371 3.40951 22.9694 3.80485C23 4.17942 23 4.63419 23 5.16134V7.99988C23 8.55216 22.5523 8.99988 22 8.99988Z" fill="currentColor"/>
</svg>
