<svg width="24" height="24" viewBox="0 0 24 24" fill="none" xmlns="http://www.w3.org/2000/svg">
<path d="M8.5989 15.4065C8.50674 15.4391 8.4102 15.4392 8.32322 15.4127L5.67184 3.48155C5.70916 3.45168 5.75287 3.42862 5.80186 3.41471C7.47148 2.94054 9.32001 3.13347 11.1687 3.32642C14.1173 3.63417 17.0663 3.94196 19.2901 1.54285C19.4138 1.40935 19.6432 1.48318 19.6503 1.66506C19.7038 3.02353 19.7464 6.76386 18.7359 8.82806C18.6843 8.9335 18.6752 9.05521 18.722 9.16287C19.5969 11.1747 21.8602 12.5223 22.5792 12.9103C22.6925 12.9714 22.7245 13.1225 22.6406 13.2201C20.3972 15.8289 17.3717 15.5132 14.3461 15.1975C12.3562 14.9898 10.3663 14.7821 8.5989 15.4065Z" fill="currentColor"/>
<path d="M3.97616 2.78307C3.85635 2.24394 3.32217 1.90401 2.78304 2.02381C2.24391 2.14362 1.90398 2.6778 2.02378 3.21693L6.02378 21.2169C6.14359 21.7561 6.67777 22.096 7.2169 21.9762C7.75603 21.8564 8.09596 21.3222 7.97616 20.7831L3.97616 2.78307Z" fill="currentColor"/>
</svg>
