<svg width="24" height="24" viewBox="0 0 24 24" fill="none" xmlns="http://www.w3.org/2000/svg">
<path d="M11.2208 2.49706C11.595 2.0708 11.8635 2 12 2C12.1365 2 12.405 2.0708 12.7792 2.49706C13.1533 2.92312 13.5413 3.60828 13.8886 4.56357C14.1005 5.14631 14.2884 5.80481 14.4466 6.52468C14.5006 6.77039 14.3112 7 14.0596 7H9.94036C9.68879 7 9.4994 6.77039 9.5534 6.52468C9.71162 5.80481 9.89946 5.14631 10.1114 4.56357C10.4587 3.60827 10.8467 2.92312 11.2208 2.49706Z" fill="currentColor"/>
<path d="M8.41114 3.41419C8.54697 3.08094 8.2311 2.72754 7.90288 2.87514C6.19564 3.64289 4.74277 4.87569 3.70561 6.41221C3.53325 6.66755 3.72324 7 4.03131 7H7.08552C7.27947 7 7.44509 6.86077 7.4817 6.67031C7.67651 5.65689 7.92799 4.71549 8.23178 3.88008C8.28947 3.72144 8.34925 3.56604 8.41114 3.41419Z" fill="currentColor"/>
<path d="M2.75144 9C2.57669 9 2.42138 9.11321 2.37398 9.2814C2.13034 10.1458 2 11.0577 2 12C2 12.9423 2.13034 13.8542 2.37398 14.7186C2.42138 14.8868 2.57669 15 2.75144 15H6.70478C6.94134 15 7.126 14.7958 7.10619 14.5601C7.03568 13.7209 7 12.8622 7 12C7 11.1378 7.03568 10.2791 7.10619 9.43988C7.126 9.20415 6.94134 9 6.70478 9H2.75144Z" fill="currentColor"/>
<path d="M4.03131 17C3.72324 17 3.53325 17.3324 3.70561 17.5878C4.74277 19.1243 6.19564 20.3571 7.90288 21.1249C8.23109 21.2725 8.54697 20.9191 8.41114 20.5858C8.34925 20.434 8.28947 20.2786 8.23178 20.1199C7.92799 19.2845 7.67651 18.3431 7.4817 17.3297C7.44509 17.1392 7.27947 17 7.08552 17H4.03131Z" fill="currentColor"/>
<path d="M15.5889 20.5858C15.453 20.9191 15.7689 21.2725 16.0971 21.1249C17.8044 20.3571 19.2572 19.1243 20.2944 17.5878C20.4667 17.3324 20.2768 17 19.9687 17H16.9145C16.7205 17 16.5549 17.1392 16.5183 17.3297C16.3235 18.3431 16.072 19.2845 15.7682 20.1199C15.7105 20.2786 15.6508 20.434 15.5889 20.5858Z" fill="currentColor"/>
<path d="M21.2486 15C21.4233 15 21.5786 14.8868 21.626 14.7186C21.8697 13.8542 22 12.9423 22 12C22 11.0577 21.8697 10.1458 21.626 9.2814C21.5786 9.11321 21.4233 9 21.2486 9H17.2952C17.0587 9 16.874 9.20415 16.8938 9.43988C16.9643 10.2791 17 11.1378 17 12C17 12.8622 16.9643 13.7209 16.8938 14.5601C16.874 14.7958 17.0587 15 17.2952 15H21.2486Z" fill="currentColor"/>
<path d="M19.9687 7C20.2768 7 20.4667 6.66755 20.2944 6.41221C19.2572 4.87569 17.8044 3.64289 16.0971 2.87514C15.7689 2.72754 15.453 3.08094 15.5889 3.41419C15.6508 3.56604 15.7105 3.72144 15.7682 3.88008C16.072 4.7155 16.3235 5.65689 16.5183 6.67031C16.5549 6.86077 16.7205 7 16.9145 7H19.9687Z" fill="currentColor"/>
<path d="M12 22C11.8635 22 11.595 21.9292 11.2208 21.5029C10.8467 21.0769 10.4587 20.3917 10.1114 19.4364C9.89946 18.8537 9.71162 18.1952 9.5534 17.4753C9.4994 17.2296 9.68879 17 9.94037 17H14.0596C14.3112 17 14.5006 17.2296 14.4466 17.4753C14.2884 18.1952 14.1005 18.8537 13.8886 19.4364C13.5413 20.3917 13.1533 21.0769 12.7792 21.5029C12.405 21.9292 12.1365 22 12 22Z" fill="currentColor"/>
<path d="M9 12C9 12.8951 9.04108 13.7829 9.12131 14.6423C9.14031 14.8459 9.31217 15 9.5166 15H14.4834C14.6878 15 14.8597 14.8459 14.8787 14.6423C14.9589 13.7829 15 12.8951 15 12C15 11.1049 14.9589 10.2171 14.8787 9.35767C14.8597 9.15412 14.6878 9 14.4834 9H9.5166C9.31217 9 9.14031 9.15412 9.12131 9.35767C9.04108 10.2171 9 11.1049 9 12Z" fill="currentColor"/>
</svg>
