<svg width="24" height="24" viewBox="0 0 24 24" fill="none" xmlns="http://www.w3.org/2000/svg">
<path fill-rule="evenodd" clip-rule="evenodd" d="M10.5 3.5C10.5 3.03406 10.5 2.80109 10.5761 2.61732C10.6776 2.37229 10.8723 2.17761 11.1173 2.07612C11.3011 2 11.5341 2 12 2C12.4659 2 12.6989 2 12.8827 2.07612C13.1277 2.17761 13.3224 2.37229 13.4239 2.61732C13.5 2.80109 13.5 3.03406 13.5 3.5V4L16 4.0001V3.5C16 3.03406 16 2.80109 16.0761 2.61732C16.1776 2.37229 16.3723 2.17761 16.6173 2.07612C16.8011 2 17.0341 2 17.5 2C17.9659 2 18.1989 2 18.3827 2.07612C18.6277 2.17761 18.8224 2.37229 18.9239 2.61732C19 2.80109 19 3.03406 19 3.5V4.15933C19.3067 4.22285 19.5721 4.3117 19.816 4.43597C20.5686 4.81947 21.1805 5.43139 21.564 6.18404C22 7.03968 22 8.15979 22 10.4V15.6C22 17.8402 22 18.9603 21.564 19.816C21.1805 20.5686 20.5686 21.1805 19.816 21.564C18.9603 22 17.8402 22 15.6 22H8.4C6.15979 22 5.03969 22 4.18404 21.564C3.43139 21.1805 2.81947 20.5686 2.43597 19.816C2 18.9603 2 17.8402 2 15.6V10.4C2 8.15979 2 7.03968 2.43597 6.18404C2.81947 5.43139 3.43139 4.81947 4.18404 4.43597C4.42793 4.3117 4.69332 4.22285 5 4.15933V3.5C5 3.03406 5 2.80109 5.07612 2.61732C5.17761 2.37229 5.37229 2.17761 5.61732 2.07612C5.80109 2 6.03406 2 6.5 2C6.96594 2 7.19891 2 7.38268 2.07612C7.62771 2.17761 7.82239 2.37229 7.92388 2.61732C8 2.80109 8 3.03406 8 3.5V4.0001L10.5 4V3.5ZM18 9.99988C19.1046 9.99988 20 10.8953 20 11.9999C20 13.1044 19.1046 13.9999 18 13.9999H6C4.89543 13.9999 4 13.1044 4 11.9999C4 10.8953 4.89543 9.99988 6 9.99988H18ZM20 17.9999C20 16.8953 19.1046 15.9999 18 15.9999H6C4.89543 15.9999 4 16.8953 4 17.9999C4 19.1044 4.89543 19.9999 6 19.9999H18C19.1046 19.9999 20 19.1044 20 17.9999Z" fill="currentColor"/>
</svg>
