<svg width="24" height="24" viewBox="0 0 24 24" fill="none" xmlns="http://www.w3.org/2000/svg">
<path d="M14.6734 17.99L13.0651 20.4025C12.709 20.9366 12.5309 21.2037 12.3065 21.2967C12.1103 21.3781 11.8898 21.3781 11.6936 21.2967C11.4692 21.2037 11.2911 20.9366 10.935 20.4025L9.32671 17.99C8.89575 17.3436 8.68026 17.0203 8.69627 16.7523C8.71021 16.5188 8.82565 16.3031 9.0122 16.162C9.22634 16 9.6148 16 10.3917 16H13.6083C14.3853 16 14.7737 16 14.9879 16.162C15.1744 16.3031 15.2899 16.5188 15.3038 16.7523C15.3198 17.0203 15.1043 17.3436 14.6734 17.99Z" fill="currentColor"/>
<path d="M9.32671 6.00997L10.935 3.59753C11.2911 3.06338 11.4692 2.7963 11.6936 2.70324C11.8898 2.62187 12.1103 2.62187 12.3065 2.70324C12.5309 2.7963 12.709 3.06338 13.0651 3.59753L14.6734 6.00997C15.1043 6.65642 15.3198 6.97964 15.3038 7.24767C15.2899 7.48117 15.1744 7.69688 14.9879 7.838C14.7737 7.99999 14.3853 7.99999 13.6083 7.99999H10.3917C9.6148 7.99999 9.22634 7.99999 9.0122 7.838C8.82565 7.69688 8.71021 7.48117 8.69627 7.24767C8.68026 6.97964 8.89574 6.65642 9.32671 6.00997Z" fill="currentColor"/>
</svg>
