<svg width="24" height="24" viewBox="0 0 24 24" fill="none" xmlns="http://www.w3.org/2000/svg">
<path fill-rule="evenodd" clip-rule="evenodd" d="M2.18958 9.04787C2 9.64153 2 10.3022 2 11.6236V15.6C2 17.8402 2 18.9603 2.43597 19.8159C2.81947 20.5686 3.43139 21.1805 4.18404 21.564C5.03969 22 6.15979 22 8.4 22H15.6C17.8402 22 18.9603 22 19.816 21.564C20.5686 21.1805 21.1805 20.5686 21.564 19.8159C22 18.9603 22 17.8402 22 15.6V11.6236C22 10.3022 22 9.64153 21.8104 9.04787C21.6426 8.52252 21.3681 8.03754 21.0039 7.62339C20.5924 7.15539 20.0258 6.81547 18.8928 6.13563L14.4696 3.48171C13.5717 2.94297 13.1227 2.6736 12.6435 2.56836C12.2195 2.47526 11.7805 2.47526 11.3565 2.56836C10.8773 2.6736 10.4283 2.94297 9.53042 3.48171L5.10723 6.13563C3.97416 6.81547 3.40763 7.15539 2.99611 7.62339C2.63195 8.03754 2.35736 8.52252 2.18958 9.04787ZM9.59548 15.1966C9.1518 14.8677 8.52551 14.9608 8.19663 15.4045C7.86776 15.8482 7.96083 16.4745 8.40452 16.8033C9.41761 17.5543 10.6585 18 12 18C13.3415 18 14.5824 17.5543 15.5955 16.8033C16.0392 16.4745 16.1322 15.8482 15.8034 15.4045C15.4745 14.9608 14.8482 14.8677 14.4045 15.1966C13.7169 15.7063 12.8894 16 12 16C11.1106 16 10.2831 15.7063 9.59548 15.1966Z" fill="currentColor"/>
</svg>
