<svg width="24" height="24" viewBox="0 0 24 24" fill="none" xmlns="http://www.w3.org/2000/svg">
<path fill-rule="evenodd" clip-rule="evenodd" d="M12 22C17.5228 22 22 17.5228 22 12C22 6.47715 17.5228 2 12 2C6.47715 2 2 6.47715 2 12C2 17.5228 6.47715 22 12 22ZM13.5 7.5C13.5 6.67157 12.8284 6 12 6C11.1716 6 10.5 6.67157 10.5 7.5C10.5 8.32843 11.1716 9 12 9C12.8284 9 13.5 8.32843 13.5 7.5ZM10 17C10 17.5523 10.4477 18 11 18H13C13.5523 18 14 17.5523 14 17C14 16.4477 13.5523 16 13 16V13V10H11C10.4477 10 10 10.4477 10 11C10 11.5523 10.4477 12 11 12V16C10.4477 16 10 16.4477 10 17Z" fill="currentColor"/>
</svg>
