<svg width="24" height="24" viewBox="0 0 24 24" fill="none" xmlns="http://www.w3.org/2000/svg">
<path fill-rule="evenodd" clip-rule="evenodd" d="M2.00008 6.3C2.00008 4.61984 2.00008 3.77976 2.32706 3.13803C2.61468 2.57354 3.07362 2.1146 3.63811 1.82698C4.27984 1.5 5.11992 1.5 6.80008 1.5H17.2001C18.8802 1.5 19.7203 1.5 20.3621 1.82698C20.9265 2.1146 21.3855 2.57354 21.6731 3.13803C22.0001 3.77976 22.0001 4.61984 22.0001 6.3V10.7C22.0001 12.3802 22.0001 13.2202 21.6731 13.862C21.3855 14.4265 20.9265 14.8854 20.3621 15.173C19.7203 15.5 18.8802 15.5 17.2001 15.5H6.80008C5.11992 15.5 4.27984 15.5 3.63811 15.173C3.07362 14.8854 2.61468 14.4265 2.32706 13.862C2.00008 13.2202 2.00008 12.3802 2.00008 10.7V6.3ZM13 4.5C13 5.05228 12.5523 5.5 12 5.5C11.4477 5.5 11 5.05228 11 4.5C11 3.94772 11.4477 3.5 12 3.5C12.5523 3.5 13 3.94772 13 4.5Z" fill="currentColor"/>
<path fill-rule="evenodd" clip-rule="evenodd" d="M1.12416 19.1278C1.3079 18.5765 1.39977 18.3009 1.52567 18.069C1.96139 17.2661 2.73914 16.7056 3.63855 16.5461C3.89843 16.5 4.18895 16.5 4.77 16.5H19.2302C19.8112 16.5 20.1017 16.5 20.3616 16.5461C21.261 16.7056 22.0388 17.2661 22.4745 18.069C22.6004 18.3009 22.6922 18.5765 22.8759 19.1276C23.0967 19.7899 23.2072 20.1213 23.2221 20.3884C23.2748 21.3308 22.6615 22.1817 21.7508 22.4297C21.4927 22.5 21.1436 22.5 20.4454 22.5H3.55472C2.85653 22.5 2.50743 22.5 2.24934 22.4297C1.33868 22.1817 0.725383 21.3308 0.778049 20.3884C0.792975 20.1213 0.903386 19.7901 1.12416 19.1278ZM10 19.5C9.44772 19.5 9 19.9477 9 20.5C9 21.0523 9.44772 21.5 10 21.5H14C14.5523 21.5 15 21.0523 15 20.5C15 19.9477 14.5523 19.5 14 19.5H10Z" fill="currentColor"/>
</svg>
