<svg width="24" height="24" viewBox="0 0 24 24" fill="none" xmlns="http://www.w3.org/2000/svg">
<path d="M12 1C12.5523 1 13 1.44772 13 2V4C13 4.55228 12.5523 5 12 5C11.4477 5 11 4.55228 11 4V2C11 1.44772 11.4477 1 12 1Z" fill="currentColor"/>
<path d="M17 12C17 14.7614 14.7614 17 12 17C9.23858 17 7 14.7614 7 12C7 9.23858 9.23858 7 12 7C14.7614 7 17 9.23858 17 12Z" fill="currentColor"/>
<path d="M13 20C13 19.4477 12.5523 19 12 19C11.4477 19 11 19.4477 11 20V22C11 22.5523 11.4477 23 12 23C12.5523 23 13 22.5523 13 22V20Z" fill="currentColor"/>
<path d="M23 12C23 12.5523 22.5523 13 22 13H20C19.4477 13 19 12.5523 19 12C19 11.4477 19.4477 11 20 11H22C22.5523 11 23 11.4477 23 12Z" fill="currentColor"/>
<path d="M4 13C4.55228 13 5 12.5523 5 12C5 11.4477 4.55228 11 4 11H2C1.44772 11 1 11.4477 1 12C1 12.5523 1.44772 13 2 13H4Z" fill="currentColor"/>
<path d="M4.22258 4.2216C4.6131 3.83108 5.24627 3.83108 5.63679 4.2216L7.05101 5.63582C7.44153 6.02634 7.44153 6.65951 7.05101 7.05003C6.66048 7.44056 6.02732 7.44056 5.63679 7.05003L4.22258 5.63582C3.83206 5.24529 3.83206 4.61213 4.22258 4.2216Z" fill="currentColor"/>
<path d="M18.3634 16.9501C17.9728 16.5596 17.3397 16.5596 16.9491 16.9501C16.5586 17.3406 16.5586 17.9738 16.9491 18.3643L18.3634 19.7785C18.7539 20.1691 19.387 20.1691 19.7776 19.7785C20.1681 19.388 20.1681 18.7549 19.7776 18.3643L18.3634 16.9501Z" fill="currentColor"/>
<path d="M19.7774 4.2216C20.1679 4.61213 20.1679 5.24529 19.7774 5.63582L18.3632 7.05003C17.9727 7.44056 17.3395 7.44056 16.949 7.05003C16.5585 6.65951 16.5585 6.02634 16.949 5.63582L18.3632 4.2216C18.7537 3.83108 19.3869 3.83108 19.7774 4.2216Z" fill="currentColor"/>
<path d="M7.05086 18.3643C7.44138 17.9738 7.44138 17.3406 7.05086 16.9501C6.66033 16.5596 6.02717 16.5596 5.63664 16.9501L4.22243 18.3643C3.83191 18.7549 3.83191 19.388 4.22243 19.7785C4.61295 20.1691 5.24612 20.1691 5.63664 19.7785L7.05086 18.3643Z" fill="currentColor"/>
</svg>
