<svg width="24" height="24" viewBox="0 0 24 24" fill="none" xmlns="http://www.w3.org/2000/svg">
<path d="M9 8.50012C7.067 8.50012 5.5 10.0671 5.5 12.0001C5.5 13.9331 7.067 15.5001 9 15.5001H10C10.5523 15.5001 11 15.9478 11 16.5001V17.5001C11 18.0524 10.5523 18.5001 10 18.5001H9C5.41015 18.5001 2.5 15.59 2.5 12.0001C2.5 8.41027 5.41015 5.50012 9 5.50012H10C10.5523 5.50012 11 5.94784 11 6.50012V7.50012C11 8.05241 10.5523 8.50012 10 8.50012H9Z" fill="currentColor"/>
<path d="M7.49991 12.0001C7.49991 11.1716 8.17148 10.5001 8.99991 10.5001H14.9999C15.8283 10.5001 16.4999 11.1716 16.4999 12.0001C16.4999 12.8285 15.8283 13.5001 14.9999 13.5001H8.99991C8.17148 13.5001 7.49991 12.8285 7.49991 12.0001Z" fill="currentColor"/>
<path d="M15 8.50012C16.933 8.50012 18.5 10.0671 18.5 12.0001C18.5 13.9331 16.933 15.5001 15 15.5001H14C13.4477 15.5001 13 15.9478 13 16.5001V17.5001C13 18.0524 13.4477 18.5001 14 18.5001H15C18.5899 18.5001 21.5 15.59 21.5 12.0001C21.5 8.41027 18.5899 5.50012 15 5.50012H14C13.4477 5.50012 13 5.94784 13 6.50012V7.50012C13 8.05241 13.4477 8.50012 14 8.50012H15Z" fill="currentColor"/>
</svg>
