<svg width="24" height="24" viewBox="0 0 24 24" fill="none" xmlns="http://www.w3.org/2000/svg">
<path fill-rule="evenodd" clip-rule="evenodd" d="M6 10.0192C5.60779 10.0431 5.32953 10.097 5.09202 10.218C4.71569 10.4097 4.40973 10.7157 4.21799 11.092C4 11.5198 4 12.0799 4 13.2V18.8C4 19.9201 4 20.4802 4.21799 20.908C4.40973 21.2843 4.71569 21.5903 5.09202 21.782C5.51984 22 6.0799 22 7.2 22H16.8C17.9201 22 18.4802 22 18.908 21.782C19.2843 21.5903 19.5903 21.2843 19.782 20.908C20 20.4802 20 19.9201 20 18.8V13.2C20 12.0799 20 11.5198 19.782 11.092C19.5903 10.7157 19.2843 10.4097 18.908 10.218C18.6705 10.097 18.3922 10.0431 18 10.0192V8C18 4.68629 15.3137 2 12 2C8.68629 2 6 4.68629 6 8V10.0192ZM8 10H16V8C16 5.79086 14.2091 4 12 4C9.79086 4 8 5.79086 8 8V10Z" fill="currentColor"/>
</svg>
