<svg width="24" height="24" viewBox="0 0 24 24" fill="none" xmlns="http://www.w3.org/2000/svg">
<path fill-rule="evenodd" clip-rule="evenodd" d="M12.3998 2H15.5998C17.84 2 18.9601 2 19.8157 2.43597C20.5684 2.81947 21.1803 3.43139 21.5638 4.18404C21.9998 5.03969 21.9998 6.15979 21.9998 8.4V15.6C21.9998 17.8402 21.9998 18.9603 21.5638 19.816C21.1803 20.5686 20.5684 21.1805 19.8157 21.564C18.9601 22 17.84 22 15.5998 22H12.3998C10.1595 22 9.03944 22 8.18379 21.564C7.43115 21.1805 6.81922 20.5686 6.43573 19.816C5.99976 18.9603 5.99976 17.8402 5.99976 15.6V13H13.3768L9.72964 16.2538C9.31752 16.6215 9.28149 17.2536 9.64916 17.6657C10.0168 18.0778 10.649 18.1139 11.0611 17.7462L17.5019 12L11.0611 6.2538C10.649 5.88613 10.0168 5.92216 9.64916 6.33428C9.28149 6.74639 9.31752 7.37853 9.72964 7.7462L13.3768 11H5.99976V8.4C5.99976 6.15979 5.99976 5.03969 6.43573 4.18404C6.81922 3.43139 7.43115 2.81947 8.18379 2.43597C9.03944 2 10.1595 2 12.3998 2ZM5.99976 11H1.99976C1.44747 11 0.999756 11.4477 0.999756 12C0.999756 12.5523 1.44747 13 1.99976 13H5.99976V11Z" fill="currentColor"/>
</svg>
