<svg width="24" height="24" viewBox="0 0 24 24" fill="none" xmlns="http://www.w3.org/2000/svg">
<path fill-rule="evenodd" clip-rule="evenodd" d="M19.9998 11.7101C19.366 11.8987 18.6947 12 17.9998 12C14.1338 12 10.9998 8.86599 10.9998 5H9.99976C9.44747 5 8.99976 4.55228 8.99976 4C8.99976 3.44772 9.44747 3 9.99976 3H11.2896C11.5046 2.27757 11.8331 1.60401 12.2544 1H8.79976C7.1196 1 6.27952 1 5.63778 1.32698C5.0733 1.6146 4.61436 2.07354 4.32674 2.63803C3.99976 3.27976 3.99976 4.11984 3.99976 5.8V18.2C3.99976 19.8802 3.99976 20.7202 4.32674 21.362C4.61436 21.9265 5.0733 22.3854 5.63778 22.673C6.27952 23 7.1196 23 8.79976 23H15.1998C16.8799 23 17.72 23 18.3617 22.673C18.9262 22.3854 19.3852 21.9265 19.6728 21.362C19.9998 20.7202 19.9998 19.8802 19.9998 18.2V11.7101ZM9.99976 19C9.99976 17.8954 10.8952 17 11.9998 17C13.1043 17 13.9998 17.8954 13.9998 19C13.9998 20.1046 13.1043 21 11.9998 21C10.8952 21 9.99976 20.1046 9.99976 19Z" fill="currentColor"/>
<path fill-rule="evenodd" clip-rule="evenodd" d="M17.4999 1.03089C17.6635 1.01051 17.8304 1 17.9999 1C18.3061 1 18.6037 1.03432 18.8892 1.09911C20.6705 1.5033 21.9999 3.097 21.9999 5C21.9999 6.39083 21.2904 7.61618 20.2114 8.33363C19.9814 8.48653 19.919 8.79688 20.0719 9.02684C20.2248 9.25679 20.5351 9.31926 20.7651 9.16637C22.111 8.27144 22.9999 6.73963 22.9999 5C22.9999 2.61983 21.3373 0.629176 19.1105 0.123904C18.7529 0.0427445 18.3811 0 17.9999 0C17.6187 0 17.2469 0.0427445 16.8892 0.123904C16.6615 0.175577 16.4999 0.377995 16.4999 0.611508V6.5C16.4999 6.77614 16.7237 7 16.9999 7C17.276 7 17.4999 6.77614 17.4999 6.5V1.03089ZM15.9154 0.979645C16.069 1.20912 16.0075 1.51967 15.778 1.67328C14.7048 2.39169 13.9999 3.61363 13.9999 5C13.9999 6.903 15.3293 8.4967 17.1105 8.90089C17.3961 8.96568 17.6937 9 17.9999 9C18.1694 9 18.3362 8.98948 18.4999 8.96911V5.5C18.4999 5.22386 18.7237 5 18.9999 5C19.276 5 19.4999 5.22386 19.4999 5.5V9.38849C19.4999 9.62201 19.3382 9.82442 19.1105 9.8761C18.7529 9.95726 18.3811 10 17.9999 10C17.6187 10 17.2469 9.95726 16.8892 9.8761C14.6625 9.37082 12.9999 7.38017 12.9999 5C12.9999 3.26596 13.883 1.73838 15.2217 0.84227C15.4512 0.688663 15.7618 0.750168 15.9154 0.979645Z" fill="currentColor"/>
<path d="M19.4999 3.5C19.4999 3.77614 19.2761 4 18.9999 4C18.7238 4 18.4999 3.77614 18.4999 3.5C18.4999 3.22386 18.7238 3 18.9999 3C19.2761 3 19.4999 3.22386 19.4999 3.5Z" fill="currentColor"/>
</svg>
