<svg width="24" height="24" viewBox="0 0 24 24" fill="none" xmlns="http://www.w3.org/2000/svg">
<path fill-rule="evenodd" clip-rule="evenodd" d="M10.5 3.5C10.5 3.03406 10.5 2.80109 10.5761 2.61732C10.6776 2.37229 10.8723 2.17761 11.1173 2.07612C11.3011 2 11.5341 2 12 2C12.4659 2 12.6989 2 12.8827 2.07612C13.1277 2.17761 13.3224 2.37229 13.4239 2.61732C13.5 2.80109 13.5 3.03406 13.5 3.5V4L16 4.0001V3.5C16 3.03406 16 2.80109 16.0761 2.61732C16.1776 2.37229 16.3723 2.17761 16.6173 2.07612C16.8011 2 17.0341 2 17.5 2C17.9659 2 18.1989 2 18.3827 2.07612C18.6277 2.17761 18.8224 2.37229 18.9239 2.61732C19 2.80109 19 3.03406 19 3.5V4.15933C19.3067 4.22285 19.5721 4.3117 19.816 4.43597C20.5686 4.81947 21.1805 5.43139 21.564 6.18404C22 7.03968 22 8.15979 22 10.4V15.6C22 17.8402 22 18.9603 21.564 19.816C21.1805 20.5686 20.5686 21.1805 19.816 21.564C18.9603 22 17.8402 22 15.6 22H8.4C6.15979 22 5.03969 22 4.18404 21.564C3.43139 21.1805 2.81947 20.5686 2.43597 19.816C2 18.9603 2 17.8402 2 15.6V10.4C2 8.15979 2 7.03968 2.43597 6.18404C2.81947 5.43139 3.43139 4.81947 4.18404 4.43597C4.42793 4.3117 4.69332 4.22285 5 4.15933V3.5C5 3.03406 5 2.80109 5.07612 2.61732C5.17761 2.37229 5.37229 2.17761 5.61732 2.07612C5.80109 2 6.03406 2 6.5 2C6.96594 2 7.19891 2 7.38268 2.07612C7.62771 2.17761 7.82239 2.37229 7.92388 2.61732C8 2.80109 8 3.03406 8 3.5V4.0001L10.5 4V3.5ZM6 16C4.89543 16 4 16.8954 4 18C4 19.1046 4.89543 20 6 20C7.10457 20 8 19.1046 8 18C8 16.8954 7.10457 16 6 16ZM4 12C4 10.8954 4.89543 10 6 10C7.10457 10 8 10.8954 8 12C8 13.1046 7.10457 14 6 14C4.89543 14 4 13.1046 4 12ZM12 16C10.8954 16 10 16.8954 10 18C10 19.1046 10.8954 20 12 20C13.1046 20 14 19.1046 14 18C14 16.8954 13.1046 16 12 16ZM10 12C10 10.8954 10.8954 10 12 10C13.1046 10 14 10.8954 14 12C14 13.1046 13.1046 14 12 14C10.8954 14 10 13.1046 10 12ZM18 10C16.8954 10 16 10.8954 16 12C16 13.1046 16.8954 14 18 14C19.1046 14 20 13.1046 20 12C20 10.8954 19.1046 10 18 10Z" fill="currentColor"/>
</svg>
