<svg width="24" height="24" viewBox="0 0 24 24" fill="none" xmlns="http://www.w3.org/2000/svg">
<path d="M13.98 3.28397C13.9932 3.19121 14 3.0964 14 3C14 1.89543 13.1046 1 12 1C10.8955 1 10 1.89543 10 3C10 3.0964 10.0068 3.19121 10.02 3.28397C7.11827 4.13809 5.00003 6.82168 5.00003 10V11.1672C5.00003 13.0301 4.56629 14.8675 3.73315 16.5338L3.55325 16.8936C3.26853 17.463 3.58207 18.1407 4.20714 18.2617C5.73817 18.558 8.59318 19 12 19C15.4069 19 18.2619 18.558 19.7929 18.2617C20.418 18.1407 20.7315 17.463 20.4468 16.8936L20.2669 16.5338C19.4338 14.8675 19 13.0301 19 11.1672V10C19 6.82168 16.8818 4.13809 13.98 3.28397Z" fill="currentColor"/>
<path d="M14.8578 20.8945C14.607 21.7786 13.9142 23 12 23C10.0858 23 9.39301 21.7786 9.14226 20.8945C10.0021 20.9596 10.9564 21 12 21C13.0437 21 13.9979 20.9596 14.8578 20.8945Z" fill="currentColor"/>
</svg>
