<svg width="24" height="24" viewBox="0 0 24 24" fill="none" xmlns="http://www.w3.org/2000/svg">
<path fill-rule="evenodd" clip-rule="evenodd" d="M4.87152 23.6034C3.87268 24.0973 2.74759 24.1914 1.70749 23.5297C1.25015 23.2388 0.855247 22.8538 0.647556 22.3436C0.431261 21.8123 0.470296 21.2742 0.651171 20.798C0.980968 19.9298 1.81401 19.1723 2.72145 18.5383C4.19912 17.5058 6.34246 16.4872 8.65274 15.6186C9.13946 14.6146 9.5948 13.5503 10.0014 12.4681C10.2776 11.7329 10.5285 10.9971 10.7499 10.2742C9.38158 8.47177 8.26378 6.5764 7.76228 4.92841C7.44442 3.88388 7.31983 2.76331 7.73546 1.80772C8.18995 0.762771 9.15986 0.1889 10.4053 0.0292141C10.9776 -0.0441633 11.5342 0.0174756 12.0375 0.257447C12.5423 0.498169 12.9191 0.882992 13.1877 1.33312C13.7019 2.19495 13.8555 3.35232 13.8347 4.54349C13.8078 6.08241 13.4824 7.92751 12.9567 9.8453C13.1273 10.0547 13.3019 10.2635 13.4803 10.4709C14.4173 11.5609 15.4239 12.5787 16.4107 13.4377C17.4005 13.2613 18.3322 13.1445 19.163 13.1021C20.3151 13.0432 21.4372 13.1159 22.2489 13.4997C22.6779 13.7025 23.0975 14.0296 23.3292 14.542C23.5634 15.0596 23.5347 15.6089 23.375 16.1112C23.2068 16.6404 22.9275 17.1066 22.5074 17.4488C22.0839 17.7939 21.5869 17.956 21.0838 17.9901C20.1283 18.0548 19.0881 17.6657 18.1185 17.1292C17.393 16.7279 16.6287 16.1994 15.8576 15.5817C14.3866 15.8881 12.7868 16.3215 11.2063 16.8403C10.8294 16.964 10.4556 17.0919 10.0869 17.2233C9.30213 18.7502 8.4389 20.1439 7.54531 21.2565C6.72818 22.274 5.82706 23.131 4.87152 23.6034ZM7.11286 18.4117C6.74204 18.9973 6.36445 19.5329 5.98595 20.0042C5.24725 20.924 4.56341 21.5247 3.98507 21.8106C3.45004 22.0752 3.09234 22.0403 2.78095 21.8422C2.54348 21.6912 2.50153 21.5934 2.49994 21.5895C2.49959 21.5887 2.49999 21.5914 2.50003 21.5895C2.50012 21.585 2.50137 21.5594 2.52082 21.5082C2.622 21.2419 3.00875 20.7774 3.86694 20.1777C4.70425 19.5927 5.82606 18.9898 7.11286 18.4117ZM11.253 14.7252C12.1735 14.4375 13.1031 14.1763 14.0143 13.9512C13.411 13.3682 12.8195 12.7481 12.2557 12.1098C12.1335 12.4648 12.006 12.8192 11.8736 13.1715C11.6781 13.6918 11.4707 14.2113 11.253 14.7252ZM18.6799 15.1414C18.8177 15.2261 18.9534 15.3055 19.0867 15.3792C19.9525 15.8583 20.5761 16.0199 20.9485 15.9947C21.1093 15.9838 21.1923 15.9406 21.2442 15.8983C21.2996 15.8532 21.3913 15.7498 21.469 15.5053C21.4903 15.4383 21.4974 15.3945 21.4993 15.3689C21.481 15.3548 21.4485 15.3335 21.394 15.3078C21.0553 15.1476 20.3582 15.0436 19.265 15.0994C19.0767 15.1091 18.8814 15.1231 18.6799 15.1414ZM21.5197 15.3875C21.5196 15.3876 21.5186 15.3865 21.5171 15.3844C21.5191 15.3865 21.5198 15.3875 21.5197 15.3875ZM21.4997 15.3459C21.4988 15.3421 21.4987 15.34 21.4988 15.3399C21.499 15.3398 21.4994 15.3417 21.4997 15.3459ZM11.411 7.75662C11.6695 6.55649 11.8186 5.44838 11.835 4.50859C11.8536 3.44043 11.6967 2.73755 11.4702 2.35783C11.3683 2.18719 11.2673 2.10593 11.1766 2.0627C11.0844 2.01872 10.928 1.97855 10.6596 2.01296C9.89349 2.1112 9.66479 2.3863 9.56948 2.60541C9.43532 2.91387 9.40976 3.47244 9.67564 4.34616C9.97911 5.3434 10.5925 6.52482 11.411 7.75662Z" fill="currentColor"/>
</svg>
