<svg width="24" height="24" viewBox="0 0 24 24" fill="none" xmlns="http://www.w3.org/2000/svg">
<path fill-rule="evenodd" clip-rule="evenodd" d="M10.5761 2.61732C10.5 2.80109 10.5 3.03406 10.5 3.5V4L8 4.0001V3.5C8 3.03406 8 2.80109 7.92388 2.61732C7.82239 2.37229 7.62771 2.17761 7.38268 2.07612C7.19891 2 6.96594 2 6.5 2C6.03406 2 5.80109 2 5.61732 2.07612C5.37229 2.17761 5.17761 2.37229 5.07612 2.61732C5 2.80109 5 3.03406 5 3.5V4.15933C4.69332 4.22285 4.42793 4.3117 4.18404 4.43597C3.43139 4.81947 2.81947 5.43139 2.43597 6.18404C2 7.03968 2 8.15979 2 10.4V15.6C2 17.8402 2 18.9603 2.43597 19.816C2.81947 20.5686 3.43139 21.1805 4.18404 21.564C5.03969 22 6.15979 22 8.4 22H15.6C17.8402 22 18.9603 22 19.816 21.564C20.5686 21.1805 21.1805 20.5686 21.564 19.816C22 18.9603 22 17.8402 22 15.6V10.4C22 8.15979 22 7.03968 21.564 6.18404C21.1805 5.43139 20.5686 4.81947 19.816 4.43597C19.5721 4.3117 19.3067 4.22285 19 4.15933V3.5C19 3.03406 19 2.80109 18.9239 2.61732C18.8224 2.37229 18.6277 2.17761 18.3827 2.07612C18.1989 2 17.9659 2 17.5 2C17.0341 2 16.8011 2 16.6173 2.07612C16.3723 2.17761 16.1776 2.37229 16.0761 2.61732C16 2.80109 16 3.03406 16 3.5V4.0001L13.5 4V3.5C13.5 3.03406 13.5 2.80109 13.4239 2.61732C13.3224 2.37229 13.1277 2.17761 12.8827 2.07612C12.6989 2 12.4659 2 12 2C11.5341 2 11.3011 2 11.1173 2.07612C10.8723 2.17761 10.6776 2.37229 10.5761 2.61732ZM4 18C4 16.8954 4.89543 16 6 16C7.10457 16 8 16.8954 8 18C8 19.1046 7.10457 20 6 20C4.89543 20 4 19.1046 4 18ZM6 10C4.89543 10 4 10.8954 4 12C4 13.1046 4.89543 14 6 14H12C13.1046 14 14 13.1046 14 12C14 10.8954 13.1046 10 12 10H6ZM10 18C10 16.8954 10.8954 16 12 16H18C19.1046 16 20 16.8954 20 18C20 19.1046 19.1046 20 18 20H12C10.8954 20 10 19.1046 10 18ZM18 10C16.8954 10 16 10.8954 16 12C16 13.1046 16.8954 14 18 14C19.1046 14 20 13.1046 20 12C20 10.8954 19.1046 10 18 10Z" fill="currentColor"/>
</svg>
