<svg width="24" height="24" viewBox="0 0 24 24" fill="none" xmlns="http://www.w3.org/2000/svg">
<path fill-rule="evenodd" clip-rule="evenodd" d="M4 5.8C4 4.11984 4 3.27976 4.32698 2.63803C4.6146 2.07354 5.07354 1.6146 5.63803 1.32698C6.27976 1 7.11984 1 8.8 1H15.2C16.8802 1 17.7202 1 18.362 1.32698C18.9265 1.6146 19.3854 2.07354 19.673 2.63803C20 3.27976 20 4.11984 20 5.8V18.2C20 19.8802 20 20.7202 19.673 21.362C19.3854 21.9265 18.9265 22.3854 18.362 22.673C17.7202 23 16.8802 23 15.2 23H8.8C7.11984 23 6.27976 23 5.63803 22.673C5.07354 22.3854 4.6146 21.9265 4.32698 21.362C4 20.7202 4 19.8802 4 18.2V5.8ZM9 4C9 3.44772 9.44772 3 10 3H14C14.5523 3 15 3.44772 15 4C15 4.55228 14.5523 5 14 5H10C9.44772 5 9 4.55228 9 4ZM12 17C10.8954 17 10 17.8954 10 19C10 20.1046 10.8954 21 12 21C13.1046 21 14 20.1046 14 19C14 17.8954 13.1046 17 12 17Z" fill="currentColor"/>
</svg>
