<svg width="24" height="24" viewBox="0 0 24 24" fill="none" xmlns="http://www.w3.org/2000/svg">
<path d="M15 13C15 14.6569 13.6569 16 12 16C10.3431 16 9 14.6569 9 13C9 11.3431 10.3431 10 12 10C13.6569 10 15 11.3431 15 13Z" fill="currentColor"/>
<path fill-rule="evenodd" clip-rule="evenodd" d="M8.70313 3.4453L7.66622 5.00067C5.90419 5.00583 4.94071 5.05043 4.18404 5.43597C3.43139 5.81947 2.81947 6.43139 2.43597 7.18404C2 8.03968 2 9.15979 2 11.4V14.6C2 16.8402 2 17.9603 2.43597 18.816C2.81947 19.5686 3.43139 20.1805 4.18404 20.564C5.03969 21 6.15979 21 8.4 21H15.6C17.8402 21 18.9603 21 19.816 20.564C20.5686 20.1805 21.1805 19.5686 21.564 18.816C22 17.9603 22 16.8402 22 14.6V11.4C22 9.15981 22 8.03968 21.564 7.18404C21.1805 6.43139 20.5686 5.81947 19.816 5.43597C19.0593 5.05043 18.0958 5.00583 16.3338 5.00067L15.2969 3.4453C15.1114 3.1671 14.7992 3 14.4648 3H9.53518C9.20083 3 8.8886 3.1671 8.70313 3.4453ZM12 18C14.7614 18 17 15.7614 17 13C17 10.2386 14.7614 8 12 8C9.23858 8 7 10.2386 7 13C7 15.7614 9.23858 18 12 18Z" fill="currentColor"/>
</svg>
