<svg width="24" height="24" viewBox="0 0 24 24" fill="none" xmlns="http://www.w3.org/2000/svg">
<path d="M13.8426 2.22125C13.5389 1.50356 12.8282 1 11.9999 1C10.8953 1 9.99991 1.89543 9.99991 3C9.99991 3.0964 10.0067 3.19121 10.0199 3.28397C7.11815 4.13809 4.99991 6.82168 4.99991 10V11.1672C4.99991 13.0301 4.56616 14.8675 3.73303 16.5338L3.55313 16.8936C3.26841 17.463 3.58195 18.1407 4.20702 18.2617C5.73805 18.558 8.59306 19 11.9999 19C15.4067 19 18.2618 18.558 19.7928 18.2617C20.4179 18.1407 20.7314 17.463 20.4467 16.8936L20.2668 16.5338C19.4336 14.8675 18.9999 13.0301 18.9999 11.1672V10C18.9999 9.96666 18.9997 9.93338 18.9992 9.90014C18.6763 9.96563 18.3422 10 18 10C15.2386 10 13 7.76142 13 5C13 3.97172 13.3104 3.01594 13.8426 2.22125Z" fill="currentColor"/>
<path d="M11.9999 23C13.9141 23 14.6069 21.7786 14.8577 20.8945C13.9978 20.9596 13.0436 21 11.9999 21C10.9562 21 10.002 20.9596 9.14214 20.8945C9.39289 21.7786 10.0857 23 11.9999 23Z" fill="currentColor"/>
<path d="M21 5C21 6.65685 19.6569 8 18 8C16.3431 8 15 6.65685 15 5C15 3.34315 16.3431 2 18 2C19.6569 2 21 3.34315 21 5Z" fill="currentColor"/>
</svg>
