<svg width="24" height="24" viewBox="0 0 24 24" fill="none" xmlns="http://www.w3.org/2000/svg">
<path fill-rule="evenodd" clip-rule="evenodd" d="M2 17C2.55228 17 3 17.4477 3 18C3 19.6569 4.34315 21 6 21C6.55228 21 7 21.4477 7 22C7 22.5523 6.55228 23 6 23C3.23858 23 1 20.7614 1 18C1 17.4477 1.44772 17 2 17Z" fill="currentColor"/>
<path fill-rule="evenodd" clip-rule="evenodd" d="M22 17C21.4477 17 21 17.4477 21 18C21 19.6569 19.6569 21 18 21C17.4477 21 17 21.4477 17 22C17 22.5523 17.4477 23 18 23C20.7614 23 23 20.7614 23 18C23 17.4477 22.5523 17 22 17Z" fill="currentColor"/>
<path fill-rule="evenodd" clip-rule="evenodd" d="M2 7C2.55228 7 3 6.55228 3 6C3 4.34315 4.34315 3 6 3C6.55228 3 7 2.55228 7 2C7 1.44772 6.55228 1 6 1C3.23858 1 1 3.23858 1 6C1 6.55228 1.44772 7 2 7Z" fill="currentColor"/>
<path fill-rule="evenodd" clip-rule="evenodd" d="M22 7C21.4477 7 21 6.55228 21 6C21 4.34315 19.6569 3 18 3C17.4477 3 17 2.55228 17 2C17 1.44772 17.4477 1 18 1C20.7614 1 23 3.23858 23 6C23 6.55228 22.5523 7 22 7Z" fill="currentColor"/>
<path d="M5 8C5 7.06812 5 6.60218 5.15224 6.23463C5.35523 5.74458 5.74458 5.35523 6.23463 5.15224C6.60218 5 7.06812 5 8 5C8.93188 5 9.39783 5 9.76537 5.15224C10.2554 5.35523 10.6448 5.74458 10.8478 6.23463C11 6.60218 11 7.06812 11 8C11 8.93188 11 9.39783 10.8478 9.76537C10.6448 10.2554 10.2554 10.6448 9.76537 10.8478C9.39783 11 8.93188 11 8 11C7.06812 11 6.60218 11 6.23463 10.8478C5.74458 10.6448 5.35523 10.2554 5.15224 9.76537C5 9.39783 5 8.93188 5 8Z" fill="currentColor"/>
<path d="M5 16C5 15.0681 5 14.6022 5.15224 14.2346C5.35523 13.7446 5.74458 13.3552 6.23463 13.1522C6.60218 13 7.06812 13 8 13C8.93188 13 9.39783 13 9.76537 13.1522C10.2554 13.3552 10.6448 13.7446 10.8478 14.2346C11 14.6022 11 15.0681 11 16C11 16.9319 11 17.3978 10.8478 17.7654C10.6448 18.2554 10.2554 18.6448 9.76537 18.8478C9.39783 19 8.93188 19 8 19C7.06812 19 6.60218 19 6.23463 18.8478C5.74458 18.6448 5.35523 18.2554 5.15224 17.7654C5 17.3978 5 16.9319 5 16Z" fill="currentColor"/>
<path d="M13 8C13 7.06812 13 6.60218 13.1522 6.23463C13.3552 5.74458 13.7446 5.35523 14.2346 5.15224C14.6022 5 15.0681 5 16 5C16.9319 5 17.3978 5 17.7654 5.15224C18.2554 5.35523 18.6448 5.74458 18.8478 6.23463C19 6.60218 19 7.06812 19 8C19 8.93188 19 9.39783 18.8478 9.76537C18.6448 10.2554 18.2554 10.6448 17.7654 10.8478C17.3978 11 16.9319 11 16 11C15.0681 11 14.6022 11 14.2346 10.8478C13.7446 10.6448 13.3552 10.2554 13.1522 9.76537C13 9.39783 13 8.93188 13 8Z" fill="currentColor"/>
<path fill-rule="evenodd" clip-rule="evenodd" d="M13.7929 13.7929C14.1834 13.4024 14.8166 13.4024 15.2071 13.7929L16 14.5858L16.7929 13.7929C17.1834 13.4024 17.8166 13.4024 18.2071 13.7929C18.5976 14.1834 18.5976 14.8166 18.2071 15.2071L17.4142 16L18.2071 16.7929C18.5976 17.1834 18.5976 17.8166 18.2071 18.2071C17.8166 18.5976 17.1834 18.5976 16.7929 18.2071L16 17.4142L15.2071 18.2071C14.8166 18.5976 14.1834 18.5976 13.7929 18.2071C13.4024 17.8166 13.4024 17.1834 13.7929 16.7929L14.5858 16L13.7929 15.2071C13.4024 14.8166 13.4024 14.1834 13.7929 13.7929Z" fill="currentColor"/>
</svg>
