<svg width="24" height="24" viewBox="0 0 24 24" fill="none" xmlns="http://www.w3.org/2000/svg">
<g clip-path="url(#clip0_1_1051)">
<path fill-rule="evenodd" clip-rule="evenodd" d="M22.3029 13.6971C23.2401 12.7598 23.2401 11.2402 22.3029 10.303L13.697 1.69708C12.7597 0.759826 11.2401 0.759826 10.3028 1.69708L1.69696 10.303C0.759704 11.2402 0.759704 12.7598 1.69696 13.6971L10.3028 22.303C11.2401 23.2402 12.7597 23.2402 13.697 22.303L22.3029 13.6971ZM11.9999 8.00003C11.2081 8.00003 10.4999 8.67905 10.4999 9.60003C10.4999 10.1523 10.0522 10.6 9.49991 10.6C8.94762 10.6 8.49991 10.1523 8.49991 9.60003C8.49991 7.64913 10.0303 6.00003 11.9999 6.00003C13.9695 6.00003 15.4999 7.64913 15.4999 9.60003C15.4999 10.9715 14.7512 12.1803 13.627 12.7881C13.4062 12.9074 13.228 13.0445 13.1161 13.1749C13.0085 13.3004 12.9999 13.3722 12.9999 13.4V13.5C12.9999 14.0523 12.5522 14.5 11.9999 14.5C11.4476 14.5 10.9999 14.0523 10.9999 13.5V13.4C10.9999 12.1434 12.0361 11.3746 12.6758 11.0287C13.1541 10.7702 13.4999 10.2367 13.4999 9.60003C13.4999 8.67905 12.7917 8.00003 11.9999 8.00003ZM13.4999 17C13.4999 17.8285 12.8283 18.5 11.9999 18.5C11.1715 18.5 10.4999 17.8285 10.4999 17C10.4999 16.1716 11.1715 15.5 11.9999 15.5C12.8283 15.5 13.4999 16.1716 13.4999 17Z" fill="currentColor"/>
</g>
<defs>
<clipPath id="clip0_1_1051">
<rect width="24" height="24" fill="white"/>
</clipPath>
</defs>
</svg>
