<svg width="24" height="24" viewBox="0 0 24 24" fill="none" xmlns="http://www.w3.org/2000/svg">
<path fill-rule="evenodd" clip-rule="evenodd" d="M12 22C17.5228 22 22 17.5228 22 12C22 6.47715 17.5228 2 12 2C6.47715 2 2 6.47715 2 12C2 17.5228 6.47715 22 12 22ZM12 19.0001C12.8284 19.0001 13.5 18.3285 13.5 17.5001C13.5 16.6716 12.8284 16.0001 12 16.0001C11.1716 16.0001 10.5 16.6716 10.5 17.5001C10.5 18.3285 11.1716 19.0001 12 19.0001ZM10 9.11105C10 7.91053 10.9294 6.99994 12 6.99994C13.0706 6.99994 14 7.91053 14 9.11105C14 9.85712 13.6354 10.5017 13.0984 10.8754C12.6692 11.1741 12.1646 11.5658 11.7618 12.0531C11.3554 12.5448 11 13.1989 11 13.9999C11 14.5522 11.4477 14.9999 12 14.9999C12.5523 14.9999 13 14.5522 13 13.9999C13 13.8192 13.0765 13.6018 13.3034 13.3273C13.5339 13.0484 13.8642 12.7791 14.2409 12.517C15.3085 11.774 16 10.5197 16 9.11105C16 6.87514 14.2431 4.99994 12 4.99994C9.75689 4.99994 8 6.87514 8 9.11105C8 9.66333 8.44772 10.111 9 10.111C9.55228 10.111 10 9.66333 10 9.11105Z" fill="currentColor"/>
</svg>
