<svg width="24" height="24" viewBox="0 0 24 24" fill="none" xmlns="http://www.w3.org/2000/svg">
<path fill-rule="evenodd" clip-rule="evenodd" d="M9 3C5.68629 3 3 5.68629 3 9V15C3 18.3137 5.68629 21 9 21H15C18.3137 21 21 18.3137 21 15V9C21 5.68629 18.3137 3 15 3H9ZM16.2071 8.79289C16.5976 9.18342 16.5976 9.81658 16.2071 10.2071L10.5 15.9142L7.79289 13.2071C7.40237 12.8166 7.40237 12.1834 7.79289 11.7929C8.18342 11.4024 8.81658 11.4024 9.20711 11.7929L10.5 13.0858L14.7929 8.79289C15.1834 8.40237 15.8166 8.40237 16.2071 8.79289Z" fill="currentColor"/>
</svg>
