<svg width="24" height="24" viewBox="0 0 24 24" fill="none" xmlns="http://www.w3.org/2000/svg">
<path d="M7.90841 18H4.4C4.17909 18 4 17.8209 4 17.6V14.0916C4 13.5611 4.21071 13.0524 4.58579 12.6773L14.5561 2.70708C14.9466 2.31655 15.5797 2.31655 15.9703 2.70708L19.2929 6.02971C19.6834 6.42023 19.6834 7.0534 19.2929 7.44392L9.32263 17.4142C8.94756 17.7893 8.43885 18 7.90841 18Z" fill="currentColor"/>
<path d="M3 20C2.44772 20 2 20.4477 2 21C2 21.5523 2.44772 22 3 22H21C21.5523 22 22 21.5523 22 21C22 20.4477 21.5523 20 21 20H3Z" fill="currentColor"/>
</svg>
