<svg width="24" height="24" viewBox="0 0 24 24" fill="none" xmlns="http://www.w3.org/2000/svg">
<path fill-rule="evenodd" clip-rule="evenodd" d="M12 22C17.5228 22 22 17.5228 22 12C22 6.47715 17.5228 2 12 2C6.47715 2 2 6.47715 2 12C2 17.5228 6.47715 22 12 22ZM9 12V9.41424L8.70711 9.70714C8.31658 10.0977 7.68342 10.0977 7.29289 9.70714C6.90237 9.31661 6.90237 8.68345 7.29289 8.29292L10 5.58582L12.7071 8.29292C13.0976 8.68345 13.0976 9.31661 12.7071 9.70714C12.3166 10.0977 11.6834 10.0977 11.2929 9.70714L11 9.41424V12C11 12.5523 10.5523 13 10 13C9.44771 13 9 12.5523 9 12ZM14 11C14.5523 11 15 11.4477 15 12V14.5858L15.2929 14.2929C15.6834 13.9024 16.3166 13.9024 16.7071 14.2929C17.0976 14.6834 17.0976 15.3166 16.7071 15.7071L14 18.4142L11.2929 15.7071C10.9024 15.3166 10.9024 14.6834 11.2929 14.2929C11.6834 13.9024 12.3166 13.9024 12.7071 14.2929L13 14.5858V12C13 11.4477 13.4477 11 14 11Z" fill="currentColor"/>
</svg>
