<svg width="24" height="24" viewBox="0 0 24 24" fill="none" xmlns="http://www.w3.org/2000/svg">
<path fill-rule="evenodd" clip-rule="evenodd" d="M2 11C2 6.02944 6.02944 2 11 2C15.9706 2 20 6.02944 20 11C20 12.9437 19.3838 14.7436 18.3361 16.2148L21.3536 19.2322C21.7441 19.6228 21.7441 20.2559 21.3536 20.6464L20.6464 21.3536C20.2559 21.7441 19.6228 21.7441 19.2322 21.3536L16.2148 18.3361C14.7436 19.3838 12.9437 20 11 20C6.02944 20 2 15.9706 2 11ZM4 11C4 7.13401 7.13401 4 11 4C14.866 4 18 7.13401 18 11C18 14.866 14.866 18 11 18C7.13401 18 4 14.866 4 11Z" fill="currentColor"/>
</svg>
