<svg width="24" height="24" viewBox="0 0 24 24" fill="none" xmlns="http://www.w3.org/2000/svg">
<path fill-rule="evenodd" clip-rule="evenodd" d="M7.53427 4.70692C7.84845 4.91358 8.2498 4.92162 8.58988 4.76113C8.81856 4.65321 9.05317 4.55582 9.29309 4.46956C9.64687 4.34237 9.92486 4.05295 10.0009 3.68477L10.1814 2.81031C10.2647 2.40652 10.587 2.0905 10.9973 2.04965C11.3271 2.01681 11.6616 2 12 2C12.3384 2 12.6729 2.01681 13.0027 2.04965C13.413 2.0905 13.7353 2.40652 13.8186 2.81031L13.9991 3.68477C14.0751 4.05295 14.3531 4.34237 14.7069 4.46956C14.9468 4.55582 15.1814 4.65321 15.4101 4.76113C15.7502 4.92162 16.1516 4.91358 16.4657 4.70692L17.2116 4.21626C17.556 3.98975 18.0072 3.99408 18.3262 4.25501C18.8451 4.67937 19.3206 5.15486 19.745 5.67377C20.0059 5.99284 20.0103 6.44401 19.7837 6.78836L19.2931 7.53427C19.0864 7.84845 19.0784 8.2498 19.2389 8.58988C19.3468 8.81856 19.4442 9.05317 19.5304 9.29309C19.6576 9.64687 19.947 9.92486 20.3152 10.0009L21.1897 10.1814C21.5935 10.2647 21.9095 10.587 21.9504 10.9973C21.9832 11.3271 22 11.6616 22 12C22 12.3384 21.9832 12.6729 21.9504 13.0027C21.9095 13.413 21.5935 13.7353 21.1897 13.8186L20.3152 13.9991C19.947 14.0751 19.6576 14.3531 19.5304 14.7069C19.4442 14.9468 19.3468 15.1814 19.2389 15.4101C19.0784 15.7502 19.0864 16.1516 19.2931 16.4657L19.7837 17.2116C20.0103 17.556 20.0059 18.0072 19.745 18.3262C19.3206 18.8451 18.8451 19.3206 18.3262 19.745C18.0072 20.0059 17.556 20.0103 17.2116 19.7837L16.4657 19.2931C16.1516 19.0864 15.7502 19.0784 15.4101 19.2389C15.1814 19.3468 14.9468 19.4442 14.7069 19.5304C14.3531 19.6576 14.0751 19.947 13.9991 20.3152L13.8186 21.1897C13.7353 21.5935 13.413 21.9095 13.0027 21.9504C12.6729 21.9832 12.3384 22 12 22C11.6616 22 11.3271 21.9832 10.9973 21.9504C10.587 21.9095 10.2647 21.5935 10.1814 21.1897L10.0009 20.3152C9.92486 19.947 9.64687 19.6576 9.29309 19.5304C9.05317 19.4442 8.81856 19.3468 8.58988 19.2389C8.2498 19.0784 7.84845 19.0864 7.53427 19.2931L6.78836 19.7837C6.44401 20.0103 5.99284 20.0059 5.67377 19.745C5.15486 19.3206 4.67937 18.8451 4.25501 18.3262C3.99408 18.0072 3.98975 17.556 4.21626 17.2116L4.70692 16.4657C4.91358 16.1516 4.92162 15.7502 4.76113 15.4101C4.65321 15.1814 4.55582 14.9468 4.46956 14.7069C4.34237 14.3531 4.05295 14.0751 3.68477 13.9991L2.81031 13.8186C2.40652 13.7353 2.0905 13.413 2.04965 13.0027C2.01681 12.6729 2 12.3384 2 12C2 11.6616 2.01681 11.3271 2.04965 10.9973C2.0905 10.587 2.40652 10.2647 2.81031 10.1814L3.68477 10.0009C4.05295 9.92486 4.34237 9.64687 4.46956 9.29309C4.55582 9.05317 4.65321 8.81856 4.76113 8.58988C4.92162 8.2498 4.91358 7.84845 4.70692 7.53427L4.21626 6.78836C3.98975 6.44401 3.99408 5.99284 4.255 5.67377C4.67937 5.15486 5.15486 4.67937 5.67377 4.255C5.99284 3.99408 6.44401 3.98975 6.78836 4.21626L7.53427 4.70692ZM12 16C14.2091 16 16 14.2091 16 12C16 9.79086 14.2091 8 12 8C9.79086 8 8 9.79086 8 12C8 14.2091 9.79086 16 12 16Z" fill="currentColor"/>
</svg>
