<svg width="24" height="24" viewBox="0 0 24 24" fill="none" xmlns="http://www.w3.org/2000/svg">
<path fill-rule="evenodd" clip-rule="evenodd" d="M3.43597 4.18404C3 5.03969 3 6.15979 3 8.4V15.6C3 17.8402 3 18.9603 3.43597 19.816C3.81947 20.5686 4.43139 21.1805 5.18404 21.564C6.03969 22 7.15979 22 9.4 22H14.6C16.8402 22 17.9603 22 18.816 21.564C19.5686 21.1805 20.1805 20.5686 20.564 19.816C21 18.9603 21 17.8402 21 15.6V10.651C21 9.6726 21 9.18342 20.8895 8.72307C20.7915 8.31493 20.6299 7.92475 20.4106 7.56686C20.1632 7.16319 19.8173 6.81729 19.1255 6.12548L16.8745 3.87452C16.1827 3.18271 15.8368 2.83681 15.4331 2.58944C15.0753 2.37012 14.6851 2.20851 14.2769 2.11052C13.8166 2 13.3274 2 12.349 2H9.4C7.15979 2 6.03969 2 5.18404 2.43597C4.43139 2.81947 3.81947 3.43139 3.43597 4.18404ZM6.10899 11.546C6 11.7599 6 12.0399 6 12.6V14H14V12.6C14 12.0399 14 11.7599 13.891 11.546C13.7951 11.3578 13.6422 11.2049 13.454 11.109C13.2401 11 12.9601 11 12.4 11H7.6C7.03995 11 6.75992 11 6.54601 11.109C6.35785 11.2049 6.20487 11.3578 6.10899 11.546ZM6 17.4V16H9V19H7.6C7.03995 19 6.75992 19 6.54601 18.891C6.35785 18.7951 6.20487 18.6422 6.10899 18.454C6 18.2401 6 17.9601 6 17.4ZM11 19V16H14V17.4C14 17.9601 14 18.2401 13.891 18.454C13.7951 18.6422 13.6422 18.7951 13.454 18.891C13.2401 19 12.9601 19 12.4 19H11Z" fill="currentColor"/>
</svg>
