<svg width="24" height="24" viewBox="0 0 24 24" fill="none" xmlns="http://www.w3.org/2000/svg">
<path fill-rule="evenodd" clip-rule="evenodd" d="M10.9998 4.06179C11.327 4.02103 11.6608 4 11.9998 4C12.6122 4 13.2074 4.06863 13.7785 4.19823C17.341 5.0066 19.9998 8.194 19.9998 12C19.9998 14.7817 18.5809 17.2324 16.4228 18.6673C15.9629 18.9731 15.8379 19.5938 16.1437 20.0537C16.4495 20.5136 17.0702 20.6385 17.5301 20.3327C20.2221 18.5429 21.9998 15.4793 21.9998 12C21.9998 7.23965 18.6745 3.25835 14.221 2.24781C13.5057 2.08549 12.7621 2 11.9998 2C11.2374 2 10.4938 2.08549 9.77847 2.24781C9.32302 2.35115 8.99976 2.75599 8.99976 3.22302V15C8.99976 15.5523 9.44747 16 9.99976 16C10.552 16 10.9998 15.5523 10.9998 15V4.06179ZM7.83076 3.95929C8.13798 4.41824 8.01497 5.03934 7.55602 5.34656C5.40952 6.78337 3.99976 9.22725 3.99976 12C3.99976 15.806 6.65855 18.9934 10.221 19.8018C10.7922 19.9314 11.3873 20 11.9998 20C12.3388 20 12.6725 19.979 12.9998 19.9382V13C12.9998 12.4477 13.4475 12 13.9998 12C14.552 12 14.9998 12.4477 14.9998 13V20.777C14.9998 21.244 14.6765 21.6488 14.221 21.7522C13.5057 21.9145 12.7621 22 11.9998 22C11.2374 22 10.4938 21.9145 9.77847 21.7522C5.32501 20.7416 1.99976 16.7603 1.99976 12C1.99976 8.53192 3.76605 5.47677 6.4435 3.68454C6.90245 3.37733 7.52355 3.50034 7.83076 3.95929Z" fill="currentColor"/>
<path d="M14.9999 9C14.9999 9.55228 14.5522 10 13.9999 10C13.4476 10 12.9999 9.55228 12.9999 9C12.9999 8.44772 13.4476 8 13.9999 8C14.5522 8 14.9999 8.44772 14.9999 9Z" fill="currentColor"/>
</svg>
