<svg width="24" height="24" viewBox="0 0 24 24" fill="none" xmlns="http://www.w3.org/2000/svg">
<path fill-rule="evenodd" clip-rule="evenodd" d="M11.9998 1C12.552 1 12.9998 1.44772 12.9998 2V4.13148L14.4451 3.16795C14.9046 2.8616 15.5254 2.98577 15.8318 3.4453C16.1382 3.90483 16.014 4.5257 15.5545 4.83205L12.9998 6.53518V10.2679L16.2324 8.40157L16.43 5.33756C16.4656 4.78642 16.9412 4.36845 17.4923 4.404C18.0435 4.43954 18.4614 4.91514 18.4259 5.46628L18.3141 7.19972L20.16 6.13398C20.6383 5.85783 21.2499 6.02171 21.526 6.5C21.8022 6.97829 21.6383 7.58988 21.16 7.86603L19.3141 8.93177L20.8712 9.70167C21.3663 9.94646 21.5692 10.5462 21.3244 11.0413C21.0796 11.5364 20.4798 11.7393 19.9847 11.4945L17.2324 10.1336L13.9997 12L17.2323 13.8664L19.9846 12.5055C20.4797 12.2607 21.0795 12.4636 21.3243 12.9587C21.5691 13.4538 21.3662 14.0535 20.8711 14.2983L19.314 15.0682L21.1599 16.134C21.6382 16.4101 21.8021 17.0217 21.5259 17.5C21.2498 17.9783 20.6382 18.1422 20.1599 17.866L18.314 16.8003L18.4258 18.5337C18.4613 19.0849 18.0434 19.5605 17.4922 19.596C16.9411 19.6315 16.4655 19.2136 16.4299 18.6624L16.2323 15.5984L12.9998 13.7321V17.4648L15.5545 19.1679C16.014 19.4743 16.1382 20.0952 15.8318 20.5547C15.5254 21.0142 14.9046 21.1384 14.4451 20.8321L12.9998 19.8685V22C12.9998 22.5523 12.552 23 11.9998 23C11.4475 23 10.9998 22.5523 10.9998 22V19.8685L9.55445 20.8321C9.09492 21.1384 8.47405 21.0142 8.1677 20.5547C7.86135 20.0952 7.98552 19.4743 8.44505 19.1679L10.9998 17.4648V13.732L7.76708 15.5984L7.56947 18.6624C7.53393 19.2136 7.05833 19.6315 6.50719 19.596C5.95605 19.5605 5.53808 19.0849 5.57362 18.5337L5.68542 16.8003L3.8395 17.866C3.3612 18.1422 2.74961 17.9783 2.47347 17.5C2.19733 17.0217 2.3612 16.4101 2.8395 16.134L4.68542 15.0682L3.12832 14.2983C2.63325 14.0535 2.43035 13.4538 2.67514 12.9587C2.91993 12.4636 3.5197 12.2607 4.01477 12.5055L6.76708 13.8664L9.9997 12L6.76698 10.1336L4.01468 11.4945C3.5196 11.7393 2.91983 11.5364 2.67504 11.0413C2.43025 10.5462 2.63315 9.94645 3.12822 9.70167L4.68532 8.93177L2.8394 7.86603C2.36111 7.58988 2.19723 6.97829 2.47338 6.5C2.74952 6.02171 3.36111 5.85783 3.8394 6.13397L5.68532 7.19972L5.57352 5.46628C5.53798 4.91514 5.95595 4.43954 6.50709 4.404C7.05823 4.36845 7.53383 4.78643 7.56938 5.33756L7.76698 8.40157L10.9998 10.268V6.53518L8.44505 4.83205C7.98552 4.5257 7.86135 3.90483 8.1677 3.4453C8.47405 2.98577 9.09492 2.8616 9.55445 3.16795L10.9998 4.13148V2C10.9998 1.44772 11.4475 1 11.9998 1Z" fill="currentColor"/>
</svg>
