<svg width="24" height="24" viewBox="0 0 24 24" fill="none" xmlns="http://www.w3.org/2000/svg">
<path fill-rule="evenodd" clip-rule="evenodd" d="M2 11.6C2 8.23969 2 6.55953 2.65396 5.27606C3.2292 4.14708 4.14708 3.2292 5.27606 2.65396C6.55953 2 8.23969 2 11.6 2H12.4C15.7603 2 17.4405 2 18.7239 2.65396C19.8529 3.2292 20.7708 4.14708 21.346 5.27606C22 6.55953 22 8.23969 22 11.6V12.4C22 12.6062 22 12.8061 21.9998 13C20.1095 13 18.3553 13.5828 16.9071 14.5786C16.8464 14.4477 16.7564 14.328 16.638 14.2299C16.2127 13.8776 15.5823 13.9367 15.2299 14.362C14.3003 15.4842 13.1271 16 12 16C10.8729 16 9.6997 15.4842 8.77008 14.362C8.41775 13.9367 7.78735 13.8776 7.36205 14.2299C6.93675 14.5823 6.87759 15.2127 7.22992 15.638C8.50944 17.1825 10.2317 18 12 18C12.7369 18 13.4658 17.858 14.1579 17.5807C13.4207 18.886 13 20.3938 13 21.9998C12.8061 22 12.6062 22 12.4 22H11.6C8.23969 22 6.55953 22 5.27606 21.346C4.14708 20.7708 3.2292 19.8529 2.65396 18.7239C2 17.4405 2 15.7603 2 12.4V11.6ZM8.5 11C9.32843 11 10 10.1046 10 9C10 7.89543 9.32843 7 8.5 7C7.67157 7 7 7.89543 7 9C7 10.1046 7.67157 11 8.5 11ZM17 9C17 10.1046 16.3284 11 15.5 11C14.6716 11 14 10.1046 14 9C14 7.89543 14.6716 7 15.5 7C16.3284 7 17 7.89543 17 9Z" fill="currentColor"/>
<path d="M15 21.9825C15.0095 18.1304 18.1304 15.0095 21.9825 15C21.9414 16.7305 21.8043 17.8246 21.346 18.7239C20.7708 19.8529 19.8529 20.7708 18.7239 21.346C17.8246 21.8043 16.7305 21.9414 15 21.9825Z" fill="currentColor"/>
</svg>
