<svg width="24" height="24" viewBox="0 0 24 24" fill="none" xmlns="http://www.w3.org/2000/svg">
<path fill-rule="evenodd" clip-rule="evenodd" d="M12.0002 22C17.5231 22 22.0002 17.5228 22.0002 12C22.0002 6.47715 17.5231 2 12.0002 2C6.4774 2 2.00024 6.47715 2.00024 12C2.00024 17.5228 6.4774 22 12.0002 22ZM8 6C7.61559 6 7.26522 6.22035 7.0987 6.56681C6.93218 6.91328 6.979 7.32452 7.21913 7.62469L10.7194 12L7.21913 16.3753C6.979 16.6755 6.93218 17.0867 7.0987 17.4332C7.26522 17.7797 7.61559 18 8 18H15.5002C16.0525 18 16.5002 17.5523 16.5002 17C16.5002 16.4477 16.0525 16 15.5002 16H10.0806L12.7809 12.6247C13.073 12.2595 13.073 11.7405 12.7809 11.3753L10.0806 8H15.5002C16.0525 8 16.5002 7.55228 16.5002 7C16.5002 6.44772 16.0525 6 15.5002 6H8Z" fill="currentColor"/>
</svg>
