<svg width="24" height="24" viewBox="0 0 24 24" fill="none" xmlns="http://www.w3.org/2000/svg">
<path d="M12 1.8981C12 1.55179 11.5898 1.36911 11.3324 1.60078L2.77482 9.30264C2.50233 9.54787 2.67581 9.99995 3.04241 9.99995H20C20.5523 9.99995 21 9.55224 21 8.99995V4.99995C21 4.44767 20.5523 3.99995 20 3.99995H12V1.8981Z" fill="currentColor"/>
<path d="M12 22.1018C12 22.4481 12.4102 22.6308 12.6676 22.3991L21.2252 14.6973C21.4977 14.452 21.3242 14 20.9576 14H4.00002C3.44774 14 3.00002 14.4477 3.00002 15V19C3.00002 19.5522 3.44774 20 4.00002 20H12V22.1018Z" fill="currentColor"/>
</svg>
