<svg width="24" height="24" viewBox="0 0 24 24" fill="none" xmlns="http://www.w3.org/2000/svg">
<path fill-rule="evenodd" clip-rule="evenodd" d="M3.77143 5.50879C3.34538 5.50879 3 6.01557 3 6.50002C3 6.98448 3.34538 7.50002 3.77143 7.50002H20.2286C20.6546 7.50002 21 6.98448 21 6.50002C21 6.01557 20.6546 5.50879 20.2286 5.50879H17.6571C17.1278 5.49353 16.5682 5.11033 16.388 4.54412C16.3833 4.52923 16.3778 4.51087 16.3583 4.44424L16.2435 4.05256C16.1733 3.81241 16.1121 3.60318 16.0264 3.41617C15.6881 2.67736 15.0621 2.16432 14.3387 2.03297C14.1556 1.99972 13.9617 1.99986 13.7391 2.00002H10.2611C10.0385 1.99986 9.84457 1.99972 9.66147 2.03297C8.93808 2.16432 8.31209 2.67736 7.97375 3.41617C7.8881 3.60318 7.8269 3.81241 7.75665 4.05256L7.64185 4.44424C7.62232 4.51087 7.61688 4.52923 7.61214 4.54412C7.43202 5.11033 6.96502 5.49306 6.43567 5.50832L3.77143 5.50879ZM12.4044 22.1841H11.5956C8.81287 22.1841 7.42152 22.1841 6.51687 21.2982C5.61223 20.4123 5.51968 18.9591 5.33458 16.0526L5.06786 11.8647L5.05019 11.5909C4.96318 10.2519 4.94481 9.96923 5.37104 9.49996C5.82487 9.0003 6.59125 9.0003 8.12403 9.0003H15.8759C17.4087 9.0003 18.1751 9.0003 18.6289 9.49996C19.0552 9.96923 19.0368 10.2519 18.9498 11.5909L18.9321 11.8647L18.6654 16.0526C18.4803 18.9591 18.3877 20.4123 17.4831 21.2982C16.5785 22.1841 15.1871 22.1841 12.4044 22.1841ZM9.9951 12.4005C9.94014 11.8509 9.4501 11.45 8.90056 11.505C8.35101 11.5599 7.95007 12.05 8.00502 12.5995L8.50502 17.5995C8.55998 18.149 9.05002 18.55 9.59957 18.495C10.1491 18.4401 10.5501 17.95 10.4951 17.4005L9.9951 12.4005ZM15.0997 11.505C15.6492 11.5599 16.0502 12.05 15.9952 12.5995L15.4952 17.5995C15.4403 18.149 14.9502 18.55 14.4007 18.495C13.8511 18.4401 13.4502 17.95 13.5051 17.4005L14.0051 12.4005C14.0601 11.8509 14.5501 11.45 15.0997 11.505Z" fill="currentColor"/>
</svg>
