<svg width="24" height="24" viewBox="0 0 24 24" fill="none" xmlns="http://www.w3.org/2000/svg">
<path fill-rule="evenodd" clip-rule="evenodd" d="M5.97001 3.15201C6.43834 2.8593 7.05529 3.00168 7.348 3.47001L6.50018 3.99991C7.348 3.47001 7.34791 3.46987 7.348 3.47001L7.35034 3.47377L7.35484 3.48102L7.37002 3.50572C7.3828 3.52662 7.40078 3.55628 7.42324 3.59392C7.46812 3.66915 7.53103 3.77654 7.60596 3.90975C7.75533 4.17531 7.95494 4.54779 8.15546 4.97558C8.53513 5.78554 9 6.96057 9 8.00001C9 9.03946 8.53513 10.2145 8.15546 11.0244C7.95494 11.4522 7.75533 11.8247 7.60596 12.0903C7.53103 12.2235 7.46812 12.3309 7.42324 12.4061C7.40078 12.4437 7.3828 12.4734 7.37002 12.4943L7.35484 12.519L7.35034 12.5263L7.3489 12.5286L7.34835 12.5295L7.34623 12.5329L7.33633 12.549C7.32713 12.564 7.31289 12.5875 7.29433 12.6186C7.25718 12.6809 7.2029 12.7735 7.1372 12.8903C7.00533 13.1247 6.82994 13.4522 6.65546 13.8244C6.28513 14.6145 6 15.4395 6 16C6 16.5606 6.28513 17.3855 6.65546 18.1756C6.82994 18.5478 7.00533 18.8753 7.1372 19.1097C7.2029 19.2265 7.25718 19.3191 7.29433 19.3814C7.31289 19.4125 7.32713 19.436 7.33633 19.451L7.34623 19.4672L7.348 19.47C7.64053 19.9383 7.49827 20.5553 7.03001 20.848C6.56167 21.1407 5.94472 20.9983 5.65201 20.53L6.50001 20C5.65201 20.53 5.6521 20.5302 5.65201 20.53L5.64967 20.5263L5.64517 20.519L5.62999 20.4943C5.61722 20.4734 5.59923 20.4437 5.57677 20.4061C5.53189 20.3309 5.46898 20.2235 5.39405 20.0903C5.24468 19.8247 5.04507 19.4522 4.84454 19.0244C4.46488 18.2145 4 17.0395 4 16C4 14.9606 4.46488 13.7855 4.84454 12.9756C5.04507 12.5478 5.24468 12.1753 5.39405 11.9097C5.46898 11.7765 5.53189 11.6691 5.57677 11.5939C5.59923 11.5563 5.61722 11.5266 5.62999 11.5057L5.64517 11.481L5.64967 11.4738L5.65111 11.4714L5.65166 11.4706L5.65378 11.4672L5.66368 11.451C5.67288 11.436 5.68712 11.4125 5.70568 11.3814C5.74283 11.3192 5.79711 11.2265 5.8628 11.1098C5.99468 10.8753 6.17007 10.5478 6.34454 10.1756C6.71487 9.38554 7 8.56057 7 8.00001C7 7.43946 6.71487 6.61449 6.34454 5.82444C6.17007 5.45223 5.99468 5.12471 5.8628 4.89027C5.79711 4.77348 5.74282 4.68087 5.70568 4.6186C5.68712 4.58749 5.67288 4.56403 5.66368 4.54899L5.65378 4.53287L5.65201 4.53001C5.35948 4.0617 5.50174 3.44468 5.97001 3.15201Z" fill="currentColor"/>
<path fill-rule="evenodd" clip-rule="evenodd" d="M10.97 3.15201C11.4383 2.8593 12.0553 3.00168 12.348 3.47001L11.5 4.00001C12.348 3.47001 12.3479 3.46987 12.348 3.47001L12.3489 3.47145L12.3503 3.47377L12.3548 3.48102L12.37 3.50572C12.3828 3.52662 12.4008 3.55628 12.4232 3.59392C12.4681 3.66915 12.531 3.77654 12.606 3.90975C12.7553 4.17531 12.9549 4.54779 13.1555 4.97558C13.5351 5.78554 14 6.96057 14 8.00001C14 9.03946 13.5351 10.2145 13.1555 11.0244C12.9549 11.4522 12.7553 11.8247 12.606 12.0903C12.531 12.2235 12.4681 12.3309 12.4232 12.4061C12.4008 12.4437 12.3828 12.4734 12.37 12.4943L12.3548 12.519L12.3503 12.5263L12.3489 12.5286L12.3484 12.5295L12.3462 12.5329L12.3363 12.549C12.3271 12.564 12.3129 12.5875 12.2943 12.6186C12.2572 12.6809 12.2029 12.7735 12.1372 12.8903C12.0053 13.1247 11.8299 13.4522 11.6555 13.8244C11.2851 14.6145 11 15.4395 11 16C11 16.5606 11.2851 17.3855 11.6555 18.1756C11.8299 18.5478 12.0053 18.8753 12.1372 19.1098C12.2029 19.2265 12.2572 19.3191 12.2943 19.3814C12.3129 19.4125 12.3271 19.436 12.3363 19.451L12.3462 19.4672L12.348 19.47C12.6405 19.9383 12.4983 20.5553 12.03 20.848C11.5617 21.1407 10.9447 20.9983 10.652 20.53L11.5 20C10.652 20.53 10.6521 20.5302 10.652 20.53L10.6511 20.5286L10.6497 20.5263L10.6452 20.519L10.63 20.4943C10.6172 20.4734 10.5992 20.4437 10.5768 20.4061C10.5319 20.3309 10.469 20.2235 10.3941 20.0903C10.2447 19.8247 10.0451 19.4522 9.84454 19.0244C9.46488 18.2145 9 17.0395 9 16C9 14.9606 9.46488 13.7855 9.84454 12.9756C10.0451 12.5478 10.2447 12.1753 10.3941 11.9097C10.469 11.7765 10.5319 11.6691 10.5768 11.5939C10.5992 11.5563 10.6172 11.5266 10.63 11.5057L10.6452 11.481L10.6497 11.4738L10.6517 11.4706L10.6538 11.4672L10.6637 11.451C10.6729 11.436 10.6871 11.4125 10.7057 11.3814C10.7428 11.3192 10.7971 11.2265 10.8628 11.1098C10.9947 10.8753 11.1701 10.5478 11.3445 10.1756C11.7149 9.38554 12 8.56057 12 8.00001C12 7.43946 11.7149 6.61449 11.3445 5.82444C11.1701 5.45223 10.9947 5.12471 10.8628 4.89027C10.7971 4.77348 10.7428 4.68087 10.7057 4.6186C10.6871 4.58749 10.6729 4.56403 10.6637 4.54899L10.6538 4.53287L10.652 4.53001C10.3595 4.0617 10.5017 3.44468 10.97 3.15201Z" fill="currentColor"/>
<path fill-rule="evenodd" clip-rule="evenodd" d="M15.97 3.15201C16.4383 2.8593 17.0553 3.00168 17.348 3.47001L16.5 4.00001C17.348 3.47001 17.3479 3.46987 17.348 3.47001L17.3489 3.47145L17.3503 3.47377L17.3548 3.48102L17.37 3.50572C17.3828 3.52662 17.4008 3.55628 17.4232 3.59392C17.4681 3.66915 17.531 3.77654 17.606 3.90975C17.7553 4.17531 17.9549 4.54779 18.1555 4.97558C18.5351 5.78554 19 6.96057 19 8.00001C19 9.03946 18.5351 10.2145 18.1555 11.0244C17.9549 11.4522 17.7553 11.8247 17.606 12.0903C17.531 12.2235 17.4681 12.3309 17.4232 12.4061C17.4008 12.4437 17.3828 12.4734 17.37 12.4943L17.3548 12.519L17.3503 12.5263L17.3489 12.5286L17.3484 12.5295L17.3462 12.5329L17.3363 12.549C17.3271 12.564 17.3129 12.5875 17.2943 12.6186C17.2572 12.6809 17.2029 12.7735 17.1372 12.8903C17.0053 13.1247 16.8299 13.4522 16.6555 13.8244C16.2851 14.6145 16 15.4395 16 16C16 16.5606 16.2851 17.3855 16.6555 18.1756C16.8299 18.5478 17.0053 18.8753 17.1372 19.1098C17.2029 19.2265 17.2572 19.3191 17.2943 19.3814C17.3129 19.4125 17.3271 19.436 17.3363 19.451L17.3462 19.4672L17.348 19.47C17.6405 19.9383 17.4983 20.5553 17.03 20.848C16.5617 21.1407 15.9447 20.9983 15.652 20.53L16.5 20C15.652 20.53 15.6521 20.5302 15.652 20.53L15.6511 20.5286L15.6497 20.5263L15.6452 20.519L15.63 20.4943C15.6172 20.4734 15.5992 20.4437 15.5768 20.4061C15.5319 20.3309 15.469 20.2235 15.3941 20.0903C15.2447 19.8247 15.0451 19.4522 14.8445 19.0244C14.4649 18.2145 14 17.0395 14 16C14 14.9606 14.4649 13.7855 14.8445 12.9756C15.0451 12.5478 15.2447 12.1753 15.3941 11.9097C15.469 11.7765 15.5319 11.6691 15.5768 11.5939C15.5992 11.5563 15.6172 11.5266 15.63 11.5057L15.6452 11.481L15.6497 11.4738L15.6517 11.4706L15.6538 11.4672L15.6637 11.451C15.6729 11.436 15.6871 11.4125 15.7057 11.3814C15.7428 11.3192 15.7971 11.2265 15.8628 11.1098C15.9947 10.8753 16.1701 10.5478 16.3445 10.1756C16.7149 9.38554 17 8.56057 17 8.00001C17 7.43946 16.7149 6.61449 16.3445 5.82444C16.1701 5.45223 15.9947 5.12471 15.8628 4.89027C15.7971 4.77348 15.7428 4.68087 15.7057 4.6186C15.6871 4.58749 15.6729 4.56403 15.6637 4.54899L15.6538 4.53287L15.652 4.53001C15.3595 4.0617 15.5017 3.44468 15.97 3.15201Z" fill="currentColor"/>
</svg>
