<svg width="24" height="24" viewBox="0 0 24 24" fill="none" xmlns="http://www.w3.org/2000/svg">
<path d="M14.6734 19.01L13.0651 16.5975C12.709 16.0634 12.5309 15.7963 12.3065 15.7032C12.1103 15.6219 11.8898 15.6219 11.6936 15.7032C11.4692 15.7963 11.2911 16.0634 10.935 16.5975L9.32671 19.01C8.89575 19.6564 8.68026 19.9797 8.69627 20.2477C8.71021 20.4812 8.82565 20.6969 9.0122 20.838C9.22634 21 9.6148 21 10.3917 21H13.6083C14.3853 21 14.7737 21 14.9879 20.838C15.1744 20.6969 15.2899 20.4812 15.3038 20.2477C15.3198 19.9797 15.1043 19.6564 14.6734 19.01Z" fill="currentColor"/>
<path d="M9.32671 4.99002L10.935 7.40246C11.2911 7.93661 11.4692 8.20369 11.6936 8.29675C11.8898 8.37812 12.1103 8.37812 12.3065 8.29675C12.5309 8.20369 12.709 7.93661 13.0651 7.40246L14.6734 4.99002C15.1043 4.34357 15.3198 4.02035 15.3038 3.75232C15.2899 3.51882 15.1744 3.30312 14.9879 3.16199C14.7737 3 14.3853 3 13.6083 3H10.3917C9.6148 3 9.22634 3 9.0122 3.16199C8.82565 3.30312 8.71021 3.51882 8.69626 3.75232C8.68026 4.02035 8.89575 4.34358 9.32671 4.99002Z" fill="currentColor"/>
</svg>
