<svg width="24" height="24" viewBox="0 0 24 24" fill="none" xmlns="http://www.w3.org/2000/svg">
<path d="M7.26561 14.0943C6.03745 14.9788 4.99997 16.2709 4.99997 18C4.99997 18.0442 4.99976 18.0908 4.99953 18.1395C4.99544 19.0248 4.98802 20.6279 6.20573 21.9076C0.999995 21.5146 1 19.9143 1 18C1 16.0886 3.68119 14.4904 7.26561 14.0943Z" fill="currentColor"/>
<path d="M10.0008 11.8998C9.67744 11.9655 9.34275 12 9 12C6.23858 12 4 9.76142 4 7C4 4.23858 6.23858 2 9 2C9.34275 2 9.67744 2.03449 10.0008 2.10018C8.76312 3.36279 7.99997 5.09227 7.99997 7C7.99997 8.90773 8.76312 10.6372 10.0008 11.8998Z" fill="currentColor"/>
<path d="M20 7C20 9.76142 17.7614 12 15 12C12.2386 12 10 9.76142 10 7C10 4.23858 12.2386 2 15 2C17.7614 2 20 4.23858 20 7Z" fill="currentColor"/>
<path d="M7 18C7 20.2091 7 22 15 22C23 22 23 20.2091 23 18C23 15.7909 19.4183 14 15 14C10.5817 14 7 15.7909 7 18Z" fill="currentColor"/>
</svg>
