<svg width="24" height="24" viewBox="0 0 24 24" fill="none" xmlns="http://www.w3.org/2000/svg">
<path fill-rule="evenodd" clip-rule="evenodd" d="M14 19L10 19V5H14V19ZM15.9999 5.00122V9.17061C17.1651 9.58245 17.9999 10.6937 17.9999 11.9999C17.9999 13.3061 17.1651 14.4174 15.9999 14.8292L16 18.9986C18.1577 18.9892 19.3408 18.9147 20.2222 18.3258C20.659 18.034 21.034 17.6589 21.3258 17.2222C21.9999 16.2133 21.9999 14.8088 21.9999 11.9999C21.9999 9.19098 21.9999 7.78652 21.3258 6.77763C21.034 6.34087 20.659 5.96586 20.2222 5.67403C19.3408 5.08513 18.1576 5.01063 15.9999 5.00122ZM8 5.00134C5.8423 5.01076 4.65907 5.08524 3.77772 5.67414C3.34096 5.96598 2.96596 6.34098 2.67412 6.77774C2 7.78664 2 9.1911 2 12C2 14.8089 2 16.2134 2.67412 17.2223C2.96596 17.6591 3.34096 18.0341 3.77772 18.3259C4.65907 18.9148 5.8423 18.9893 8 18.9987V14.8293C6.83481 14.4175 6 13.3062 6 12C6 10.6938 6.83481 9.58257 8 9.17073V5.00134Z" fill="currentColor"/>
</svg>
