<svg width="24" height="24" viewBox="0 0 24 24" fill="none" xmlns="http://www.w3.org/2000/svg">
<g clip-path="url(#clip0_1_1037)">
<path fill-rule="evenodd" clip-rule="evenodd" d="M22.3029 13.6972C23.2401 12.7599 23.2401 11.2404 22.3029 10.3031L13.697 1.69721C12.7597 0.759948 11.2401 0.759948 10.3028 1.69721L1.69696 10.3031C0.759704 11.2404 0.759704 12.7599 1.69696 13.6972L10.3028 22.3031C11.2401 23.2404 12.7597 23.2404 13.697 22.3031L22.3029 13.6972ZM11.9999 7.00015C12.5522 7.00015 12.9999 7.44787 12.9999 8.00015V12.0001C12.9999 12.5524 12.5522 13.0001 11.9999 13.0001C11.4476 13.0001 10.9999 12.5524 10.9999 12.0001V8.00015C10.9999 7.44787 11.4476 7.00015 11.9999 7.00015ZM13.4999 15.5001C13.4999 16.3286 12.8283 17.0001 11.9999 17.0001C11.1715 17.0001 10.4999 16.3286 10.4999 15.5001C10.4999 14.6717 11.1715 14.0001 11.9999 14.0001C12.8283 14.0001 13.4999 14.6717 13.4999 15.5001Z" fill="currentColor"/>
</g>
<defs>
<clipPath id="clip0_1_1037">
<rect width="24" height="24" fill="white"/>
</clipPath>
</defs>
</svg>
