<svg width="24" height="24" viewBox="0 0 24 24" fill="none" xmlns="http://www.w3.org/2000/svg">
<path d="M3.10222 8.77646C3 8.39496 3 7.92997 3 7C3 6.07003 3 5.60504 3.10222 5.22354C3.37962 4.18827 4.18827 3.37962 5.22354 3.10222C5.60504 3 6.07003 3 7 3C7.92997 3 8.39496 3 8.77646 3.10222C9.81173 3.37962 10.6204 4.18827 10.8978 5.22354C11 5.60504 11 6.07003 11 7V10.2C11 10.48 11 10.62 10.9455 10.727C10.8976 10.8211 10.8211 10.8976 10.727 10.9455C10.62 11 10.48 11 10.2 11H7C6.07003 11 5.60504 11 5.22354 10.8978C4.18827 10.6204 3.37962 9.81173 3.10222 8.77646Z" fill="currentColor"/>
<path d="M3.10222 15.2235C3 15.605 3 16.07 3 17C3 17.93 3 18.395 3.10222 18.7765C3.37962 19.8117 4.18827 20.6204 5.22354 20.8978C5.60504 21 6.07003 21 7 21C7.92997 21 8.39496 21 8.77646 20.8978C9.81173 20.6204 10.6204 19.8117 10.8978 18.7765C11 18.395 11 17.93 11 17V13.8C11 13.52 11 13.38 10.9455 13.273C10.8976 13.1789 10.8211 13.1024 10.727 13.0545C10.62 13 10.48 13 10.2 13H7C6.07003 13 5.60504 13 5.22354 13.1022C4.18827 13.3796 3.37962 14.1883 3.10222 15.2235Z" fill="currentColor"/>
<path d="M21 7C21 7.92997 21 8.39496 20.8978 8.77646C20.6204 9.81173 19.8117 10.6204 18.7765 10.8978C18.395 11 17.93 11 17 11H13.8C13.52 11 13.38 11 13.273 10.9455C13.1789 10.8976 13.1024 10.8211 13.0545 10.727C13 10.62 13 10.48 13 10.2V7C13 6.07003 13 5.60504 13.1022 5.22354C13.3796 4.18827 14.1883 3.37962 15.2235 3.10222C15.605 3 16.07 3 17 3C17.93 3 18.395 3 18.7765 3.10222C19.8117 3.37962 20.6204 4.18827 20.8978 5.22354C21 5.60504 21 6.07003 21 7Z" fill="currentColor"/>
<path d="M20.8978 15.2235C21 15.605 21 16.07 21 17C21 17.93 21 18.395 20.8978 18.7765C20.6204 19.8117 19.8117 20.6204 18.7765 20.8978C18.395 21 17.93 21 17 21C16.07 21 15.605 21 15.2235 20.8978C14.1883 20.6204 13.3796 19.8117 13.1022 18.7765C13 18.395 13 17.93 13 17V13.8C13 13.52 13 13.38 13.0545 13.273C13.1024 13.1789 13.1789 13.1024 13.273 13.0545C13.38 13 13.52 13 13.8 13H17C17.93 13 18.395 13 18.7765 13.1022C19.8117 13.3796 20.6204 14.1883 20.8978 15.2235Z" fill="currentColor"/>
</svg>
