<svg width="24" height="24" viewBox="0 0 24 24" fill="none" xmlns="http://www.w3.org/2000/svg">
<path d="M14.98 15.8397C15.2768 16.0167 15.3263 16.4157 15.1068 16.6827L12.4633 19.8964C12.2233 20.1882 11.7765 20.1882 11.5365 19.8964L8.89139 16.6807C8.67167 16.4135 8.72146 16.0142 9.01868 15.8373C9.76915 15.3907 10.7931 14.9728 11.9976 14.9728C13.2046 14.9728 14.2298 15.3922 14.98 15.8397Z" fill="currentColor"/>
<path d="M18.4565 11.6745C18.7196 11.8725 18.7535 12.2492 18.5444 12.5035L17.2627 14.0617C17.0542 14.3151 16.682 14.352 16.4116 14.1661C15.1037 13.2669 13.5731 12.7782 11.9955 12.7782C10.4199 12.7782 8.89128 13.2656 7.58462 14.1625C7.31423 14.3481 6.94229 14.3111 6.73395 14.0578L5.45206 12.4994C5.24282 12.245 5.27688 11.868 5.54022 11.6702C7.4192 10.2584 9.67023 9.48638 11.9955 9.48638C14.3231 9.48638 16.5763 10.26 18.4565 11.6745Z" fill="currentColor"/>
<path d="M21.8661 7.54639C22.1186 7.75091 22.1488 8.12153 21.9424 8.37244L20.6687 9.92087C20.4555 10.1801 20.0719 10.2128 19.807 10.0068C17.5517 8.25319 14.8234 7.29181 12.0026 7.29181C9.18053 7.29181 6.45095 8.25408 4.19508 10.0092C3.93014 10.2154 3.54645 10.1827 3.3332 9.92343L2.05958 8.37506C1.85324 8.1242 1.88338 7.75365 2.13572 7.54911C4.96072 5.25923 8.42115 4 12.0026 4C15.5827 4 19.0418 5.25823 21.8661 7.54639Z" fill="currentColor"/>
</svg>
