<svg width="24" height="24" viewBox="0 0 24 24" fill="none" xmlns="http://www.w3.org/2000/svg">
<path fill-rule="evenodd" clip-rule="evenodd" d="M10.5 3.5C10.5 3.03406 10.5 2.80109 10.5761 2.61732C10.6776 2.37229 10.8723 2.17761 11.1173 2.07612C11.3011 2 11.5341 2 12 2C12.4659 2 12.6989 2 12.8827 2.07612C13.1277 2.17761 13.3224 2.37229 13.4239 2.61732C13.5 2.80109 13.5 3.03406 13.5 3.5V4L16 4.0001V3.5C16 3.03406 16 2.80109 16.0761 2.61732C16.1776 2.37229 16.3723 2.17761 16.6173 2.07612C16.8011 2 17.0341 2 17.5 2C17.9659 2 18.1989 2 18.3827 2.07612C18.6277 2.17761 18.8224 2.37229 18.9239 2.61732C19 2.80109 19 3.03406 19 3.5V4.15933C19.3067 4.22285 19.5721 4.3117 19.816 4.43597C20.5686 4.81947 21.1805 5.43139 21.564 6.18404C22 7.03968 22 8.15979 22 10.4V15.6C22 17.8402 22 18.9603 21.564 19.816C21.1805 20.5686 20.5686 21.1805 19.816 21.564C18.9603 22 17.8402 22 15.6 22H8.4C6.15979 22 5.03969 22 4.18404 21.564C3.43139 21.1805 2.81947 20.5686 2.43597 19.816C2 18.9603 2 17.8402 2 15.6V10.4C2 8.15979 2 7.03968 2.43597 6.18404C2.81947 5.43139 3.43139 4.81947 4.18404 4.43597C4.42793 4.3117 4.69332 4.22285 5 4.15933V3.5C5 3.03406 5 2.80109 5.07612 2.61732C5.17761 2.37229 5.37229 2.17761 5.61732 2.07612C5.80109 2 6.03406 2 6.5 2C6.96594 2 7.19891 2 7.38268 2.07612C7.62771 2.17761 7.82239 2.37229 7.92388 2.61732C8 2.80109 8 3.03406 8 3.5V4.0001L10.5 4V3.5ZM4.21799 11.092C4 11.5198 4 12.0799 4 13.2V16.8C4 17.9201 4 18.4802 4.21799 18.908C4.40973 19.2843 4.71569 19.5903 5.09202 19.782C5.51984 20 6.0799 20 7.2 20H16.8C17.9201 20 18.4802 20 18.908 19.782C19.2843 19.5903 19.5903 19.2843 19.782 18.908C20 18.4802 20 17.9201 20 16.8V13.2C20 12.0799 20 11.5198 19.782 11.092C19.5903 10.7157 19.2843 10.4097 18.908 10.218C18.4802 10 17.9201 10 16.8 10H7.2C6.0799 10 5.51984 10 5.09202 10.218C4.71569 10.4097 4.40973 10.7157 4.21799 11.092Z" fill="currentColor"/>
</svg>
