<svg width="140" height="40" viewBox="0 0 140 40" fill="none" xmlns="http://www.w3.org/2000/svg">
<rect width="140" height="40" rx="12" fill="#282A2D"/>
<path d="M28.3933 14.668C30.6753 14.668 32.2433 15.9 32.6773 18.07H30.9833C30.6473 16.824 29.6953 16.124 28.3513 16.124C26.6153 16.124 25.3553 17.398 25.3553 19.89C25.3553 22.354 26.5453 23.726 28.3373 23.726C29.5413 23.726 31.0533 23.194 31.0533 21.388V21.192H28.4633V19.694H32.7053V25H31.3053L31.2493 23.782C30.6473 24.678 29.5413 25.182 28.1413 25.182C25.2573 25.182 23.5213 23.082 23.5213 19.89C23.5213 16.74 25.3693 14.668 28.3933 14.668ZM35.8894 21.248C35.8894 22.984 36.8134 23.824 37.8774 23.824C38.9414 23.824 39.8654 22.984 39.8654 21.248C39.8654 19.512 38.9414 18.658 37.8774 18.658C36.8134 18.658 35.8894 19.512 35.8894 21.248ZM37.8774 17.3C39.7114 17.3 41.5874 18.532 41.5874 21.248C41.5874 23.978 39.7114 25.182 37.8774 25.182C36.0434 25.182 34.1674 23.978 34.1674 21.248C34.1674 18.532 36.0434 17.3 37.8774 17.3ZM44.2566 21.248C44.2566 22.984 45.1806 23.824 46.2446 23.824C47.3086 23.824 48.2326 22.984 48.2326 21.248C48.2326 19.512 47.3086 18.658 46.2446 18.658C45.1806 18.658 44.2566 19.512 44.2566 21.248ZM46.2446 17.3C48.0786 17.3 49.9546 18.532 49.9546 21.248C49.9546 23.978 48.0786 25.182 46.2446 25.182C44.4106 25.182 42.5346 23.978 42.5346 21.248C42.5346 18.532 44.4106 17.3 46.2446 17.3ZM56.4038 18.476V17.468H58.0698V24.244C58.0698 25.462 57.7618 26.344 57.1598 26.904C56.5578 27.464 55.6618 27.716 54.4858 27.716C52.8338 27.716 51.5318 27.058 51.2658 25.406H52.9178C53.0718 26.12 53.5198 26.4 54.5278 26.4C55.2698 26.4 55.7458 26.19 56.0258 25.854C56.3058 25.532 56.4038 25.07 56.4038 24.58V23.698C55.9558 24.44 55.1718 24.874 54.1638 24.874C52.3718 24.874 50.8878 23.432 50.8878 21.08C50.8878 18.728 52.3718 17.3 54.1638 17.3C55.1718 17.3 55.9558 17.734 56.4038 18.476ZM56.4738 21.08C56.4738 19.4 55.6058 18.63 54.5278 18.63C53.4078 18.63 52.6238 19.568 52.6238 21.08C52.6238 22.634 53.4078 23.558 54.5278 23.558C55.6058 23.558 56.4738 22.774 56.4738 21.08ZM61.603 14.85V25H59.937V14.85H61.603ZM70.282 21.71H64.668C64.78 23.11 65.76 23.796 66.712 23.796C67.594 23.796 68.266 23.46 68.56 22.746H70.198C69.862 23.95 68.714 25.182 66.782 25.182C64.36 25.182 62.974 23.348 62.974 21.178C62.974 18.91 64.528 17.3 66.67 17.3C68.98 17.3 70.436 19.19 70.282 21.71ZM66.67 18.602C65.886 18.602 64.822 19.078 64.668 20.492H68.588C68.546 19.316 67.65 18.602 66.67 18.602ZM74.9644 14.85H78.3104C80.5364 14.85 82.6224 15.2 82.6224 18.042C82.6224 20.604 80.7324 21.164 78.3384 21.164H76.7424V25H74.9644V14.85ZM78.3104 16.278H76.7424V19.708H78.3944C79.7384 19.708 80.7744 19.512 80.7744 18.056C80.7744 16.418 79.5564 16.278 78.3104 16.278ZM85.3784 14.85V25H83.7124V14.85H85.3784ZM91.9154 22.032V21.458C89.5354 21.682 88.5694 22.032 88.5694 22.886C88.5694 23.544 89.1154 23.936 89.9554 23.936C91.1874 23.936 91.9154 23.32 91.9154 22.032ZM89.5914 25.182C87.9534 25.182 86.8054 24.3 86.8054 22.928C86.8054 21.038 89.1294 20.59 91.8734 20.296V20.156C91.8734 18.868 91.1454 18.476 90.3054 18.476C89.4654 18.476 88.8354 18.924 88.7934 19.834H87.1554C87.2674 18.308 88.5414 17.244 90.3614 17.244C92.1674 17.244 93.5814 18.07 93.5394 20.478C93.5394 20.842 93.5114 21.738 93.5114 22.424C93.5114 23.376 93.5814 24.37 93.7354 25H92.2094C92.1534 24.678 92.1114 24.496 92.0694 23.978C91.5794 24.804 90.7114 25.182 89.5914 25.182ZM95.5494 27.45H94.7934V26.176H95.4234C96.1514 26.176 96.4594 26.12 96.7954 25.14L96.8794 24.958L94.1494 17.468H95.9694L97.6774 22.872L99.3854 17.468H101.093L98.4474 24.986C97.7334 26.932 97.2434 27.45 95.5494 27.45Z" fill="white"/>
<path fill-rule="evenodd" clip-rule="evenodd" d="M118.918 19.3231L120.666 17.5631L113.592 13.4565C113.394 13.3416 113.183 13.3149 112.982 13.3448L118.918 19.3231ZM121.519 18.0579L123.436 19.1703C124.071 19.5391 124.071 20.4617 123.436 20.8299L121.519 21.9429L119.59 20.0007L121.519 18.0579ZM112.982 26.6558L118.918 20.6775L120.666 22.4375L113.592 26.5441C113.394 26.659 113.183 26.685 112.982 26.6558ZM112.167 14.2865C112.167 14.1633 112.195 14.0516 112.235 13.9462L118.246 20.0007L112.235 26.0538C112.195 25.9491 112.167 25.8373 112.167 25.7142V14.2865Z" fill="white"/>
</svg>
