<svg width="140" height="40" viewBox="0 0 140 40" fill="none" xmlns="http://www.w3.org/2000/svg">
<rect width="140" height="40" rx="12" fill="#282A2D"/>
<path d="M31.1152 25L34.8952 14.85H36.7712L40.5792 25H38.6332L37.8352 22.746H33.7192L32.9352 25H31.1152ZM35.7632 16.908L34.2372 21.262H37.3032L35.7632 16.908ZM43.1102 21.234C43.1102 22.97 43.9642 23.824 45.0562 23.824C46.2322 23.824 46.9182 22.844 46.9182 21.234C46.9182 19.652 46.2322 18.658 45.0562 18.658C43.9642 18.658 43.1102 19.498 43.1102 21.234ZM41.5142 17.468H43.1802V18.476C43.6282 17.734 44.4122 17.3 45.4202 17.3C47.2682 17.3 48.6542 18.826 48.6542 21.234C48.6542 23.656 47.2682 25.182 45.4202 25.182C44.4122 25.182 43.6282 24.748 43.1802 24.006V27.45H41.5142V17.468ZM51.6141 21.234C51.6141 22.97 52.4681 23.824 53.5601 23.824C54.7361 23.824 55.4221 22.844 55.4221 21.234C55.4221 19.652 54.7361 18.658 53.5601 18.658C52.4681 18.658 51.6141 19.498 51.6141 21.234ZM50.0181 17.468H51.6841V18.476C52.1321 17.734 52.9161 17.3 53.9241 17.3C55.7721 17.3 57.1581 18.826 57.1581 21.234C57.1581 23.656 55.7721 25.182 53.9241 25.182C52.9161 25.182 52.1321 24.748 51.6841 24.006V27.45H50.0181V17.468ZM62.386 20.632L61.154 20.394C59.544 20.058 58.228 19.246 58.228 17.524C58.228 15.634 60.202 14.668 62.064 14.668C64.08 14.668 65.634 15.578 66.04 17.692H64.318C64.024 16.474 62.974 16.124 61.966 16.124C61.182 16.124 60.02 16.474 60.02 17.468C60.02 18.252 60.65 18.644 61.532 18.812L62.778 19.05C64.556 19.386 66.25 20.058 66.25 22.088C66.25 24.146 64.22 25.182 62.218 25.182C59.796 25.182 58.172 23.88 57.948 21.64H59.698C60.02 23.04 60.902 23.726 62.302 23.726C63.506 23.726 64.472 23.18 64.472 22.2C64.472 21.15 63.352 20.814 62.386 20.632ZM67.8381 17.468V15.48H69.5041V17.468H71.0161V18.672H69.5041V22.774C69.5041 23.544 69.6861 23.726 70.4001 23.726H71.0021V25H69.7701C68.1601 25 67.8381 24.566 67.8381 23.026V18.672H66.7181V17.468H67.8381ZM73.5759 21.248C73.5759 22.984 74.4999 23.824 75.5639 23.824C76.6279 23.824 77.5519 22.984 77.5519 21.248C77.5519 19.512 76.6279 18.658 75.5639 18.658C74.4999 18.658 73.5759 19.512 73.5759 21.248ZM75.5639 17.3C77.3979 17.3 79.2739 18.532 79.2739 21.248C79.2739 23.978 77.3979 25.182 75.5639 25.182C73.7299 25.182 71.8539 23.978 71.8539 21.248C71.8539 18.532 73.7299 17.3 75.5639 17.3ZM84.7591 17.482V19.162C84.4791 19.134 84.2131 19.12 83.9611 19.12C82.9111 19.12 82.3091 19.54 82.3091 21.052V25H80.6431V17.468H82.2811V18.812C82.6871 17.972 83.4151 17.468 84.3251 17.454C84.4511 17.454 84.6331 17.468 84.7591 17.482ZM92.451 21.71H86.837C86.949 23.11 87.929 23.796 88.881 23.796C89.763 23.796 90.435 23.46 90.729 22.746H92.367C92.031 23.95 90.883 25.182 88.951 25.182C86.529 25.182 85.143 23.348 85.143 21.178C85.143 18.91 86.697 17.3 88.839 17.3C91.149 17.3 92.605 19.19 92.451 21.71ZM88.839 18.602C88.055 18.602 86.991 19.078 86.837 20.492H90.757C90.715 19.316 89.819 18.602 88.839 18.602Z" fill="white"/>
<path d="M113.023 19.7997C113.037 18.6675 113.649 17.5962 114.619 17.0032C114.007 16.1341 112.982 15.5831 111.916 15.5499C110.778 15.4312 109.675 16.2267 109.096 16.2267C108.505 16.2267 107.613 15.5617 106.652 15.5814C105.399 15.6216 104.231 16.3297 103.622 17.4186C102.312 19.6739 103.289 22.9884 104.544 24.8113C105.172 25.704 105.906 26.7011 106.866 26.6658C107.805 26.627 108.156 26.07 109.29 26.07C110.414 26.07 110.743 26.6658 111.722 26.6433C112.731 26.627 113.366 25.7466 113.972 24.8455C114.423 24.2095 114.77 23.5065 115 22.7626C113.815 22.2644 113.024 21.0788 113.023 19.7997Z" fill="white"/>
<path d="M111.172 14.351C111.722 13.6949 111.993 12.8515 111.927 12C111.088 12.0877 110.312 12.4868 109.755 13.1178C109.21 13.7343 108.926 14.5628 108.98 15.3818C109.82 15.3904 110.646 15.0021 111.172 14.351Z" fill="white"/>
</svg>
